<?xml version="1.0" standalone="no"?>
<!DOCTYPE svg PUBLIC "-//W3C//DTD SVG 1.1//EN" "http://www.w3.org/Graphics/SVG/1.1/DTD/svg11.dtd" >
<svg xmlns="http://www.w3.org/2000/svg" xmlns:xlink="http://www.w3.org/1999/xlink" version="1.1">
<metadata>
Created by FontForge 20170731 at Wed Jun 29 10:40:11 2022
 By Aleksey,,,
2014
</metadata>
<defs>
<font id="HarabaraMaisBold-HarabaraMaisBold" horiz-adv-x="1099" >
  <font-face 
    font-family="Harabara Mais Demo"
    font-weight="400"
    font-stretch="normal"
    units-per-em="2048"
    panose-1="2 11 6 3 5 3 2 2 2 4"
    ascent="1638"
    descent="-410"
    x-height="1083"
    cap-height="1393"
    bbox="-2388.02 -525.974 2095 1888"
    underline-thickness="0"
    underline-position="0"
    unicode-range="U+0020-25A0"
  />
<missing-glyph horiz-adv-x="2119" 
d="M668 1393h229l504 -1393h-305l-92 289h-539l-92 -289h-301l460 1300q30 93 136 93zM731 1112l-190 -592h383z" />
    <glyph glyph-name=".notdef" horiz-adv-x="2119" 
d="M668 1393h229l504 -1393h-305l-92 289h-539l-92 -289h-301l460 1300q30 93 136 93zM731 1112l-190 -592h383z" />
    <glyph glyph-name=".null" horiz-adv-x="0" 
 />
    <glyph glyph-name="nonmarkingreturn" horiz-adv-x="682" 
 />
    <glyph glyph-name="space" unicode=" " horiz-adv-x="958" 
 />
    <glyph glyph-name="exclam" unicode="!" horiz-adv-x="403" 
d="M117 377l-45 874q-12 145 141 142h135l-49 -1016h-182zM176 268h168v-268h-272v168q0 100 104 100z" />
    <glyph glyph-name="numbersign" unicode="#" horiz-adv-x="1646" 
d="M416 1044h176l108 332h84q110 0 125 -73q14 -70 -2 -123l-43 -136h189l110 332h80q92 0 122 -53t7 -143l-45 -136h246l-88 -256h-246l-63 -196h243l-88 -260h-244l-110 -332h-277l111 332h-186l-109 -332h-276l112 332h-301l45 133q37 127 168 127h176l64 196h-299
l43 132q41 124 168 124zM965 788h-185l-67 -196h186z" />
    <glyph glyph-name="dollar" unicode="$" horiz-adv-x="1275" 
d="M713 219q107 6 160 48t51 120q0 29 -13.5 53.5t-30 39t-50 29.5t-55 21.5t-62.5 18.5v-330zM559 1180q-165 -20 -174 -160q0 -107 174 -168v328zM713 -193h-154v168q-455 38 -467 453h277q12 -180 190 -209v369q-10 2 -19.5 4t-19.5 4q-407 105 -407 381q9 409 446 424
v172q154 0 154 -133v-39q414 -30 438 -428h-160q-88 -3 -127 98q-31 94 -151 109v-371q111 -26 274 -84q232 -82 217 -340q-24 -386 -491 -410v-168z" />
    <glyph glyph-name="percent" unicode="%" horiz-adv-x="1394" 
d="M1096 1393h129l-822 -1413h-231l789 1355q21 38 48 48t87 10zM1352 319q0 119 -86.5 208t-204.5 89t-205.5 -89t-87.5 -208q0 -118 87 -204t206 -86t205 86t86 204zM43 1049q0 121 85.5 205.5t207.5 84.5q119 0 206 -86t87 -204q0 -119 -87.5 -206t-205.5 -87
q-122 0 -207.5 86t-85.5 207zM479 1049q0 60 -41.5 101.5t-101.5 41.5t-101.5 -41.5t-41.5 -101.5t41.5 -103t101.5 -43t101.5 43t41.5 103zM915 319q0 60 43 103t103 43t101.5 -43t41.5 -103t-41.5 -99.5t-101.5 -39.5q-61 0 -103.5 40t-42.5 99z" />
    <glyph glyph-name="ampersand" unicode="&#x26;" horiz-adv-x="1306" 
d="M496 621l-72 -54q-88 -64 -88 -172q0 -178 196 -190q141 0 220 98zM588 1212q-114 0 -117 -108q0 -54 57 -123l47 -61q125 64 125 188q-3 104 -112 104zM588 1415q155 0 253.5 -81.5t98.5 -225.5q0 -84 -33 -153t-79 -113t-115 -86l198 -252q49 87 70 235h147
q98 0 89 -106q-9 -156 -152 -318l258 -311h-328l-96 117q-106 -98 -182 -117q-146 -37 -293.5 -17t-239.5 93q-125 113 -125 297q0 67 16 123t40.5 96.5t66.5 78.5t81 64t97 58l-57 71q-51 78 -70.5 157.5t0.5 159.5t86 138q106 89 269 92z" />
    <glyph glyph-name="quotesingle" unicode="'" horiz-adv-x="319" 
d="M131 1393h105v-150l-80 -346l-84 342v96q0 58 59 58z" />
    <glyph glyph-name="parenleft" unicode="(" horiz-adv-x="575" 
d="M553 1415q-119 -189 -180.5 -392.5t-61.5 -451.5t61 -445.5t181 -389.5h-188q-318 427 -318 835q0 348 238 725q46 73 105.5 96t162.5 23z" />
    <glyph glyph-name="parenright" unicode=")" horiz-adv-x="598" 
d="M72 -264q119 207 179 399t60 440q0 245 -61.5 445.5t-177.5 394.5h184q315 -427 315 -840q0 -196 -79 -415q-67 -164 -152 -303q-48 -72 -108 -96.5t-160 -24.5z" />
    <glyph glyph-name="asterisk" unicode="*" horiz-adv-x="626" 
d="M324 1393h53v-164l102 26q59 22 74 -38l14 -54l-155 -47l59 -88q31 -46 -14 -80l-45 -33l-93 138l-63 -88q-38 -44 -84 -9l-45 31l96 129l-151 47l12 54q20 59 72 38l104 -26v106q0 58 64 58z" />
    <glyph glyph-name="comma" unicode="," horiz-adv-x="374" 
d="M160 215h143v-207q0 -223 -235 -264v43q0 37 59 66q74 43 74 110q0 37 -41 37h-88v135q0 80 88 80z" />
    <glyph glyph-name="period" unicode="." horiz-adv-x="374" 
d="M160 215h143v-215h-231v135q0 80 88 80z" />
    <glyph glyph-name="slash" unicode="/" horiz-adv-x="643" 
d="M80 -176h-105l496 1708h145l-489 -1671q-15 -37 -47 -37z" />
    <glyph glyph-name="zero" unicode="0" horiz-adv-x="1146" 
d="M575 1415q512 0 521 -719q9 -716 -521 -716q-528 0 -516 720q3 715 516 715zM575 1188q-223 0 -223 -488q-9 -491 223 -491q233 0 230 487q-3 492 -230 492z" />
    <glyph glyph-name="one" unicode="1" horiz-adv-x="706" 
d="M72 1141q113 0 199 72t116 180h84q145 0 145 -146v-1251h-284v940h-260v205z" />
    <glyph glyph-name="two" unicode="2" horiz-adv-x="1130" 
d="M197 899q-135 0 -105 158q70 358 488 358q236 0 358.5 -109.5t132.5 -332.5q-9 -159 -80 -248q-82 -115 -432 -352q-97 -62 -110 -129h608v-244h-1006q9 188 96 344q93 149 261 256t297 215q66 54 75 162q12 206 -205 215q-226 0 -223 -293h-155z" />
    <glyph glyph-name="three" unicode="3" horiz-adv-x="1130" 
d="M496 823q120 0 181.5 45.5t61.5 147.5q2 88 -44.5 132t-141.5 44q-192 0 -201 -223h-147q-146 -3 -105 147q88 299 463 299q456 3 465 -379q9 -194 -172 -276q223 -79 223 -328q0 -449 -526 -452q-263 0 -388.5 116t-113.5 348h277q2 -119 58.5 -176.5t168.5 -56.5
q225 3 225 209q0 210 -272 213h-43v190h31z" />
    <glyph glyph-name="four" unicode="4" horiz-adv-x="1175" 
d="M676 0v307h-604v252l528 834h211q141 0 141 -146v-706h168v-234h-168v-307h-276zM680 532v613l-387 -613h387z" />
    <glyph glyph-name="five" unicode="5" horiz-adv-x="1130" 
d="M784 469q0 256 -235 256q-124 0 -193 -100l-256 14l93 754h679q144 0 144 -146v-96h-621l-39 -270q112 71 232 71q491 0 491 -469q0 -488 -534 -503q-470 0 -494 423h281q3 -198 213 -198q239 0 239 264z" />
    <glyph glyph-name="six" unicode="6" horiz-adv-x="1146" 
d="M592 201q204 0 213 260q-12 235 -221 235q-210 -9 -219 -231q3 -264 227 -264zM59 664q0 133 19.5 245t62.5 206.5t108 160.5t160.5 102.5t215.5 36.5q182 0 302.5 -99t129.5 -259h-209q-49 0 -76 43q-62 92 -180 92q-64 0 -109 -28.5t-70.5 -81.5t-37.5 -114t-15 -141
q114 97 273 97q208 0 335.5 -125t127.5 -330q0 -219 -138.5 -354t-365.5 -135q-533 0 -533 684z" />
    <glyph glyph-name="seven" unicode="7" horiz-adv-x="1187" 
d="M276 0q15 578 500 1149h-704v244h919q112 0 127 -80q15 -81 -35 -137q-250 -286 -358 -547q-133 -304 -154 -629h-295z" />
    <glyph glyph-name="eight" unicode="8" horiz-adv-x="1138" 
d="M575 1411q478 0 478 -371q0 -184 -172 -292q206 -93 206 -336q0 -432 -520 -432q-508 9 -508 432q0 231 209 336q-180 61 -180 301q24 362 487 362zM575 1188q-190 0 -202 -168q0 -168 200 -168q203 0 203 168q-9 168 -201 168zM575 637q-214 0 -223 -209
q-5 -108 50.5 -161.5t172.5 -53.5q114 0 170 54t52 161q-9 209 -222 209z" />
    <glyph glyph-name="nine" unicode="9" horiz-adv-x="1146" 
d="M563 1196q-202 0 -211 -260q12 -236 219 -236q213 9 222 232q-3 264 -230 264zM524 471q-207 0 -336 126t-129 331q0 219 138.5 353t365.5 134q533 0 533 -684q0 -168 -31.5 -301.5t-97 -236t-176 -158t-259.5 -55.5q-182 0 -302.5 99.5t-129.5 260.5h207q51 0 78 -43
q62 -92 178 -92q64 0 109.5 28t71 80t38 113.5t15.5 140.5q-113 -96 -273 -96z" />
    <glyph glyph-name="colon" unicode=":" horiz-adv-x="374" 
d="M160 215h143v-215h-231v135q0 80 88 80zM160 868h143v-217h-231v137q0 80 88 80z" />
    <glyph glyph-name="semicolon" unicode=";" horiz-adv-x="374" 
d="M160 215h143v-207q0 -223 -235 -264v43q0 37 59 66q74 43 74 110q0 37 -41 37h-88v135q0 80 88 80zM160 868h143v-217h-231v137q0 80 88 80z" />
    <glyph glyph-name="question" unicode="?" horiz-adv-x="1026" 
d="M387 399q0 83 6 133t26.5 93t49 73.5t84.5 77.5q43 34 71 62t54.5 77.5t26.5 100.5q0 134 -181 143q-192 0 -213 -207q-22 0 -58.5 -1.5t-55.5 -1.5t-46 2t-41 9t-28.5 20t-20.5 34.5t-6 52.5q53 334 477 334q449 0 449 -393q0 -116 -66 -207q-64 -78 -215 -226
q-52 -49 -61 -139v-37h-252zM479 276h176v-276h-278v172q0 104 102 104z" />
    <glyph glyph-name="at" unicode="@" horiz-adv-x="1974" 
d="M713 475q0 -182 155 -182q80 0 148 59q61 55 88 160l55 213q-3 160 -172 160q-82 0 -146.5 -65t-96 -157.5t-31.5 -187.5zM1108 307q-50 -80 -117 -120t-172 -40q-156 0 -235.5 85t-79.5 247q0 108 34.5 207.5t95.5 175.5t150.5 121t192.5 45q81 0 134 -33t97 -96l47 96
q181 0 138 -147l-113 -475q-6 -34 17 -52t75 -18q61 3 121.5 45.5t100.5 96.5t67 114q39 98 39 234q0 123 -51.5 224t-140 167.5t-205.5 102.5t-250 36q-156 0 -258 -29t-211 -98q-158 -108 -251 -268.5t-93 -374.5q0 -155 55.5 -280t154.5 -207t234.5 -126t296.5 -44
q163 0 318 52t270 132q17 -30 2 -103q-14 -71 -86 -112q-4 -2 -63 -28t-91 -38q-174 -55 -348 -55q-304 0 -529 124.5t-319 332.5q-76 143 -76 348q0 160 54 311q55 174 192.5 319t302.5 218q195 88 453 88q176 0 307 -42t252 -126q127 -103 195.5 -228.5t68.5 -300.5
q0 -158 -63 -296q-69 -140 -185 -236q-81 -59 -147 -84q-110 -29 -168 -29q-205 0 -213 164z" />
    <glyph glyph-name="A" unicode="A" horiz-adv-x="1462" 
d="M668 1393h229l500 -1393h-301l-92 285h-539l-92 -285h-305l464 1300q30 93 136 93zM731 1112l-190 -592h383z" />
    <glyph glyph-name="B" unicode="B" horiz-adv-x="1271" 
d="M1212 424q0 -210 -136.5 -317t-370.5 -107h-633v1243q0 61 42 105.5t101 44.5h512q205 0 320.5 -86.5t115.5 -266.5q0 -206 -168 -288q108 -42 162.5 -118.5t54.5 -209.5zM877 1004q0 83 -52 115t-157 32h-316v-299h320q205 0 205 152zM911 432q0 102 -57 143t-174 41
h-328v-364h332q113 0 170 40.5t57 139.5z" />
    <glyph glyph-name="C" unicode="C" horiz-adv-x="1370" 
d="M1305 483q-20 -240 -179.5 -371.5t-425.5 -131.5q-210 0 -355.5 89t-215.5 248.5t-70 378.5q0 342 170 530.5t496 188.5q258 0 412 -127q147 -132 168 -360h-172q-93 0 -134 84q-71 151 -274 151q-192 0 -286.5 -124t-94.5 -343q0 -140 38 -242t123.5 -162.5t211.5 -60.5
q130 0 208.5 66.5t102.5 185.5h277z" />
    <glyph glyph-name="D" unicode="D" horiz-adv-x="1310" 
d="M616 1393q635 0 635 -697q0 -260 -108 -437t-307 -230q-113 -29 -295 -29h-469v1243q0 147 143 150h401zM961 696q0 221 -80 337t-265 116h-264v-897h228q206 0 293.5 108.5t87.5 335.5z" />
    <glyph glyph-name="E" unicode="E" horiz-adv-x="1155" 
d="M80 0v1243q0 147 143 150h864v-242h-727v-299h543v-92q3 -144 -147 -144h-396v-360h727v-256h-1007z" />
    <glyph glyph-name="F" unicode="F" horiz-adv-x="1130" 
d="M897 760q0 -60 -44.5 -102t-104.5 -42h-396v-616h-280v1243q0 61 42 105.5t101 44.5h864v-242h-727v-299h545v-92z" />
    <glyph glyph-name="G" unicode="G" horiz-adv-x="1386" 
d="M59 696q-2 154 42 288t126 232t206.5 151.5t275.5 47.5q243 0 419 -123q162 -132 177 -364h-177q-74 0 -124 71q-82 168 -287 168q-362 0 -365 -456q-3 -461 379 -488q139 0 225 82t111 215h-168q-60 0 -101.5 42t-41.5 102v88h567v-752h-72q-52 0 -93.5 31.5t-45.5 77.5
l-12 67q-79 -102 -168 -149t-232 -47q-147 0 -268 54.5t-202.5 150.5t-126 227t-44.5 284z" />
    <glyph glyph-name="H" unicode="H" horiz-adv-x="1280" 
d="M72 1243q0 61 42 105.5t101 44.5h145v-521h572v521h289v-1393h-289v616h-572v-616h-288v1243z" />
    <glyph glyph-name="I" unicode="I" horiz-adv-x="425" 
d="M72 0v1243q0 150 143 150h141v-1393h-284z" />
    <glyph glyph-name="J" unicode="J" horiz-adv-x="1019" 
d="M668 1247q0 58 42.5 102t100.5 44h141v-973q0 -108 -16 -193q-34 -128 -144.5 -187.5t-275.5 -59.5q-160 0 -274.5 58t-149.5 177q-20 47 -20 205v108h272v-168q0 -147 168 -147q156 0 156 160v874z" />
    <glyph glyph-name="K" unicode="K" horiz-adv-x="1251" 
d="M72 1243q0 61 42 105.5t101 44.5h141v-574l543 574h361l-555 -566l604 -827h-348l-353 492q-92 123 -172 96t-80 -101v-487h-284v1243z" />
    <glyph glyph-name="L" unicode="L" horiz-adv-x="1083" 
d="M72 1243q0 61 42 105.5t101 44.5h141v-1137h680v-256h-964v1243z" />
    <glyph glyph-name="M" unicode="M" horiz-adv-x="1538" 
d="M72 1243q0 61 42 105.5t101 44.5h277l280 -1061l272 1061h424v-1393h-268v1124l-285 -1124h-290l-285 1124v-1124h-268v1243z" />
    <glyph glyph-name="N" unicode="N" horiz-adv-x="1298" 
d="M76 1243q0 61 42 105.5t101 44.5h154l567 -957v957h281v-1393h-297l-568 956v-956h-280v1243z" />
    <glyph glyph-name="O" unicode="O" horiz-adv-x="1458" 
d="M725 1167q-126 0 -213.5 -62.5t-127.5 -166.5t-40 -242q0 -139 40 -244.5t127.5 -169t213.5 -63.5q189 0 286 129t97 348q0 214 -97.5 342.5t-285.5 128.5zM725 -20q-208 0 -360 90.5t-229 251t-77 374.5q0 323 179.5 521t486.5 198q204 0 356.5 -92t232 -254t79.5 -373
q0 -214 -78 -375t-229.5 -251t-360.5 -90z" />
    <glyph glyph-name="P" unicode="P" horiz-adv-x="1191" 
d="M1137 944q0 -209 -111 -328.5t-317 -119.5h-353v-496h-284v1243q0 61 42 105.5t101 44.5h473q221 0 335 -115t114 -334zM360 748h277q215 -3 215 200t-201 203h-291v-403z" />
    <glyph glyph-name="Q" unicode="Q" horiz-adv-x="1462" 
d="M1087 68q-146 -88 -362 -88q-313 0 -489.5 195t-176.5 521q0 210 78.5 371t230.5 252.5t357 91.5q207 0 359.5 -91t230.5 -252t78 -372q0 -298 -146 -477l150 -143l-76 -76q-82 -73 -154 -4zM1049 412q59 104 59 284q0 214 -97.5 342.5t-285.5 128.5q-126 0 -213.5 -63
t-127.5 -167t-40 -241q0 -140 39.5 -245t127 -168.5t214.5 -63.5q42 0 86 8q52 14 82 29l-150 139l50 54q81 84 176 22z" />
    <glyph glyph-name="R" unicode="R" horiz-adv-x="1280" 
d="M1192 995q0 -131 -54.5 -215t-154.5 -112q88 -30 133 -97q33 -63 43 -206l12 -273q3 -63 46 -92h-314q-19 36 -22 84q-10 33 -13 235q-4 67 -13 106t-32 67t-61.5 38.5t-102.5 10.5h-303v-541h-284v1243q0 61 42 105.5t101 44.5h528q224 0 336.5 -94t112.5 -304zM903 969
q0 94 -48.5 138t-145.5 44h-353v-367h336q105 0 158 43.5t53 141.5z" />
    <glyph glyph-name="S" unicode="S" horiz-adv-x="1275" 
d="M655 215q136 0 203.5 43t65.5 129q0 100 -127 137q-35 11 -277 76q-407 105 -407 381q9 437 524 434q490 0 514 -432h-160q-85 0 -127 82q-70 119 -252 119q-218 -3 -227 -164q0 -132 270 -193q185 -44 332 -96q233 -79 221 -344q-24 -407 -553 -407q-551 0 -563 456h277
q15 -221 286 -221z" />
    <glyph glyph-name="T" unicode="T" horiz-adv-x="1239" 
d="M72 1243q0 61 42 105.5t101 44.5h965v-248h-412v-1145h-285v1145h-411v98z" />
    <glyph glyph-name="U" unicode="U" horiz-adv-x="1234" 
d="M72 1243q0 58 42.5 104t100.5 46h141v-861q0 -304 269 -307q268 -3 268 307v861h283v-893q0 -254 -143 -387t-408 -133q-270 0 -411.5 129.5t-141.5 390.5v743z" />
    <glyph glyph-name="V" unicode="V" horiz-adv-x="1363" 
d="M1096 1393h204l-477 -1393h-270l-481 1393h315l297 -1041l272 936q24 105 140 105z" />
    <glyph glyph-name="W" unicode="W" horiz-adv-x="1855" 
d="M1667 1393h176l-395 -1393h-272l-215 1067l-218 -1067h-274l-397 1393h297l235 -981l205 981h303l201 -981l211 872q38 109 143 109z" />
    <glyph glyph-name="X" unicode="X" horiz-adv-x="1327" 
d="M1032 1393h248l-436 -680l436 -713h-332l-284 483l-283 -483h-330l436 713l-436 680h330l283 -490l243 418q38 72 125 72z" />
    <glyph glyph-name="Y" unicode="Y" horiz-adv-x="1359" 
d="M852 0h-289v520l-504 873h349l301 -600l235 516q41 84 131 84h234l-457 -873v-520z" />
    <glyph glyph-name="Z" unicode="Z" horiz-adv-x="1230" 
d="M231 1141q-60 0 -103.5 43.5t-43.5 103.5v105h1092v-242l-760 -899h743v-252h-1087v244l755 897h-596z" />
    <glyph glyph-name="backslash" unicode="\" horiz-adv-x="710" 
d="M143 1532q33 0 45 -37l492 -1671h-143l-500 1708h106z" />
    <glyph glyph-name="underscore" unicode="_" horiz-adv-x="1415" 
d="M147 -416q0 53 34.5 88t86.5 35h983v-182h-1104v59z" />
    <glyph glyph-name="a" unicode="a" horiz-adv-x="1019" 
d="M453 201q114 0 178.5 64t64.5 179v101q-99 -42 -217 -66q-164 -30 -164 -151q9 -127 138 -127zM516 877q-143 0 -164 -76h-272q49 299 424 299q448 0 457 -299v-369q0 -420 -474 -452q-199 -15 -319.5 73.5t-120.5 265.5q2 95 36 161t99.5 105.5t144 59.5t189.5 31
q176 21 176 108q-9 93 -176 93z" />
    <glyph glyph-name="b" unicode="b" horiz-adv-x="1134" 
d="M344 1255v-323q104 168 307 168q432 -15 432 -568q0 -539 -503 -548q-508 -3 -508 485v924h137q135 0 135 -138zM575 856q-219 0 -231 -311q-3 -330 227 -330q234 0 234 330q-9 311 -230 311z" />
    <glyph glyph-name="c" unicode="c" 
d="M1028 332q-38 -170 -157 -265.5t-304 -91.5q-492 0 -504 562q0 554 500 563q395 0 465 -352h-297q-50 112 -176 112q-215 0 -215 -323q0 -325 227 -322q95 0 164 78q39 39 92 39h205z" />
    <glyph glyph-name="d" unicode="d" horiz-adv-x="1122" 
d="M571 856q-219 0 -231 -311q-3 -330 227 -330q234 0 234 330q-9 311 -230 311zM936 1393q55 0 95 -41t40 -97v-786q0 -488 -508 -485q-504 9 -504 548q0 553 433 568q205 0 309 -168v461h135z" />
    <glyph glyph-name="e" unicode="e" 
d="M1028 332q-92 -357 -473 -357q-492 15 -492 570q0 552 496 555q515 0 485 -635h-700q15 -250 215 -250q95 0 176 78q36 39 92 39h201zM555 877q-177 0 -207 -218h408q-24 218 -201 218z" />
    <glyph glyph-name="f" unicode="f" horiz-adv-x="579" 
d="M516 952q0 -56 -40 -96.5t-95 -40.5h-37v-815h-272v1112q-7 150 74 219.5t239 69.5q76 0 131 -8v-226h-72q-95 0 -104 -80v-71h176v-64z" />
    <glyph glyph-name="g" unicode="g" horiz-adv-x="1122" 
d="M563 219q222 0 234 313q3 328 -230 328q-231 0 -231 -328q9 -313 227 -313zM487 -20q-432 0 -432 561q0 537 504 546q508 3 508 -483v-641q0 -407 -518 -416q-370 0 -465 344h301q26 -114 195 -114q217 0 217 252v0v0v0v0v0v0v0v0v0v0v0v1v0v0v0v0v1v0v0v0v1v0v0v1v0v1v0
v1v0v1v0v1v0v1v0v1v0v1v1v0v1v1v1v0v1v1v1v1v1v1v1v1v1v1v1v1v1v1v1v1v1v1v1v1v1v1v1v1v1v1v1v1v1v1v1v1v1v1v1v1v1v1v1v1v1v1v1v1v1v1v1v1v1v1v1v1v1v1v1v1v1v1v1v1v1v1v1v1v1v1v1v1v1v1v1v1v1v1v1v1v1v1v1v1v1v1v1v1v1v10q-105 -159 -310 -159z" />
    <glyph glyph-name="h" unicode="h" horiz-adv-x="1138" 
d="M801 555q0 141 -56 221t-170 80q-116 0 -173.5 -84t-57.5 -217v-555h-272v1393h137q135 0 135 -138v-323q209 240 512 133q227 -82 215 -436v-629h-270v555z" />
    <glyph glyph-name="i" unicode="i" horiz-adv-x="425" 
d="M72 1393h141q134 0 131 -133v-80h-272v213zM72 1083h141q131 0 131 -131v-952h-272v1083z" />
    <glyph glyph-name="j" unicode="j" horiz-adv-x="425" 
d="M72 1393h141q134 0 131 -133v-80h-272v213zM344 -168q0 -145 -86.5 -204.5t-257.5 -59.5h-47v239h51q68 0 68 72v1204h141q131 0 131 -131v-1120z" />
    <glyph glyph-name="k" unicode="k" horiz-adv-x="999" 
d="M213 1393q54 0 92.5 -39.5t38.5 -93.5v-601l336 385h328l-375 -401l379 -643h-328l-192 356q-53 93 -105 93q-43 -9 -43 -54v-395h-272v1393h141z" />
    <glyph glyph-name="l" unicode="l" horiz-adv-x="425" 
d="M213 1393q54 0 92.5 -39.5t38.5 -93.5v-1260h-272v1393h141z" />
    <glyph glyph-name="m" unicode="m" horiz-adv-x="1730" 
d="M532 860q-181 0 -184 -168v-692h-276v637q0 463 465 463q205 0 323 -92q116 88 324 88q464 0 461 -463v-637h-142q-135 9 -135 135v557q-9 168 -188 168q-182 0 -185 -168v-688h-274v692q-9 168 -189 168z" />
    <glyph glyph-name="n" unicode="n" horiz-adv-x="1046" 
d="M995 0h-139q-135 9 -135 135v557q-9 168 -189 168q-181 0 -184 -168v-692h-276v637q0 463 465 463q461 0 458 -463v-637z" />
    <glyph glyph-name="o" unicode="o" horiz-adv-x="1107" 
d="M555 1100q494 0 494 -563q0 -562 -494 -562q-492 0 -492 562q0 563 492 563zM555 860q-215 0 -215 -323q3 -318 213 -318q208 0 211 326q0 315 -209 315z" />
    <glyph glyph-name="p" unicode="p" horiz-adv-x="1138" 
d="M344 -289v436q103 -167 307 -167q432 15 432 569q0 547 -503 547q-487 0 -508 -484v-1036h137q135 0 135 135zM575 223q-219 0 -231 314q-3 327 227 327q234 0 234 -327q-9 -314 -230 -314z" />
    <glyph glyph-name="q" unicode="q" horiz-adv-x="1122" 
d="M793 -289v436q-103 -167 -310 -167q-432 15 -432 569q0 547 504 547q489 0 510 -484v-1036h-137q-135 0 -135 135zM559 223q222 0 234 314q3 327 -230 327q-231 0 -231 -327q9 -314 227 -314z" />
    <glyph glyph-name="r" unicode="r" horiz-adv-x="722" 
d="M72 0v559q12 524 557 524h39v-282h-93q-227 0 -227 -238v-563h-276z" />
    <glyph glyph-name="s" unicode="s" horiz-adv-x="1046" 
d="M319 356q4 -85 62 -122t164 -37q172 0 172 102q0 83 -281 133q-361 65 -364 320q0 168 118.5 256.5t313.5 91.5q208 0 332 -92q120 -94 129 -265h-172q-97 3 -121 68q-28 74 -164 74q-160 0 -160 -84q0 -85 211 -125q275 -55 365 -139q75 -78 75 -193q0 -97 -36.5 -168.5
t-104 -113.5t-155.5 -62t-199 -20q-227 0 -340 96q-123 92 -123 280h278z" />
    <glyph glyph-name="t" unicode="t" horiz-adv-x="550" 
d="M508 1024q0 -58 -39 -96.5t-96 -38.5h-29v-600q0 -70 80 -70h84v-207q-138 -13 -287 2q-152 15 -149 195v1184h141q53 0 92 -41.5t39 -96.5v-172h164v-59z" />
    <glyph glyph-name="u" unicode="u" horiz-adv-x="1030" 
d="M983 1083v-651q0 -281 -143 -369q-145 -83 -320 -83q-165 0 -307 92q-141 89 -141 360v651h272v-706q0 -180 184 -180q185 0 185 180v571q-3 135 131 135h139z" />
    <glyph glyph-name="v" unicode="v" horiz-adv-x="1134" 
d="M893 1083h211l-383 -1083h-289l-381 1083h301l219 -759l189 663q30 96 133 96z" />
    <glyph glyph-name="w" unicode="w" horiz-adv-x="1566" 
d="M1372 1083h180l-301 -1083h-282l-164 776l-172 -776h-285l-297 1083h277l172 -751l155 751h289l148 -751l147 651q29 100 133 100z" />
    <glyph glyph-name="x" unicode="x" horiz-adv-x="1118" 
d="M899 1180h250l-410 -627l361 -553h-328l-192 344l-195 -344h-334l352 555l-331 528h313l186 -327l209 352q38 72 119 72z" />
    <glyph glyph-name="y" unicode="y" horiz-adv-x="1138" 
d="M184 -193h76q226 0 160 218l-369 1058h309l215 -751l189 655q24 96 129 96h190l-428 -1267q-26 -71 -52 -113.5t-66.5 -72.5t-96.5 -42t-141 -12q-104 0 -115 8v223z" />
    <glyph glyph-name="z" unicode="z" horiz-adv-x="1079" 
d="M244 856q-60 0 -100 39.5t-40 99.5v88h887v-231l-575 -616h592v-236h-936v215l579 641h-407z" />
    <glyph glyph-name="braceleft" unicode="{" horiz-adv-x="843" 
d="M563 80q3 -147 10 -179q12 -52 55 -67q31 -10 97 -10q3 0 43 4v-117q0 -38 -21.5 -60t-57.5 -27.5t-74.5 -2t-82.5 13.5q-207 55 -204 226q0 17 -0.5 62t-1.5 132t-2 172q0 130 -49 189t-166 55h-37v201h32q127 0 173.5 52.5t46.5 186.5v281q-10 178 69.5 251t257.5 73
h117v-199h-43q-103 0 -136.5 -39.5t-33.5 -153.5v-264q0 -144 -41 -204t-154 -85q64 -20 100.5 -41t61 -56t31 -85t10.5 -126.5t0 -182.5z" />
    <glyph glyph-name="bar" unicode="|" horiz-adv-x="299" 
d="M231 1704v-2228h-159v2115q-3 113 129 113h30z" />
    <glyph glyph-name="braceright" unicode="}" horiz-adv-x="843" 
d="M276 80q-3 -146 -8 -175q-11 -54 -52 -69q-30 -12 -99 -12q-5 0 -45 4v-117q0 -38 21 -60t57.5 -27.5t74.5 -2t82 13.5q208 55 205 226q0 17 0.5 62t1.5 132t2 172q0 130 49 189t166 55h37v201h-33q-127 0 -173 52.5t-46 186.5v281q10 177 -70 250.5t-258 73.5h-116v-199
h45q103 0 135.5 -39t32.5 -154v-264q0 -144 40.5 -204t153.5 -85q-64 -20 -100.5 -41t-61 -56t-31 -85t-10.5 -126.5t0 -182.5z" />
    <glyph glyph-name="controlDEL" horiz-adv-x="978" 
d="M37 1749h563v-1593h-563v1593zM80 1704v-1503h483v1503h-483z" />
    <glyph glyph-name="tbar" unicode="&#x167;" horiz-adv-x="974" 
d="M500 1393q60 0 101.5 -50t41.5 -114v-201h289v-219h-289v-436h289v-221h-289v-328h-287v328h-284v108q0 113 129 113h155v436h-284v106q0 113 129 113h155v365h144z" />
    <glyph glyph-name="afii10023" unicode="&#x401;" horiz-adv-x="1130" 
d="M72 0v1243q0 147 143 150h864v-242h-727v-299h545v-92q3 -144 -149 -144h-396v-360h727v-256h-1007zM848 1671v-110h-180v180h112q68 0 68 -70zM483 1671v-110h-180v180h113q67 0 67 -70z" />
    <glyph glyph-name="afii10053" unicode="&#x404;" horiz-adv-x="1370" 
d="M360 840q19 150 116 236.5t251 86.5q207 3 277 -151q38 -84 133 -84h172q-25 234 -175.5 360.5t-406.5 126.5q-326 0 -495 -188t-169 -531q0 -333 162.5 -522.5t479.5 -193.5q264 0 421.5 131t182.5 372h-277q-24 -117 -103.5 -184.5t-207.5 -67.5q-156 0 -248.5 90.5
t-116.5 245.5h516v142q0 57 -38 94t-95 37h-379z" />
    <glyph glyph-name="afii10056" unicode="&#x407;" horiz-adv-x="425" 
d="M72 0v1243q0 150 143 150h141v-1393h-284zM487 1671v-110h-180v180h113q67 0 67 -70zM125 1671v-110h-180v180h110q70 0 70 -70z" />
    <glyph glyph-name="afii10062" unicode="&#x40e;" horiz-adv-x="1439" 
d="M336 209h76q216 0 155 199l-454 985h303l305 -742l291 654q27 88 125 88h190l-530 -1178q-43 -129 -114 -176t-234 -51q-100 0 -113 8v213zM721 1608q127 0 127 133h113q-3 -230 -236 -230q-237 0 -246 230h117q0 -66 28.5 -99.5t96.5 -33.5z" />
    <glyph glyph-name="Acyrillic" unicode="&#x410;" horiz-adv-x="1462" 
d="M668 1393h229l500 -1393h-301l-92 285h-539l-92 -285h-305l464 1300q30 93 136 93zM731 1112l-190 -592h383z" />
    <glyph glyph-name="afii10018" unicode="&#x411;" horiz-adv-x="1298" 
d="M369 252h327q248 0 248 180t-248 180h-327v-360zM369 1151v-299h331q529 0 529 -428q0 -427 -512 -424h-637v1243q0 150 156 150h884v-242h-751z" />
    <glyph glyph-name="afii10019" unicode="&#x412;" horiz-adv-x="1280" 
d="M1221 424q0 -210 -137 -317t-371 -107h-633v1243q0 62 41.5 106t101.5 44h512q205 0 320.5 -86.5t115.5 -266.5q0 -207 -167 -288q108 -42 162.5 -118.5t54.5 -209.5zM885 1004q0 83 -52 115t-157 32h-307v-299h311q205 0 205 152zM920 432q0 102 -57.5 143t-174.5 41
h-319v-364h323q113 0 170.5 40.5t57.5 139.5z" />
    <glyph glyph-name="afii10020" unicode="&#x413;" horiz-adv-x="1198" 
d="M80 0h289v1151h751v242h-868q-169 0 -172 -160v-1233z" />
    <glyph glyph-name="afii10021" unicode="&#x414;" horiz-adv-x="1439" 
d="M127 240q65 129 105.5 251.5t61 266.5t27.5 284.5t7 350.5h743q180 0 180 -172v-981h109v-500h-289v260h-743v-260h-287v500h86zM612 1151q0 -310 -41 -531t-143 -380h537v911h-353z" />
    <glyph glyph-name="afii10022" unicode="&#x415;" horiz-adv-x="1155" 
d="M80 0v1243q0 147 143 150h864v-242h-727v-299h543v-92q3 -144 -147 -144h-396v-360h727v-256h-1007z" />
    <glyph glyph-name="afii10024" unicode="&#x416;" horiz-adv-x="2039" 
d="M877 563v-563h282v563q0 49 25 62q39 12 80 -50l428 -575h348l-572 788l256 320q43 43 140 43h92v242h-201q-124 0 -190 -72l-406 -498v402q0 168 -172 168h-110v-570l-406 498q-66 72 -190 72h-201v-242h92q96 0 139 -43l264 -320l-579 -788h348l432 575q20 30 43.5 43
t40.5 0t17 -55z" />
    <glyph glyph-name="afii10025" unicode="&#x417;" horiz-adv-x="1130" 
d="M496 823q120 0 181.5 45.5t61.5 147.5q2 88 -44.5 132t-141.5 44q-192 0 -201 -223h-147q-146 -3 -105 147q88 299 463 299q456 3 465 -379q9 -194 -172 -276q223 -79 223 -328q0 -449 -526 -452q-263 0 -388.5 116t-113.5 348h277q2 -119 58.5 -176.5t168.5 -56.5
q225 3 225 209q0 210 -272 213h-43v190h31z" />
    <glyph glyph-name="afii10026" unicode="&#x418;" horiz-adv-x="1378" 
d="M1260 1243q0 61 -42.5 105.5t-101.5 44.5h-151l-570 -957v957h-278v-1393h295l569 956v-956h279v1243z" />
    <glyph glyph-name="afii10027" unicode="&#x419;" horiz-adv-x="1378" 
d="M1260 1243q4 59 -40.5 104.5t-103.5 45.5h-151l-570 -957v957h-278v-1393h295l569 956v-956h279v1243zM819 1708h121q9 -228 -244 -231q-124 1 -184.5 59t-58.5 172h118q-9 -117 117 -129q131 -3 131 129z" />
    <glyph glyph-name="afii10028" unicode="&#x41a;" horiz-adv-x="1280" 
d="M961 1393h198v-242h-92q-96 0 -139 -43l-256 -320l571 -788h-346l-428 575q-41 62 -82 50q-22 -11 -22 -62v-563h-285v1393h113q172 0 172 -168v-402l403 498q66 72 193 72z" />
    <glyph glyph-name="afii10029" unicode="&#x41b;" horiz-adv-x="1359" 
d="M545 1151v-991q-9 -160 -176 -160h-248v240h143v1153h807q168 0 168 -160v-1233v0v0v0v0v0v0v0v0v0v0v0v0v0v0v0v0v0v0v0h-1v0v0v0v0v0v0v0v0h-1v0v0v0v0v0h-1v0v0v0v0h-1v0v0v0h-1v0v0v0h-1v0v0h-1v0v0h-1v0v0h-1v0h-1v0v0h-1v0h-1v0h-1v0h-1v0h-1v0h-1v0h-1v0h-1v0h-1
v0h-1v0h-1v0h-1v0h-1v0h-1v0h-1h-1v0h-1v0h-1h-1v0h-1h-1v0h-1h-1v0h-1h-1h-1v0h-1h-1h-1h-1h-1v0h-1h-1h-1h-1h-1h-1h-1h-1h-1h-1h-1h-1h-1h-1h-1h-1h-1h-1h-1h-1h-1h-1h-1h-1h-1h-1h-1h-1h-1h-1h-1h-1h-1h-1h-1h-1h-1h-1h-1h-1h-1h-1h-1h-1h-1h-1h-1h-1h-1h-1h-1h-1h-1h-1
h-1h-1h-1h-1h-1h-1h-1h-1h-1h-1h-1h-1h-1h-1h-1h-1h-1h-1h-1h-1h-1h-1h-1h-1h-1h-1h-1h-1h-1h-1h-1h-1h-1h-1h-1h-1h-1h-1h-1h-1h-1h-1h-1h-1h-1h-1h-1h-1h-1h-1h-1h-1h-1h-1h-1h-1h-1h-1h-1h-1h-1h-1h-1h-1h-1h-1h-1h-1h-1h-1h-1h-1h-1h-1h-1h-1h-1h-1h-1h-1h-1h-1h-1h-1
h-1h-1h-1h-1h-1h-1h-1h-1h-1h-1h-1h-1h-1h-1h-1h-1h-1h-1h-1h-1h-1h-1h-1h-1h-1h-1h-1h-1h-1h-1h-1h-1h-1h-1h-1h-1h-1h-1h-1h-1h-1h-1h-1h-1h-1h-1h-1h-1h-1h-1h-1h-1h-1h-1h-1h-1h-1h-1h-1h-1h-1h-1h-1h-1h-1h-1h-1h-1h-1h-1h-1h-1h-1h-1h-1h-1h-1h-1h-1h-1h-1h-1h-1h-1
h-1h-1h-1h-1h-1h-1h-9v1151h-416z" />
    <glyph glyph-name="afii10030" unicode="&#x41c;" horiz-adv-x="1626" 
d="M113 1243q0 61 42 105.5t101 44.5h276l279 -1061l272 1061h424v-1393h-268v1124l-283 -1124h-292l-283 1124v-1124h-268v1243z" />
    <glyph glyph-name="afii10031" unicode="&#x41d;" horiz-adv-x="1280" 
d="M72 1243q0 61 42 105.5t101 44.5h145v-521h572v521h289v-1393h-289v616h-572v-616h-288v1243z" />
    <glyph glyph-name="afii10032" unicode="&#x41e;" horiz-adv-x="1458" 
d="M725 1167q-126 0 -213.5 -62.5t-127.5 -166.5t-40 -242q0 -139 40 -244.5t127.5 -169t213.5 -63.5q189 0 286 129t97 348q0 214 -97.5 342.5t-285.5 128.5zM725 -20q-208 0 -360 90.5t-229 251t-77 374.5q0 323 179.5 521t486.5 198q204 0 356.5 -92t232 -254t79.5 -373
q0 -214 -78 -375t-229.5 -251t-360.5 -90z" />
    <glyph glyph-name="afii10033" unicode="&#x41f;" horiz-adv-x="1386" 
d="M231 0h-110v1393h975q169 0 172 -160v-1233h-285v1151h-580v-991q-3 -160 -172 -160z" />
    <glyph glyph-name="afii10034" unicode="&#x420;" horiz-adv-x="1191" 
d="M1137 944q0 -209 -111 -328.5t-317 -119.5h-353v-496h-284v1243q0 61 42 105.5t101 44.5h473q221 0 335 -115t114 -334zM360 748h277q215 -3 215 200t-201 203h-291v-403z" />
    <glyph glyph-name="afii10035" unicode="&#x421;" horiz-adv-x="1363" 
d="M1305 483q-20 -240 -179.5 -371.5t-425.5 -131.5q-210 0 -355.5 89t-215.5 248.5t-70 378.5q0 342 170 530.5t496 188.5q258 0 412 -127q147 -132 168 -360h-172q-93 0 -134 84q-71 151 -274 151q-192 0 -286.5 -124t-94.5 -343q0 -140 38 -242t123.5 -162.5t211.5 -60.5
q130 0 208.5 66.5t102.5 185.5h277z" />
    <glyph glyph-name="afii10036" unicode="&#x422;" horiz-adv-x="1239" 
d="M72 1243q0 61 42 105.5t101 44.5h965v-248h-412v-1145h-285v1145h-411v98z" />
    <glyph glyph-name="afii10037" unicode="&#x423;" horiz-adv-x="1439" 
d="M336 209h76q216 0 155 199l-454 985h303l305 -742l291 654q24 88 125 88h190l-530 -1178q-32 -89 -70.5 -135.5t-103.5 -69t-174 -22.5q-102 0 -113 8v213z" />
    <glyph glyph-name="afii10038" unicode="&#x424;" horiz-adv-x="1918" 
d="M319 705q0 -273 496 -285v575q-496 -21 -496 -290zM1100 0h-285v184q-284 24 -496 131q-96 56 -156 135t-76 165.5t2.5 173.5t78 166.5t151.5 136.5q215 113 496 125v176h109q176 0 176 -181q280 -12 508 -120q250 -119 247 -379q-2 -105 -45.5 -190.5t-114.5 -142.5
t-169.5 -98.5t-202.5 -63t-223 -30.5v-188zM1595 705q0 269 -495 290v-575q495 12 495 285z" />
    <glyph glyph-name="afii10039" unicode="&#x425;" horiz-adv-x="1327" 
d="M1032 1393h248l-436 -680l436 -713h-332l-284 483l-283 -483h-330l436 713l-436 680h330l283 -490l243 418q38 72 125 72z" />
    <glyph glyph-name="afii10040" unicode="&#x426;" horiz-adv-x="1478" 
d="M1401 256h-137v977q-9 160 -172 160h-115v-1137h-569v1137h-287v-1393h991v-344h289v600z" />
    <glyph glyph-name="afii10041" unicode="&#x427;" horiz-adv-x="1159" 
d="M809 836v557h270v-1393h-135q-135 0 -135 135v326q-209 -240 -512 -133q-217 83 -217 436v629h272v-557q0 -141 52 -216t171 -79q116 -4 175 78.5t59 216.5z" />
    <glyph glyph-name="afii10042" unicode="&#x428;" horiz-adv-x="1959" 
d="M1843 0v1233q-3 160 -172 160h-110v-1133h-437v1133h-293v-1137h-423v1137h-287v-1393h1722z" />
    <glyph glyph-name="afii10043" unicode="&#x429;" horiz-adv-x="1998" 
d="M1843 260v973q-3 160 -172 160h-110v-1133h-437v1133h-293v-1137h-423v1137h-287v-1393h1528v-344h286v604h-92z" />
    <glyph glyph-name="afii10044" unicode="&#x42a;" horiz-adv-x="1478" 
d="M680 252v364h223q209 3 209 -176t-209 -188h-223zM399 1151v-1151h498q518 0 518 440q0 441 -518 441h-217v362q0 150 -156 150h-444v-242h319z" />
    <glyph glyph-name="afii10045" unicode="&#x42b;" horiz-adv-x="1558" 
d="M360 252v364h224q209 9 209 -176q0 -176 -209 -188h-224zM80 1393v-1393h495q521 0 521 440q0 441 -521 441h-215v362q0 150 -155 150h-125zM1348 1393q57 0 95 -38t38 -95v-1260h-273v1393h140z" />
    <glyph glyph-name="afii10046" unicode="&#x42c;" horiz-adv-x="1179" 
d="M360 252v364h224q209 3 209 -176t-209 -188h-224zM80 1393v-1393h495q521 0 521 440q0 441 -521 441h-215v362q0 150 -155 150h-125z" />
    <glyph glyph-name="afii10047" unicode="&#x42d;" horiz-adv-x="1370" 
d="M1032 840q-19 150 -116.5 236.5t-251.5 86.5q-207 3 -277 -151q-38 -84 -131 -84h-172q25 234 174.5 360.5t405.5 126.5q326 0 494.5 -188t168.5 -531q0 -220 -69 -377.5t-213.5 -246.5t-356.5 -92q-264 0 -421.5 131t-182.5 372h276q24 -116 104 -184t208 -68
q156 0 248 90t116 246h-516v142q0 57 37 94t94 37h381z" />
    <glyph glyph-name="afii10048" unicode="&#x42e;" horiz-adv-x="2039" 
d="M1309 1167q-186 0 -283.5 -129t-97.5 -338q0 -215 96.5 -348t284.5 -133q190 0 286.5 129.5t96.5 351.5q0 213 -97.5 340t-285.5 127zM655 872q42 241 218.5 392t435.5 151q204 0 356.5 -92t231.5 -254t79 -373q0 -326 -177 -521t-490 -195q-292 0 -468 173.5t-194 462.5
h-287v-616h-288v1243q0 61 42 105.5t101 44.5h145v-521h295z" />
    <glyph glyph-name="afii10049" unicode="&#x42f;" horiz-adv-x="1259" 
d="M59 995q0 -131 54.5 -215t154.5 -112q-88 -30 -133 -97q-33 -63 -43 -206l-12 -273q-3 -65 -43 -92h311q22 43 25 84q9 30 12 235q4 68 13 106.5t31.5 66.5t60.5 38.5t102 10.5h305v-541h283v1243q0 61 -41 103t-103 47h-528q-224 0 -336.5 -94t-112.5 -304zM348 969
q0 182 197 182h352v-367h-338q-105 0 -158 43.5t-53 141.5z" />
    <glyph glyph-name="acyrillic" unicode="&#x430;" horiz-adv-x="1019" 
d="M453 201q115 0 179 63.5t64 179.5v101q-99 -42 -217 -66q-161 -30 -164 -151q12 -127 138 -127zM504 1100q448 0 457 -299v-369q0 -420 -474 -452q-199 -15 -319.5 74.5t-120.5 264.5q4 77 27.5 135t61.5 96t98.5 64t126 39.5t155.5 22.5q90 12 134 39t42 69
q-9 96 -176 93q-140 3 -164 -76h-272q49 299 424 299z" />
    <glyph glyph-name="afii10066" unicode="&#x431;" horiz-adv-x="1118" 
d="M768 496q0 148 -52.5 221t-156.5 71q-216 0 -219 -301q6 -144 59.5 -214t155.5 -68q213 3 213 291zM555 1008q498 0 498 -504q12 -520 -498 -520q-493 0 -496 512q-12 483 84 655q121 230 500 242q78 0 78 47h278q-9 -290 -247 -281q-69 2 -126.5 1t-103.5 -11t-78 -28.5
t-50.5 -52t-20.5 -81.5q83 21 182 21z" />
    <glyph glyph-name="afii10067" unicode="&#x432;" horiz-adv-x="1019" 
d="M961 328q0 -162 -106.5 -245t-287.5 -83h-487v973q0 47 34 80.5t79 29.5h395q159 3 249.5 -65t90.5 -207q0 -154 -131 -223q83 -34 123.5 -94.5t40.5 -165.5zM688 768q0 59 -35.5 81t-107.5 19h-230v-200h234q139 -7 139 100zM717 340q4 73 -39 102.5t-125 26.5h-238
v-254h240q81 0 123.5 28t38.5 97z" />
    <glyph glyph-name="afii10068" unicode="&#x433;" horiz-adv-x="999" 
d="M80 0h264v844h576v239h-668q-163 0 -172 -159v-924z" />
    <glyph glyph-name="afii10069" unicode="&#x434;" horiz-adv-x="1198" 
d="M109 188q93 190 124 387t31 508h639q144 3 141 -131v-764h76v-389h-260v201h-557v-201h-262v389h68zM508 844q0 -93 -12.5 -185.5t-26.5 -151.5t-41 -161q-27 -103 -51 -158h403v656h-272z" />
    <glyph glyph-name="afii10070" unicode="&#x435;" 
d="M1028 332q-92 -357 -473 -357q-492 15 -492 570q0 552 496 555q515 0 485 -635h-700q15 -250 215 -250q95 0 176 78q36 39 92 39h201zM555 877q-177 0 -207 -218h408q-24 218 -201 218z" />
    <glyph glyph-name="afii10072" unicode="&#x436;" horiz-adv-x="1574" 
d="M659 424v-424h265v424q0 9 10 10.5t18 -6.5l340 -428h320l-492 616l203 244q41 33 74 25h119v198h-160q-77 0 -120.5 -15t-80.5 -52l-235 -289v197q0 162 -164 159h-97v-356l-235 289q-42 37 -83.5 52t-117.5 15h-160v-198h121q31 8 72 -25l205 -244l-494 -616h322
l344 428q6 9 16 6.5t10 -10.5z" />
    <glyph glyph-name="afii10073" unicode="&#x437;" horiz-adv-x="999" 
d="M797 575q143 -71 143 -243q0 -357 -448 -357q-403 -3 -424 340h264q-6 -59 45 -101t123 -42q75 0 123.5 39t48.5 100q0 87 -58.5 125.5t-148.5 38.5h-70v141h54q99 0 143.5 35.5t44.5 112.5q0 57 -42 93t-103 36q-64 0 -102 -34t-38 -99v-29h-176q-28 0 -47.5 12.5
t-19.5 32.5q-12 15 -9 72q61 247 400 244q394 3 403 -316q0 -79 -27.5 -123t-78.5 -78z" />
    <glyph glyph-name="afii10074" unicode="&#x438;" horiz-adv-x="1239" 
d="M1120 924q-3 74 -40.5 116.5t-106.5 42.5h-92l-504 -651v651h-260v-1083h274l469 604v-604h260v924z" />
    <glyph glyph-name="afii10075" unicode="&#x439;" horiz-adv-x="1239" 
d="M1120 924q-3 74 -40.5 116.5t-106.5 42.5h-92l-504 -651v651h-260v-1083h274l469 604v-604h260v924zM625 1260q127 0 127 133h112q-3 -227 -235 -230q-235 3 -244 230h115q0 -66 28.5 -99.5t96.5 -33.5z" />
    <glyph glyph-name="afii10076" unicode="&#x43a;" horiz-adv-x="983" 
d="M63 0v1083h97q85 1 125.5 -38t38.5 -121v-197l235 289q37 37 80.5 52t120.5 15h160v-198h-119q-33 8 -74 -25l-203 -248l492 -612h-320l-340 428q-5 5 -11.5 6t-11.5 -1.5t-5 -8.5v-424h-265z" />
    <glyph glyph-name="afii10077" unicode="&#x43b;" horiz-adv-x="1359" 
d="M524 844v-684q-3 -160 -172 -160h-231v240h143v843h803q172 0 172 -159v-924h-258v844h-457z" />
    <glyph glyph-name="afii10078" unicode="&#x43c;" horiz-adv-x="1351" 
d="M113 969q0 47 32 80.5t78 33.5h217l236 -743l244 743h323v-1083h-256v637l-194 -637h-230l-194 637v-637h-256v969z" />
    <glyph glyph-name="afii10079" unicode="&#x43d;" horiz-adv-x="1118" 
d="M76 969q0 47 33.5 82.5t78.5 31.5h148v-403h444v403h260v-1083h-260v483h-444v-483h-260v969z" />
    <glyph glyph-name="afii10080" unicode="&#x43e;" horiz-adv-x="1107" 
d="M555 1100q494 0 494 -563q0 -562 -494 -562q-492 0 -492 562q0 563 492 563zM555 860q-215 0 -215 -323q3 -318 213 -318q208 0 211 326q0 315 -209 315z" />
    <glyph glyph-name="afii10081" unicode="&#x43f;" horiz-adv-x="1218" 
d="M381 844v-684q-3 -160 -172 -160h-88v1083h803q172 0 172 -159v-924h-260v844h-455z" />
    <glyph glyph-name="afii10082" unicode="&#x440;" horiz-adv-x="1138" 
d="M344 -289v436q103 -167 307 -167q432 15 432 569q0 547 -503 547q-487 0 -508 -484v-1036h137q135 0 135 135zM575 223q-219 0 -231 314q-3 327 227 327q234 0 234 -327q-9 -314 -230 -314z" />
    <glyph glyph-name="afii10083" unicode="&#x441;" horiz-adv-x="1091" 
d="M1028 332q-38 -170 -157 -265.5t-304 -91.5q-492 0 -504 562q0 554 500 563q395 0 465 -352h-297q-50 112 -176 112q-215 0 -215 -323q0 -325 227 -322q95 0 164 78q39 39 92 39h205z" />
    <glyph glyph-name="afii10084" unicode="&#x442;" horiz-adv-x="1062" 
d="M76 936q0 63 42.5 107t100.5 40h764v-239h-311v-844h-285v844h-311v92z" />
    <glyph glyph-name="afii10085" unicode="&#x443;" horiz-adv-x="1198" 
d="M223 -193h76q112 0 153 55.5t9 162.5l-369 1058h307l217 -751l189 655q24 96 127 96h192l-428 -1267q-26 -71 -52 -113.5t-66.5 -72.5t-96.5 -42t-141 -12q-106 0 -117 8v223z" />
    <glyph glyph-name="afii10086" unicode="&#x444;" horiz-adv-x="1847" 
d="M1292 223q-219 0 -231 314q-3 327 227 327q232 0 232 -327q-9 -314 -228 -314zM555 860q221 0 233 -311q3 -330 -229 -330q-231 0 -231 330q9 311 227 311zM788 -424h136q137 0 137 135v441q104 -168 307 -168q432 15 432 569q0 547 -448 547q-208 -3 -291 -160v453h-137
q-136 0 -136 -138v-319q-104 168 -309 168q-432 -15 -432 -567q0 -549 506 -549q141 0 235 159v-571z" />
    <glyph glyph-name="afii10087" unicode="&#x445;" horiz-adv-x="1138" 
d="M899 1180h250l-410 -627l361 -553h-328l-192 344l-195 -344h-334l352 555l-331 528h313l186 -327l209 352q38 72 119 72z" />
    <glyph glyph-name="afii10088" unicode="&#x446;" horiz-adv-x="1318" 
d="M1116 260v664q-3 159 -172 159h-96v-823h-457v823h-270v-1083h840v-344h272v604h-117z" />
    <glyph glyph-name="afii10089" unicode="&#x447;" horiz-adv-x="1138" 
d="M352 836q0 -142 55 -220.5t168 -78.5q116 0 175 84t59 215v247h270v-1083h-135q-135 0 -135 135v326q-209 -240 -512 -133q-229 89 -217 436v319h272v-247z" />
    <glyph glyph-name="afii10090" unicode="&#x448;" horiz-adv-x="1579" 
d="M659 260h-264v823h-270v-1083h1339v924q-9 159 -172 159h-96v-823h-264v823h-273v-823z" />
    <glyph glyph-name="afii10091" unicode="&#x449;" horiz-adv-x="1679" 
d="M659 260h-264v823h-270v-1083h1184v-344h270v604h-115v664q-9 159 -172 159h-96v-823h-264v823h-273v-823z" />
    <glyph glyph-name="afii10092" unicode="&#x44a;" horiz-adv-x="1318" 
d="M952 381q0 -35 -10.5 -59t-27 -37.5t-45.5 -21t-56.5 -9.5t-69.5 -2h-63v252h63q40 0 67 -2t56.5 -9t46.5 -20t28 -36t11 -56zM1239 381q0 106 -34.5 179.5t-102.5 115t-157 59t-210 17.5h-55v184q0 150 -156 147h-444v-243h319v-840h336q122 0 211.5 18.5t157 61.5
t101.5 118t34 183z" />
    <glyph glyph-name="afii10093" unicode="&#x44b;" horiz-adv-x="1390" 
d="M633 381q0 -35 -10.5 -59t-27 -37.5t-45.5 -21t-56.5 -9.5t-69.5 -2h-64v252h64q40 0 67 -2t56.5 -9t46.5 -20t28 -36t11 -56zM920 381q0 106 -34.5 179.5t-102.5 115t-157 59t-210 17.5h-56v184q0 150 -155 147h-125v-1083h336q122 0 211.5 18.5t157 61.5t101.5 118
t34 183zM1180 1083q55 4 94 -35.5t39 -95.5v-952h-273v1083h140z" />
    <glyph glyph-name="afii10094" unicode="&#x44c;" horiz-adv-x="991" 
d="M633 381q0 -35 -10.5 -59t-27 -37.5t-45.5 -21t-56.5 -9.5t-69.5 -2h-64v252h64q40 0 67 -2t56.5 -9t46.5 -20t28 -36t11 -56zM920 381q0 106 -34.5 179.5t-102.5 115t-157 59t-210 17.5h-56v184q0 150 -155 147h-125v-1083h336q122 0 211.5 18.5t157 61.5t101.5 118
t34 183z" />
    <glyph glyph-name="afii10095" unicode="&#x44d;" 
d="M387 532q-4 47 29.5 81.5t79.5 29.5h272q-15 110 -68 164.5t-141 52.5q-124 0 -174 -112h-297q70 352 465 352q503 -3 500 -563q-12 -562 -504 -562q-185 0 -304.5 94t-156.5 263h205q56 0 92 -39q72 -78 164 -78q177 0 215 201h-377v116z" />
    <glyph glyph-name="afii10096" unicode="&#x44e;" horiz-adv-x="1622" 
d="M1053 860q-217 0 -217 -323q9 -315 213 -318q208 0 211 326q0 160 -51.5 238t-155.5 77zM72 936q0 62 43 106.5t100 40.5h145v-411h207q56 425 486 428q491 -3 491 -568q0 -557 -491 -557q-436 0 -486 441h-207v-416h-288v936z" />
    <glyph glyph-name="afii10097" unicode="&#x44f;" horiz-adv-x="1019" 
d="M72 776q0 -103 41 -171.5t118 -88.5q-74 -20 -100.5 -72.5t-34.5 -162.5l-8 -209q-3 -48 -33 -72h252q8 22 12.5 36.5t8 25t4.5 31.5t1.5 32.5t1 53t1.5 69.5q9 106 37 137q40 32 123 35h209v-420h235v969q0 44 -33 77.5t-80 36.5h-407q-176 -3 -262 -73.5t-86 -233.5z
M332 752q-3 64 34 90t103 26h236v-231h-226q-70 0 -108.5 24.5t-38.5 90.5z" />
    <glyph glyph-name="afii10071" unicode="&#x451;" 
d="M1028 332q-92 -357 -473 -357q-480 0 -492 570q15 555 496 555q515 0 485 -635h-700q15 -250 215 -250q95 0 176 78q36 39 92 39h201zM555 877q-177 0 -207 -218h408q-24 218 -201 218zM831 1323v-111h-180v181h113q67 0 67 -70zM469 1323v-111h-180v181h110q70 0 70 -70
z" />
    <glyph glyph-name="afii10101" unicode="&#x454;" 
d="M725 532q4 47 -29.5 81.5t-79.5 29.5h-272q15 110 68 164.5t141 52.5q124 0 174 -112h297q-70 352 -465 352q-503 -3 -500 -563q12 -562 504 -562q185 0 304.5 94t156.5 263h-205q-56 0 -92 -39q-72 -78 -164 -78q-177 0 -215 201h377v116z" />
    <glyph glyph-name="afii10104" unicode="&#x457;" horiz-adv-x="425" 
d="M213 1083q51 0 91 -40t40 -91v-952h-272v1083h141zM483 1323v-111h-180v181h113q67 0 67 -70zM121 1323v-111h-180v181h110q70 0 70 -70z" />
    <glyph glyph-name="afii10110" unicode="&#x45e;" horiz-adv-x="1198" 
d="M223 -193h76q114 0 155 55.5t7 162.5l-369 1058h307l217 -751l189 655q24 96 127 96h192l-428 -1267q-50 -136 -121 -189q-77 -51 -235 -51q-106 0 -117 8v223zM616 1260q127 0 127 133h113q-3 -227 -235 -230q-235 3 -244 230h115q0 -66 28 -99.5t96 -33.5z" />
    <glyph glyph-name="quotesinglbase" unicode="&#x201a;" horiz-adv-x="374" 
d="M160 215h143v-207q0 -223 -235 -264v43q0 37 59 66q74 43 74 110q0 37 -41 37h-88v135q0 80 88 80z" />
    <glyph glyph-name="afii61352" unicode="&#x2116;" horiz-adv-x="2078" 
d="M117 1243q0 61 42 105.5t101 44.5h152l569 -957v957h279v-1393h-295l-570 956v-956h-278v1243zM1423 575v62q0 59 58 59h458v-121h-516zM1679 1419q297 0 297 -336q0 -331 -297 -331q-290 0 -290 331q0 336 290 336zM1679 1276q-127 0 -127 -193q3 -186 127 -186
q125 0 125 190q0 189 -125 189z" />
    <glyph glyph-name="bulletoperator" unicode="&#x2219;" horiz-adv-x="718" 
d="M360 461q-90 0 -155.5 67t-65.5 160q0 92 66 155.5t160 63.5q90 0 156.5 -65.5t66.5 -153.5q0 -91 -68.5 -159t-159.5 -68z" />
    <glyph glyph-name="radical" unicode="&#x221a;" horiz-adv-x="2048" 
d="M80 893l608 512l277 -993l831 1372q52 104 164 104l-877 -1888h-264l-327 1024z" />
    <glyph glyph-name="blacksquare" unicode="&#x25a0;" horiz-adv-x="1478" 
d="M285 920h915v-920h-915v920zM444 793q-41 0 -41 -5q0 -16 54 -16q51 -12 51 8q0 10 -16 13l-43 12q-46 0 -46 -4q24 -8 41 -8zM528 743q0 25 -67 25q-66 11 -60 -8l2 -4q0 -25 66 -25q59 -12 59 12zM545 676q0 45 -74 45q-42 2 -58.5 -6t-9.5 -27q0 -38 76 -41
q66 0 66 29zM479 637q-44 0 -63 -14.5t-13 -42.5q0 -60 89 -60q75 -12 75 47q-13 55 -88 70zM483 496q-92 0 -80 -80q9 -80 101 -80q85 0 76 80q-12 80 -97 80zM496 303q-105 0 -93 -88q0 -90 105 -90q92 0 92 90q-12 88 -104 88zM764 684q8 0 41 -27.5t43 -40.5
q0 -13 -45 24q-38 32 -39 44zM504 793q12 -11 16 -13q0 -21 47 -24q-26 0 -26 -8q12 -26 59 -35q55 -24 55 0q-12 12 -59 35q25 -12 25 0q11 11 -49 23q-3 1 -5 1h29q-25 6 -51 16zM684 735h-4v8q-23 3 -37 17l-43 8q20 -12 33 -12q-11 -11 27 -28q4 -1 8 -3l49 -12
q0 8 -8 8h8q4 -8 10 -8q0 -5 29 -23t45 -26q22 0 -17 22q-9 4 -20 10q-21 0 -21 13q-12 12 -22 12q-18 5 -37 14zM893 571q0 -20 68 -88q3 3 -25 49q-39 39 -43 39zM844 637v-8q8 -14 33 -38t34 -24q1 -2 2 -6t2 -6q11 -11 19.5 -18.5t13.5 -12.5h2q-2 3 -11 13t-15 18
q-14 11 -39 49v-8h-2q-2 0 -2 8l-33 33q-9 7 -21.5 15t-17.5 12q11 -11 35 -27zM1044 356q-8 12 -20 35h-2q-2 0 -2 4q-1 2 -2 6.5t-2 6.5h4q0 7 -25 49q-19 19 -30 51v-12q-3 11 -17 24q3 -12 19 -37.5t20 -25.5q0 -4 4 -14.5t8 -10.5q-1 1 -2 4t-2 4q-8 0 2.5 -24
t24.5 -48l14 -24v12q9 -37 21 -37q-13 16 -13 37zM1065 240v2q3 -13 10 -23q0 2 -8 45q-8 32 -10 39v-6l-25 47q0 -15 4 -55q21 -49 29 -49zM1075 147q0 -6 4 -22q8 0 8 43l-12 47v-8q-2 12 -10 12t-8 -47q0 -24 10 -47q8 0 8 22zM797 209q0 -84 59 -84q30 -6 44.5 11
t14.5 57q0 52 -38 78q-34 24 -60 1q-20 -19 -20 -63zM1024 240q-11 11 -14 -15l-2 -32q12 -65 24 -68q23 -16 21 18q0 12 -4 29q0 56 -25 68zM764 672q-69 49 -92 49h-4q0 -21 49 -45q47 -23 47 -4zM705 651q0 -25 55 -55q51 -36 51 0q-15 41 -51 55q-55 30 -55 0zM983 444
l-35 39q-14 -20 18 -68q21 -33 32 -33q13 0 -15 62zM995 303q23 -57 32 -52q11 6 -3 66q-14 62 -32 59q-2 0 -5 -3q-16 -16 8 -70zM881 395q-38 69 -80 49q-22 -14 -22.5 -42t13.5 -53.5t37 -40.5t43 -5q53 27 9 92zM563 684q0 -33 70 -55q60 -20 61 0q0 4 -2 10
q0 33 -67 57q-62 15 -62 -12zM655 608q-67 21 -67 -37q9 -50 80 -71q63 -23 63 37q-11 47 -76 71zM680 475q-41 5 -59.5 -12t-12.5 -55q3 -75 84 -84q72 -12 72 67q-12 72 -84 84zM621 215q0 -90 84 -90q40 -6 59.5 14t19.5 66q0 82 -88 94q-75 0 -75 -84zM928 205
q0 -49 27 -74q23 -20 36 5q8 15 8 44q0 53 -27 78q-23 21 -36 -6q-8 -17 -8 -47zM973 369q-37 60 -58 39q-37 -24 0 -76q15 -33 30.5 -44.5t27.5 1.5q27 3 0 80zM924 496q-39 39 -56 36q-24 -24 19 -71q31 -33 54 -36q27 -3 -8 56q-4 7 -9 15zM897 537q20 15 -29 55
q-41 32 -56 30q-16 -3 36 -55q30 -49 49 -30zM831 545q-48 48 -79 26q-35 -22 20 -71q40 -54 76 -31q32 10 -17 76z" />
    <glyph glyph-name="glyph1" horiz-adv-x="0" 
 />
    <glyph glyph-name="glyph2" horiz-adv-x="2048" 
 />
    <glyph glyph-name="glyph55" horiz-adv-x="1019" 
d="M453 201q114 0 178.5 64t64.5 179v101q-99 -42 -217 -66q-164 -30 -164 -151q9 -127 138 -127zM516 877q-143 0 -164 -76h-272q49 299 424 299q448 0 457 -299v-369q0 -420 -474 -452q-199 -15 -319.5 73.5t-120.5 265.5q2 95 36 161t99.5 105.5t144 59.5t189.5 31
q176 21 176 108q-9 93 -176 93zM768 1393l-227 -234h-138l101 189q23 48 88 45h176z" />
    <glyph glyph-name="glyph56" horiz-adv-x="1015" 
d="M436 1393q63 0 88 -45l101 -189h-138l-227 234h176zM453 201q114 0 178.5 64t64.5 179v101q-99 -42 -217 -66q-164 -30 -164 -151q9 -127 138 -127zM516 877q-143 0 -164 -76h-272q49 299 424 299q448 0 457 -299v-369q0 -420 -474 -452q-199 -15 -319.5 73.5
t-120.5 265.5q2 95 36 161t99.5 105.5t144 59.5t189.5 31q176 21 176 108q-9 93 -176 93z" />
    <glyph glyph-name="glyph57" horiz-adv-x="1019" 
d="M453 201q114 0 178.5 64t64.5 179v101q-99 -42 -217 -66q-164 -30 -164 -151q9 -127 138 -127zM516 877q-143 0 -164 -76h-272q49 299 424 299q448 0 457 -299v-369q0 -420 -474 -452q-199 -15 -319.5 73.5t-120.5 265.5q2 95 36 161t99.5 105.5t144 59.5t189.5 31
q176 21 176 108q-9 93 -176 93zM315 1171h-96l133 152q64 86 152 86q78 0 151 -86l125 -152h-159l-125 138l-80 -92q-25 -25 -45 -35.5t-56 -10.5z" />
    <glyph glyph-name="glyph58" horiz-adv-x="1019" 
d="M453 201q114 0 178.5 64t64.5 179v101q-99 -42 -217 -66q-164 -30 -164 -151q9 -127 138 -127zM516 877q-143 0 -164 -76h-272q49 299 424 299q448 0 457 -299v-369q0 -420 -474 -452q-199 -15 -319.5 73.5t-120.5 265.5q2 95 36 161t99.5 105.5t144 59.5t189.5 31
q176 21 176 108q-9 93 -176 93zM252 1305q0 63 63 92q19 6 41 6.5t41 -2.5t42 -9.5t39 -13t37 -14.5t32 -12q40 -14 61.5 -19.5t51 -7.5t52.5 10t44 37v-32v-30t-0.5 -26t-2.5 -24.5t-5.5 -19t-9.5 -18t-14 -13t-19 -11t-25 -6.5q-36 -8 -87.5 5.5t-98 32t-93 30.5t-86 -2
t-63.5 -62v109z" />
    <glyph glyph-name="glyph59" horiz-adv-x="1019" 
d="M453 201q114 0 178.5 64t64.5 179v101q-99 -42 -217 -66q-164 -30 -164 -151q9 -127 138 -127zM516 877q-143 0 -164 -76h-272q49 299 424 299q448 0 457 -299v-369q0 -420 -474 -452q-199 -15 -319.5 73.5t-120.5 265.5q2 95 36 161t99.5 105.5t144 59.5t189.5 31
q176 21 176 108q-9 93 -176 93zM776 1323v-111h-180v181h113q67 0 67 -70zM412 1323v-111h-181v181h113q68 0 68 -70z" />
    <glyph glyph-name="glyph60" horiz-adv-x="1019" 
d="M453 201q114 0 178.5 64t64.5 179v101q-99 -42 -217 -66q-164 -30 -164 -151q9 -127 138 -127zM516 877q-143 0 -164 -76h-272q49 299 424 299q448 0 457 -299v-369q0 -420 -474 -452q-199 -15 -319.5 73.5t-120.5 265.5q2 95 36 161t99.5 105.5t144 59.5t189.5 31
q176 21 176 108q-9 93 -176 93zM516 1464q148 0 160 -147q-9 -158 -164 -158q-157 0 -160 158q9 147 164 147zM512 1389q-76 0 -76 -76t76 -76t76 76t-76 76z" />
    <glyph glyph-name="glyph61" horiz-adv-x="1134" 
d="M184 -193h76q226 0 160 218l-369 1058h309l215 -751l189 655q24 96 129 96h190l-428 -1267q-26 -71 -52 -113.5t-66.5 -72.5t-96.5 -42t-141 -12q-104 0 -115 8v223zM840 1323v-111h-181v181h113q68 0 68 -70zM475 1323v-111h-178v181h111q67 0 67 -70z" />
    <glyph glyph-name="glyph62" horiz-adv-x="1134" 
d="M860 1393l-227 -234h-137l100 189q25 42 84 45h180zM184 -193h76q226 0 160 218l-369 1058h309l215 -751l189 655q24 96 129 96h190l-428 -1267q-26 -71 -52 -113.5t-66.5 -72.5t-96.5 -42t-141 -12q-104 0 -115 8v223z" />
    <glyph glyph-name="glyph63" 
d="M840 1393l-228 -234h-137l100 189q23 48 84 45h181zM1028 332q-92 -357 -473 -357q-480 0 -492 570q15 555 496 555q515 0 485 -635h-700q15 -250 215 -250q95 0 176 78q36 39 92 39h201zM555 877q-177 0 -207 -218h408q-24 218 -201 218z" />
    <glyph glyph-name="glyph64" 
d="M496 1393q59 0 84 -45l104 -189h-139l-226 234h177zM1028 332q-92 -357 -473 -357q-480 0 -492 570q15 555 496 555q515 0 485 -635h-700q15 -250 215 -250q95 0 176 78q36 39 92 39h201zM555 877q-177 0 -207 -218h408q-24 218 -201 218z" />
    <glyph glyph-name="glyph65" 
d="M1028 332q-92 -357 -473 -357q-480 0 -492 570q15 555 496 555q515 0 485 -635h-700q15 -250 215 -250q95 0 176 78q36 39 92 39h201zM555 877q-177 0 -207 -218h408q-24 218 -201 218zM373 1171h-97l132 152q64 86 151 86q81 0 154 -86l123 -152h-160l-123 138l-82 -92
q-18 -18 -27 -25.5t-27.5 -14t-43.5 -6.5z" />
    <glyph glyph-name="glyph66" 
d="M1028 332q-92 -357 -473 -357q-480 0 -492 570q15 555 496 555q515 0 485 -635h-700q15 -250 215 -250q95 0 176 78q36 39 92 39h201zM555 877q-177 0 -207 -218h408q-24 218 -201 218zM831 1323v-111h-180v181h113q67 0 67 -70zM469 1323v-111h-180v181h110q70 0 70 -70
z" />
    <glyph glyph-name="glyph67" horiz-adv-x="425" 
d="M483 1393l-227 -234h-135l98 189q25 42 84 45h180zM72 1083h141q131 0 131 -131v-952h-272v1083z" />
    <glyph glyph-name="glyph68" horiz-adv-x="425" 
d="M63 1393q59 0 84 -45l105 -189h-139l-222 234h172zM72 1083h141q131 0 131 -131v-952h-272v1083z" />
    <glyph glyph-name="glyph69" horiz-adv-x="425" 
d="M72 1083h141q131 0 131 -131v-952h-272v1083zM25 1171h-97l131 152q64 86 154 86q79 0 152 -86l122 -152h-159l-123 138l-80 -92q-18 -18 -28 -26t-28.5 -14t-43.5 -6z" />
    <glyph glyph-name="glyph70" horiz-adv-x="425" 
d="M213 1083q51 0 91 -40t40 -91v-952h-272v1083h141zM483 1323v-111h-180v181h113q67 0 67 -70zM121 1323v-111h-180v181h110q70 0 70 -70z" />
    <glyph glyph-name="glyph71" horiz-adv-x="1046" 
d="M537 881q-81 0 -135 -51t-54 -134v-696h-276v637q0 237 117 347.5t339 115.5q178 3 324 -88q147 -91 147 -375v-637h-143q-57 0 -96 38.5t-39 96.5v561q0 82 -53 133.5t-131 51.5zM285 1305q0 63 63 92q19 6 41 6.5t41 -2.5t41.5 -9.5t38.5 -13t36.5 -14.5t31.5 -12
q39 -14 61 -19.5t51.5 -7.5t53 10t44.5 37q0 -10 0.5 -35.5t0 -34t-1.5 -27.5t-4 -26t-8.5 -19.5t-13.5 -17.5t-20 -11t-28 -9q-36 -8 -87.5 5.5t-98 32t-93 30.5t-86 -2t-63.5 -62v109z" />
    <glyph glyph-name="glyph72" horiz-adv-x="1107" 
d="M815 1393l-227 -234h-135l100 189q25 42 84 45h178zM555 1100q494 0 494 -563q0 -562 -494 -562q-492 0 -492 562q0 563 492 563zM555 860q-215 0 -215 -323q3 -318 213 -318q208 0 211 326q0 315 -209 315z" />
    <glyph glyph-name="glyph73" horiz-adv-x="1107" 
d="M504 1393q59 0 84 -45l104 -189h-137l-227 234h176zM555 1100q494 0 494 -563q0 -562 -494 -562q-492 0 -492 562q0 563 492 563zM555 860q-215 0 -215 -323q3 -318 213 -318q208 0 211 326q0 315 -209 315z" />
    <glyph glyph-name="glyph74" horiz-adv-x="1107" 
d="M555 1100q494 0 494 -563q0 -562 -494 -562q-492 0 -492 562q0 563 492 563zM555 860q-215 0 -215 -323q3 -318 213 -318q208 0 211 326q0 315 -209 315zM373 1171h-97l132 152q64 86 151 86q81 0 154 -86l123 -152h-160l-123 138l-82 -92q-18 -18 -27 -25.5t-27.5 -14
t-43.5 -6.5z" />
    <glyph glyph-name="glyph75" horiz-adv-x="1107" 
d="M555 1100q494 0 494 -563q0 -562 -494 -562q-492 0 -492 562q0 563 492 563zM555 860q-215 0 -215 -323q3 -318 213 -318q208 0 211 326q0 315 -209 315zM307 1305q0 61 66 92q19 6 41 6.5t40.5 -2.5t41 -9.5t38.5 -13t36.5 -14.5t31.5 -12q40 -14 61.5 -19.5t51 -7.5
t52.5 10t44 37v-32v-30t-0.5 -26t-2.5 -24.5t-5.5 -19t-9.5 -18t-14 -13t-19 -11t-25 -6.5q-36 -8 -87.5 5.5t-98 32t-93 30.5t-86 -2t-63.5 -62v109z" />
    <glyph glyph-name="glyph76" horiz-adv-x="1107" 
d="M555 1100q494 0 494 -563q0 -562 -494 -562q-492 0 -492 562q0 563 492 563zM555 860q-215 0 -215 -323q3 -318 213 -318q208 0 211 326q0 315 -209 315zM827 1323v-111h-180v181h113q67 0 67 -70zM465 1323v-111h-180v181h110q70 0 70 -70z" />
    <glyph glyph-name="glyph77" horiz-adv-x="1046" 
d="M319 356q4 -85 62 -122t164 -37q172 0 172 102q0 83 -281 133q-361 65 -364 320q0 168 118.5 256.5t313.5 91.5q208 0 332 -92q120 -94 129 -265h-172q-97 3 -121 68q-28 74 -164 74q-160 0 -160 -84q0 -85 211 -125q275 -55 365 -139q75 -78 75 -193q0 -97 -36.5 -168.5
t-104 -113.5t-155.5 -62t-199 -20q-227 0 -340 96q-123 92 -123 280h278zM328 1393h-97l134 -142q63 -84 151 -84q80 0 152 84l125 142h-160l-125 -125l-80 80q-25 25 -44 35t-56 10z" />
    <glyph glyph-name="glyph78" horiz-adv-x="1030" 
d="M629 1393h180l-229 -234h-140l105 189q25 45 84 45zM983 1083v-651q0 -281 -143 -369q-145 -83 -320 -83q-165 0 -307 92q-141 89 -141 360v651h272v-706q0 -180 184 -180q185 0 185 180v571q-3 135 131 135h139z" />
    <glyph glyph-name="glyph79" horiz-adv-x="1030" 
d="M457 1393q59 0 84 -45l98 -189h-135l-228 234h181zM983 1083v-651q0 -281 -143 -369q-145 -83 -320 -83q-165 0 -307 92q-141 89 -141 360v651h272v-706q0 -180 184 -180q185 0 185 180v571q-3 135 131 135h139z" />
    <glyph glyph-name="glyph80" horiz-adv-x="1030" 
d="M983 1083v-651q0 -281 -143 -369q-145 -83 -320 -83q-165 0 -307 92q-141 89 -141 360v651h272v-706q0 -180 184 -180q185 0 185 180v571q-3 135 131 135h139zM348 1171h-96l133 152q64 86 152 86q78 0 151 -86l123 -152h-160l-123 138l-79 -92q-25 -25 -45 -35.5
t-56 -10.5z" />
    <glyph glyph-name="glyph81" horiz-adv-x="1030" 
d="M983 1083v-651q0 -281 -143 -369q-145 -83 -320 -83q-165 0 -307 92q-141 89 -141 360v651h272v-706q0 -180 184 -180q185 0 185 180v571q-3 135 131 135h139zM801 1323v-111h-180v181h110q70 0 70 -70zM436 1323v-111h-180v181h113q67 0 67 -70z" />
    <glyph glyph-name="glyph82" horiz-adv-x="1054" 
d="M244 856q-60 0 -100 39.5t-40 99.5v88h887v-231l-575 -616h592v-236h-936v215l579 641h-407zM580 1171q-86 0 -152 84l-131 154h98q52 0 97 -45l83 -92l121 137h164l-129 -154q-69 -84 -151 -84z" />
    <glyph glyph-name="glyph84" horiz-adv-x="403" 
d="M299 1016l49 -877q4 -72 -31.5 -106.5t-111.5 -32.5h-133l45 1016h182zM344 1225q0 -39 -31 -70t-69 -31h-172v269h272v-168z" />
    <glyph glyph-name="glyph85" horiz-adv-x="1155" 
d="M1053 236h51v-236h-51q-159 0 -238 43q-126 -63 -295 -63q-47 0 -176 24v-364h-139q-133 -3 -133 133v1310h272v-706q0 -180 184 -180q185 0 185 180v571q0 126 131 135h139v-776q3 -71 70 -71z" />
    <glyph glyph-name="glyph86" horiz-adv-x="763" 
d="M1176 1032h-144v207q0 223 236 264v-43q0 -34 -60 -63q-71 -41 -71 -113q0 -37 39 -37h88v-135q0 -80 -88 -80zM1540 1032h-143v207q0 223 235 264v-43q0 -34 -59 -63q-74 -43 -74 -113q0 -37 41 -37h88v-135q0 -80 -88 -80z" />
    <glyph glyph-name="glyph87" horiz-adv-x="706" 
d="M408 575q0 88 79 152l152 129v-96q0 -12 -2 -23t-3.5 -17.5t-7 -15.5t-7.5 -12t-11.5 -14t-11.5 -14l-92 -84l135 -119v-158l-152 125q-79 67 -79 147zM281 760q0 -15 -1.5 -26t-7.5 -21.5t-9 -15t-13.5 -17t-13.5 -16.5l-93 -84l138 -119v-158l-154 125q-80 68 -80 147
q0 87 80 152l154 129v-96z" />
    <glyph glyph-name="glyph88" horiz-adv-x="759" 
d="M324 575q0 87 -80 152l-152 129v-96q0 -12 2 -23t3.5 -17.5t7 -15.5t7.5 -12t11.5 -14t11.5 -14l92 -84l-135 -119v-158l152 125q80 68 80 147zM684 575q0 87 -80 152l-151 129v-96q0 -12 2 -23t3.5 -17.5t7 -15.5t7.5 -12t11.5 -14t11.5 -14l92 -84l-135 -119v-158
l151 125q80 68 80 147z" />
    <glyph glyph-name="glyph94" horiz-adv-x="290" 
d="M139 1393h117v-168q0 -181 -188 -213v37q0 11 12.5 23.5t33.5 28t29 23.5q20 22 29 68q0 25 -33 25h-67v110q0 66 67 66z" />
    <glyph glyph-name="glyph96" horiz-adv-x="1011" 
d="M72 453v88q0 84 80 84h256v340h92q80 0 80 -84v-256h340v-172h-340v-340h-172v340h-336z" />
    <glyph glyph-name="glyph98" horiz-adv-x="919" 
d="M113 465v94q0 53 51 53h647v-147h-698z" />
    <glyph glyph-name="glyph104" horiz-adv-x="679" 
d="M299 1393q63 0 88 -45l100 -189h-135l-227 234h174z" />
    <glyph glyph-name="glyph105" horiz-adv-x="835" 
d="M227 1176h-96l133 151q63 84 152 84q79 0 151 -84l125 -151h-160l-124 137l-80 -92q-25 -25 -44.5 -35t-56.5 -10z" />
    <glyph glyph-name="glyph106" horiz-adv-x="827" 
d="M164 1280q0 54 31.5 77t83 17.5t103.5 -19.5t109 -31t82 -19q57 -3 99 47v-29v-27.5t-0.5 -24t-1.5 -23.5t-3.5 -20t-6.5 -18t-9.5 -14.5t-13.5 -13t-18 -9t-23 -6.5q-37 -8 -88.5 5t-97.5 31.5t-92 31t-86.5 -1.5t-67.5 -62v109z" />
    <glyph glyph-name="glyph107" horiz-adv-x="839" 
d="M688 1323v-111h-180v181h113q67 0 67 -70zM324 1323v-111h-181v181h113q68 0 68 -70z" />
    <glyph glyph-name="glyph108" horiz-adv-x="962" 
d="M72 625h692q22 0 39 -8.5t23 -14t21 -28l17 -25.5l56 -96h-848v172zM457 387q114 0 114 -111q0 -116 -114 -116q-113 0 -113 116q0 111 113 111zM344 801q0 44 33.5 77t79.5 33t80 -33t34 -77q0 -117 -114 -117q-113 0 -113 117z" />
    <glyph glyph-name="glyph109" horiz-adv-x="843" 
d="M72 604v96q0 56 53 56h647v-152h-700zM72 319v97q0 55 53 55h647v-152h-700z" />
    <glyph glyph-name="glyph110" horiz-adv-x="827" 
d="M72 676q0 21 14.5 33t38.5 12h203v266h133q55 0 55 -55v-211h256v-158h-256v-266h-188v266h-256v113zM72 88v80q0 51 53 51h647v-131h-700z" />
    <glyph glyph-name="glyph111" horiz-adv-x="1163" 
d="M180 1020q0 178 128.5 286.5t320.5 108.5q187 0 295.5 -94t132.5 -268l-142 -21q-113 -15 -143 72q-49 100 -156 100q-179 0 -176 -180q0 -37 21 -139h215q108 0 108 -117v-59h-276q20 -67 20 -105h148q111 0 108 -108v-68h-272q-25 -72 -125 -184q122 41 277 -8
q80 -24 147 -21q65 0 197 57l104 -229q-111 -53 -230.5 -58t-256.5 35q-153 48 -217 39q-120 0 -236 -79l-100 229q129 92 180 219h-180v176h192q-2 28 -20 105h-172v176h125q-17 73 -17 135z" />
    <glyph glyph-name="glyph112" horiz-adv-x="1366" 
d="M844 0h-289v469h-375v174h303l-59 105h-244v176h144l-273 469h352l297 -600l236 516q38 84 131 84h238l-248 -469h80q117 0 114 -115v-61h-286l-54 -101h226q114 0 114 -119v-59h-407v-469z" />
    <glyph glyph-name="glyph113" horiz-adv-x="1175" 
d="M594 1116q148 0 270 -96l123 125l62 -62l-125 -127q96 -119 96 -266t-96 -266l125 -125l-62 -63l-123 124q-122 -96 -270 -96q-147 0 -266 96l-123 -124l-66 63l125 125q-96 119 -96 266t96 266l-125 127l66 62l123 -125q119 96 266 96zM256 688q0 -136 100 -236
t236 -100q138 0 237 98.5t99 237.5q0 141 -97.5 238.5t-238.5 97.5q-139 0 -237.5 -99t-98.5 -237z" />
    <glyph glyph-name="glyph114" horiz-adv-x="1071" 
d="M352 12q-142 55 -217.5 190t-75.5 335q0 254 130 408.5t366 154.5q67 0 100 -8l45 159h105l-53 -184q123 -41 188 -132.5t80 -242.5h-268q-12 110 -72 139l-180 -616q232 -12 256 193h268q-14 -226 -165 -335.5t-410 -80.5l-58 -211h-102zM553 872q-58 0 -100.5 -27
t-66.5 -75t-35 -106t-11 -127q9 -228 84 -277l176 608q-20 4 -47 4z" />
    <glyph glyph-name="glyph129" horiz-adv-x="1267" 
d="M59 567q0 94 113 138l1036 428v-156q0 -23 -18.5 -46.5t-40.5 -33.5l-741 -301q-40 -27 0 -51l800 -326v-211l-1040 424q-109 50 -109 135z" />
    <glyph glyph-name="glyph130" horiz-adv-x="1280" 
d="M72 977v156l1036 -428q104 -43 113 -138q0 -91 -113 -135l-1036 -424v211l800 326q30 24 0 51l-741 301q-27 9 -43 31t-16 49z" />
    <glyph glyph-name="glyph132" horiz-adv-x="1619" 
d="M801 1485q167 0 293 -57t237 -164q213 -228 213 -525q0 -125 -38 -238.5t-104 -199t-148 -148t-175 -98.5q-143 -55 -278 -55q-158 0 -285 59q-125 45 -241.5 163.5t-161.5 242.5q-54 127 -54 274q0 103 29 201q31 139 127 260t217 193q160 92 369 92zM961 541
q0 70 -28 98.5t-97 28.5h-181v-320h-168v735q0 88 88 88h314q130 0 196 -56t66 -179q0 -75 -32.5 -126.5t-90.5 -66.5q57 -21 77 -58.5t28 -121.5l4 -94q0 -38 1 -54.5t7.5 -37t21.5 -29.5h-186q-13 17 -16 51q0 34 -4 54v88zM983 920q0 108 -119 108h-209v-217h201
q127 0 127 109zM801 1360q-259 0 -428 -176q-81 -73 -137 -194t-56 -247q0 -129 50.5 -242.5t129.5 -189.5q177 -186 441 -186q129 0 242.5 51t193.5 131q75 64 128.5 181t53.5 243q0 127 -43 246q-42 105 -133 199q-94 91 -203 141q-116 43 -239 43z" />
    <glyph glyph-name="glyph133" horiz-adv-x="1619" 
d="M801 1360q-204 0 -355.5 -107.5t-218.5 -271.5q-47 -111 -47 -238q0 -132 47 -235q50 -125 138 -201q80 -83 191 -132.5t245 -49.5q106 0 198.5 29.5t163 82.5t123.5 120t90 147q43 116 43 239q0 103 -30 195.5t-83 163t-120 124.5t-146 91q-119 43 -239 43zM1171 604
q-7 -147 -110.5 -233t-263.5 -86q-197 0 -301.5 120t-104.5 330q0 213 107 331t311 118q163 0 259 -78.5t103 -224.5h-106q-67 0 -82 51q-23 39 -43 59q-49 37 -131 37q-122 0 -180 -77.5t-58 -215.5q0 -134 58 -212.5t176 -78.5q83 0 132.5 42.5t61.5 117.5h172zM801 1485
q153 0 282 -58q139 -57 244 -159q217 -231 217 -529q0 -102 -25 -195t-68 -167t-102.5 -137t-126.5 -108t-143 -77q-143 -55 -278 -55q-123 0 -236 38t-199.5 102t-150.5 146.5t-98 174.5q-58 135 -58 278q0 156 58 285q51 128 159 244q100 100 240 164q124 53 285 53z" />
    <glyph glyph-name="glyph134" horiz-adv-x="718" 
d="M356 567q-46 0 -83 40t-37 89t36.5 84t87.5 35q48 0 85.5 -35t37.5 -84q0 -52 -38 -90.5t-89 -38.5z" />
    <glyph glyph-name="glyph137" horiz-adv-x="1134" 
d="M961 1393h43l-807 -1393h-146l772 1335q20 37 48.5 47.5t89.5 10.5zM848 596q-113 0 -113 -143h-80q-62 0 -47 79q37 181 248 181q228 0 240 -234q0 -75 -39 -114q-37 -61 -217 -177q-44 -41 -56 -71h308v-117h-508q9 93 53 164q27 51 71 91t116.5 87.5t95.5 65.5
q29 29 32 79q3 109 -104 109zM96 1272q56 0 98.5 35.5t57.5 89.5h41q72 0 72 -76v-629h-142v467h-127v113z" />
    <glyph glyph-name="glyph138" horiz-adv-x="1142" 
d="M961 1393h43l-807 -1393h-146l772 1335q20 37 48.5 47.5t89.5 10.5zM823 0v147h-307v134l272 419h97q80 0 80 -75v-353h84v-125h-84v-147h-142zM823 264v311l-190 -311h190zM96 1272q56 0 98.5 35.5t57.5 89.5h41q72 0 72 -76v-629h-142v467h-127v113z" />
    <glyph glyph-name="glyph139" horiz-adv-x="1175" 
d="M1065 1393h43l-809 -1393h-143l772 1335q20 37 48 47.5t89 10.5zM252 1096q129 0 129 96q2 44 -21.5 66t-72.5 22q-100 0 -103 -117h-75q-70 -3 -46 80q39 154 230 154q222 3 231 -193q0 -99 -88 -139q113 -38 113 -162q0 -227 -268 -227q-264 0 -240 235h131
q0 -123 113 -123q110 0 110 111q0 96 -135 96h-24v101h16zM903 0v147h-307v134l272 419h97q79 0 79 -75v-353h84v-125h-84v-147h-141zM903 264v311l-190 -311h190z" />
    <glyph glyph-name="glyph140" horiz-adv-x="571" 
d="M72 -403v1914h477v-198h-225v-1514h225v-102q0 -91 -96 -100h-381z" />
    <glyph glyph-name="glyph141" horiz-adv-x="571" 
d="M51 1415q0 40 27 68t69 28h381v-1914h-477v202h221v1514h-221v102z" />
    <glyph glyph-name="glyph142" horiz-adv-x="2199" 
d="M1053 289h-541l-184 -289h-303l886 1300q66 93 168 93h985v-242h-733v-299h545v-92q0 -132 -143 -144h-402v-360h764v-256h-1042v289zM1053 520v592l-389 -592h389z" />
    <glyph glyph-name="glyph143" horiz-adv-x="2154" 
d="M369 688q0 -220 91.5 -346.5t282.5 -126.5h306v948h-297q-383 0 -383 -475zM727 -37q-322 0 -486.5 192t-164.5 533q0 410 234.5 592t674.5 129q165 -18 254 -25h817v-243h-729v-297h545v-92q0 -60 -44 -102t-104 -42h-397v-356h762v-252h-1040q-129 -37 -322 -37z" />
    <glyph glyph-name="glyph144" horiz-adv-x="991" 
d="M72 1372q8 0 33.5 0.5t36 0t33 -1.5t33.5 -3.5t28.5 -7t26.5 -12.5t18.5 -18t13.5 -25t4 -33v-207q50 22 213 31q402 9 399 -406q-3 -414 -399 -414q-149 0 -213 31v-207q0 -19 -5 -33.5t-14 -25t-21.5 -18t-27 -11.5t-31.5 -7t-35 -4t-36 -1.5t-36 0.5h-21v1372z
M496 911q-202 0 -205 -223t203 -223t206 223t-204 223z" />
    <glyph glyph-name="glyph145" horiz-adv-x="991" 
d="M72 1372q8 0 33.5 0.5t36 0t33 -1.5t33.5 -3.5t28.5 -7t26.5 -12.5t18.5 -18t13.5 -25t4 -33v-207q50 22 213 31q402 9 399 -406q-3 -414 -399 -414q-149 0 -213 31v-207q0 -19 -5 -33.5t-14 -25t-21.5 -18t-27 -11.5t-31.5 -7t-35 -4t-36 -1.5t-36 0.5h-21v1372z
M496 911q-202 0 -205 -223t203 -223t206 223t-204 223z" />
    <glyph glyph-name="glyph146" horiz-adv-x="1134" 
d="M72 -37v1018q0 409 424 412h155q193 4 291 -76t98 -242q0 -185 -147 -252q181 -63 190 -291q5 -188 -107.5 -282t-342.5 -94h-197v225h176q203 0 203 160q0 159 -203 159h-176v211h168q180 0 180 138q0 136 -184 127h-72q-217 -9 -217 -211v-1002h-239z" />
    <glyph glyph-name="glyph147" horiz-adv-x="1718" 
d="M457 184q110 0 174.5 64t60.5 172v96q-33 -14 -173 -54t-171 -67q-29 -29 -29 -88q0 -57 37.5 -88.5t100.5 -34.5zM973 440q6 -235 203 -235q104 0 155 63q38 47 101 47h196q-42 -154 -163 -244.5t-302 -90.5q-205 0 -323 124q-153 -124 -471 -124q-155 0 -232.5 81.5
t-77.5 237.5q0 56 13 101.5t34.5 78t56 58t70.5 42t86 29t94.5 19t102.5 12.5q172 21 172 104q0 35 -25.5 55.5t-60.5 26.5t-86 6q-65 0 -102.5 -16.5t-57.5 -54.5h-264q18 143 128 213.5t288 70.5q210 0 328 -71q3 -9 28 -25q122 96 295 96q235 0 358 -141t123 -391v-72
h-667zM1364 616q-16 207 -197 207q-84 0 -139 -55q-52 -61 -55 -152h391z" />
    <glyph glyph-name="glyph148" horiz-adv-x="1775" 
d="M1020 440q3 -118 50.5 -176.5t154.5 -58.5q70 0 110 22q7 7 38 35t38 35q25 14 70 14h194q-39 -155 -160.5 -243t-306.5 -88q-205 0 -336 137q-81 -93 -200 -117q-143 -43 -261.5 -11.5t-201.5 110t-117 182.5q-36 107 -33 239q0 112 35.5 214t93.5 165q96 113 256 137
q158 15 283 -24q92 -39 154 -101q121 133 331 133q236 -4 360.5 -144.5t119.5 -391.5q4 -36 -4 -68h-668zM1415 616q-8 97 -58.5 152t-139.5 51q-84 3 -138 -51q-46 -52 -59 -152h395zM399 768q-84 -90 -75 -268q3 -177 63 -240q23 -35 82 -51.5t119 0.5q79 21 114 97
t41 210q0 71 -14 129t-45 105t-81.5 62t-123.5 -1q-55 -12 -80 -43z" />
    <glyph glyph-name="glyph149" horiz-adv-x="702" 
d="M96 575v62q0 59 56 59h456v-121h-512zM315 881q69 0 109.5 37t40.5 106v59q-17 -6 -52 -14.5t-62 -16t-55.5 -19.5t-44 -31.5t-15.5 -45.5q3 -75 79 -75zM356 1280q-84 0 -96 -43h-160q24 178 248 178q270 0 273 -178v-221q0 -245 -281 -268q-118 -9 -189 44t-71 160
q0 46 13.5 80.5t36 56.5t60 37.5t75 23t91.5 13.5q105 12 105 66q-3 51 -105 51z" />
    <glyph glyph-name="glyph150" horiz-adv-x="710" 
d="M352 1419q148 0 160 -147q-9 -156 -164 -156q-157 0 -160 156q9 147 164 147zM348 1343q-76 0 -76 -75q0 -76 76 -76t76 76q0 75 -76 75z" />
    <glyph glyph-name="glyph151" horiz-adv-x="710" 
d="M96 575v62q0 59 56 59h460v-121h-516zM352 1419q295 0 295 -336q0 -331 -295 -331q-293 0 -293 331q0 336 293 336zM352 1276q-129 0 -129 -193q3 -186 129 -186q123 0 123 190q0 189 -123 189z" />
    <glyph glyph-name="glyph152" horiz-adv-x="403" 
d="M72 1300q52 0 91.5 33t55.5 82h41q64 0 64 -67v-592h-131v440h-121v104z" />
    <glyph glyph-name="glyph153" horiz-adv-x="598" 
d="M315 1321q-106 0 -106 -137h-74q-62 0 -47 76q37 167 236 167q216 0 225 -215q0 -72 -37 -112q-29 -51 -205 -164q-38 -35 -51 -68h289v-108h-477q4 90 51 163t117 121q4 2 26.5 14t30 16.5t27.5 17t29 20t24 21.5t22 26t13.5 28.5t7.5 33.5q1 51 -23.5 75.5t-77.5 24.5z
" />
    <glyph glyph-name="glyph154" horiz-adv-x="598" 
d="M272 1149q119 0 119 88q2 41 -20.5 62.5t-67.5 21.5q-91 0 -94 -109h-74q-34 -1 -44.5 17.5t1.5 58.5q37 139 215 139q216 3 225 -180q0 -91 -88 -131q105 -38 105 -151q0 -213 -250 -213q-124 0 -181.5 55t-49.5 166h129q0 -117 104 -117q107 0 107 105q0 96 -127 96
h-25v92h16z" />
    <glyph glyph-name="glyph155" horiz-adv-x="950" 
d="M500 -197q-330 0 -391 252q190 12 256 -63q38 -38 127 -35q78 0 122 32t39.5 81.5t-57.5 97.5q-81 68 -219.5 171.5t-167.5 125.5q-153 122 -150 266q0 184 177 273q-128 94 -101 256q55 225 334 225q275 0 358 -242h-106q-86 0 -113 41q-39 51 -137 51q-130 0 -139 -110
q0 -47 37 -84q43 -43 256 -183t256 -227q55 -111 -9 -266q-33 -77 -147 -146l31 -26q103 -87 100 -209q-24 -281 -356 -281zM281 756q0 -80 75 -131l256 -181l68 76q50 56 0 127q-28 44 -311 242q-88 -52 -88 -133z" />
    <glyph glyph-name="glyph156" horiz-adv-x="1026" 
d="M651 991q0 -84 -5.5 -133t-26 -92t-48.5 -73t-84 -77q-31 -25 -52.5 -45.5t-46.5 -51t-38.5 -67t-13.5 -75.5q0 -137 180 -146q190 0 211 209q22 0 58.5 1.5t55.5 1.5t46 -2t41 -9.5t28.5 -20t20.5 -34.5t6 -53q-53 -332 -475 -332q-449 0 -449 393q0 116 66 207
q51 62 215 223q50 47 59 141v35h252zM559 1116h-174v277h279v-172q0 -105 -105 -105z" />
    <glyph glyph-name="glyph157" horiz-adv-x="937" 
d="M63 1057q0 148 104.5 235.5t260.5 87.5h469v-75q0 -58 -57 -58h-56v-1167q0 -80 -75 -80h-70v1247h-84v-1247h-147v727q-154 11 -249.5 97t-95.5 233z" />
    <glyph glyph-name="glyph159" 
d="M444 -8q-187 40 -281 174t-91 354q12 420 340 508q135 31 243 12q-54 77 -96 109l-203 -105l-67 105l147 80q-10 7 -25 15t-26.5 14t-24.5 14t-21 17t-13.5 20t-5 26t7.5 33l32 92q120 -54 248 -143l156 84q71 30 121 -41l18 -33l-182 -90q313 -278 328 -721
q0 -204 -90.5 -345t-249.5 -171q-127 -36 -265 -8zM563 819q-215 0 -215 -315q3 -307 211 -307q210 0 213 315q0 307 -209 307z" />
    <glyph glyph-name="glyph160" horiz-adv-x="1466" 
d="M668 1393h229l500 -1393h-301l-92 285h-539l-92 -285h-305l464 1300q30 93 136 93zM731 1112l-190 -592h383zM1049 1741l-230 -234h-135l100 189q23 48 88 45h177z" />
    <glyph glyph-name="glyph161" horiz-adv-x="1466" 
d="M668 1393h229l500 -1393h-301l-92 285h-539l-92 -285h-305l464 1300q30 93 136 93zM731 1112l-190 -592h383zM475 1741l230 -234h135l-101 189q-23 48 -88 45h-176z" />
    <glyph glyph-name="glyph162" horiz-adv-x="1466" 
d="M668 1393h229l500 -1393h-301l-92 285h-539l-92 -285h-305l464 1300q30 93 136 93zM731 1112l-190 -592h383zM553 1507h-96l131 154q63 84 151 84q82 0 154 -84l123 -154h-160l-125 138l-80 -93q-18 -18 -27.5 -25.5t-27.5 -13.5t-43 -6z" />
    <glyph glyph-name="glyph163" horiz-adv-x="1466" 
d="M668 1393h229l500 -1393h-301l-92 285h-539l-92 -285h-305l464 1300q30 93 136 93zM731 1112l-190 -592h383zM479 1653q0 54 31.5 77t84 16.5t104.5 -20.5t109.5 -31.5t82.5 -19.5q53 -3 96 49v-31.5v-30.5t-0.5 -26t-2.5 -25t-5.5 -20t-9.5 -19t-14 -13.5t-19 -11.5
t-25 -7q-37 -8 -88.5 5t-97.5 31.5t-92 31t-86.5 -1.5t-67.5 -62v109z" />
    <glyph glyph-name="glyph164" horiz-adv-x="1466" 
d="M668 1393h229l500 -1393h-301l-92 285h-539l-92 -285h-305l464 1300q30 93 136 93zM731 1112l-190 -592h383zM999 1671v-110h-180v180h113q67 0 67 -70zM637 1671v-110h-180v180h110q70 0 70 -70z" />
    <glyph glyph-name="glyph165" horiz-adv-x="1466" 
d="M735 1759q150 0 162 -147q-9 -156 -166 -156t-160 156q9 147 164 147zM731 1683q-76 0 -76 -75q0 -76 76 -76q78 0 78 76q0 75 -78 75zM668 1393h229l500 -1393h-301l-92 285h-539l-92 -285h-305l464 1300q30 93 136 93zM731 1112l-190 -592h383z" />
    <glyph glyph-name="glyph166" horiz-adv-x="1130" 
d="M72 0v1243q0 147 143 150h864v-242h-727v-299h545v-92q3 -144 -149 -144h-396v-360h727v-256h-1007zM332 1741l227 -234h137l-100 189q-23 48 -88 45h-176z" />
    <glyph glyph-name="glyph167" horiz-adv-x="1130" 
d="M72 0v1243q0 147 143 150h864v-242h-727v-299h545v-92q3 -144 -149 -144h-396v-360h727v-256h-1007zM903 1741l-227 -234h-135l98 189q23 48 88 45h176z" />
    <glyph glyph-name="glyph168" horiz-adv-x="1130" 
d="M72 0v1243q0 147 143 150h864v-242h-727v-299h545v-92q3 -144 -149 -144h-396v-360h727v-256h-1007zM424 1507h-96l133 154q63 84 151 84q80 0 152 -84l125 -154h-162l-123 138l-80 -93q-25 -25 -44 -35t-56 -10z" />
    <glyph glyph-name="glyph169" horiz-adv-x="1130" 
d="M72 0v1243q0 147 143 150h864v-242h-727v-299h545v-92q3 -144 -149 -144h-396v-360h727v-256h-1007zM848 1671v-110h-180v180h112q68 0 68 -70zM483 1671v-110h-180v180h113q67 0 67 -70z" />
    <glyph glyph-name="glyph170" horiz-adv-x="425" 
d="M72 0v1243q0 150 143 150h141v-1393h-284zM-76 1741l228 -234h137l-101 189q-23 48 -88 45h-176z" />
    <glyph glyph-name="glyph171" horiz-adv-x="425" 
d="M72 0v1243q0 150 143 150h141v-1393h-284zM528 1741l-229 -234h-135l100 189q23 48 88 45h176z" />
    <glyph glyph-name="glyph172" horiz-adv-x="425" 
d="M29 1507h-92l122 154q63 84 156 84q88 0 154 -84l127 -154h-164l-119 138l-88 -93q-19 -19 -27 -25.5t-26 -13t-43 -6.5zM72 0v1243q0 150 143 150h141v-1393h-284z" />
    <glyph glyph-name="glyph173" horiz-adv-x="425" 
d="M72 0v1243q0 150 143 150h141v-1393h-284zM487 1671v-110h-180v180h113q67 0 67 -70zM125 1671v-110h-180v180h110q70 0 70 -70z" />
    <glyph glyph-name="glyph174" horiz-adv-x="1402" 
d="M705 1393q326 0 480 -176t154 -521q0 -198 -59 -336q-70 -190 -225 -275t-426 -85h-469v604h-228v184h228v455q0 150 143 150h402zM1049 696q0 221 -79.5 337t-264.5 116h-265v-361h160q130 0 121 -124v-60h-281v-352h228q206 0 293.5 108.5t87.5 335.5z" />
    <glyph glyph-name="glyph175" horiz-adv-x="1275" 
d="M72 0v1243q0 150 143 150h154l567 -957v957h281v-1393h-297l-568 956v-956h-280zM381 1653q0 54 31.5 77t83.5 16.5t104 -20.5t109 -31.5t82 -19.5q55 -3 98 49q0 -96 -6 -119q-13 -54 -72 -65q-37 -8 -88.5 5t-97 31.5t-91.5 31t-86 -1.5t-67 -62v109z" />
    <glyph glyph-name="glyph176" horiz-adv-x="1458" 
d="M725 1167q-126 0 -213.5 -62.5t-127.5 -166.5t-40 -242q0 -139 40 -244.5t127.5 -169t213.5 -63.5q189 0 286 129t97 348q0 214 -97.5 342.5t-285.5 128.5zM725 -20q-208 0 -360 90.5t-229 251t-77 374.5q0 213 79 375t230.5 253t356.5 91q204 0 356.5 -92t232 -254
t79.5 -373q0 -214 -78 -375t-229.5 -251t-360.5 -90zM991 1741l-227 -234h-135l98 189q23 48 88 45h176z" />
    <glyph glyph-name="glyph177" horiz-adv-x="1458" 
d="M725 1167q-126 0 -213.5 -62.5t-127.5 -166.5t-40 -242q0 -139 40 -244.5t127.5 -169t213.5 -63.5q189 0 286 129t97 348q0 214 -97.5 342.5t-285.5 128.5zM725 -20q-208 0 -360 90.5t-229 251t-77 374.5q0 213 79 375t230.5 253t356.5 91q204 0 356.5 -92t232 -254
t79.5 -373q0 -214 -78 -375t-229.5 -251t-360.5 -90zM395 1741l230 -234h135l-101 189q-23 48 -88 45h-176z" />
    <glyph glyph-name="glyph178" horiz-adv-x="1458" 
d="M725 1167q-126 0 -213.5 -62.5t-127.5 -166.5t-40 -242q0 -139 40 -244.5t127.5 -169t213.5 -63.5q189 0 286 129t97 348q0 214 -97.5 342.5t-285.5 128.5zM725 -20q-208 0 -360 90.5t-229 251t-77 374.5q0 213 79 375t230.5 253t356.5 91q204 0 356.5 -92t232 -254
t79.5 -373q0 -214 -78 -375t-229.5 -251t-360.5 -90zM541 1507h-97l131 154q63 84 152 84q82 0 154 -84l123 -154h-160l-123 138l-82 -93q-18 -18 -27.5 -25.5t-27.5 -13.5t-43 -6z" />
    <glyph glyph-name="glyph179" horiz-adv-x="1458" 
d="M725 1167q-126 0 -213.5 -62.5t-127.5 -166.5t-40 -242q0 -139 40 -244.5t127.5 -169t213.5 -63.5q189 0 286 129t97 348q0 214 -97.5 342.5t-285.5 128.5zM725 -20q-208 0 -360 90.5t-229 251t-77 374.5q0 213 79 375t230.5 253t356.5 91q204 0 356.5 -92t232 -254
t79.5 -373q0 -214 -78 -375t-229.5 -251t-360.5 -90zM469 1653q0 54 31.5 77t83.5 16.5t104 -20.5t109 -31.5t82 -19.5q55 -3 98 49q0 -96 -6 -119q-13 -54 -72 -65q-37 -8 -88.5 5t-97 31.5t-91.5 31t-86 -1.5t-67 -62v109z" />
    <glyph glyph-name="glyph180" horiz-adv-x="1458" 
d="M725 1167q-126 0 -213.5 -62.5t-127.5 -166.5t-40 -242q0 -139 40 -244.5t127.5 -169t213.5 -63.5q189 0 286 129t97 348q0 214 -97.5 342.5t-285.5 128.5zM725 -20q-208 0 -360 90.5t-229 251t-77 374.5q0 213 79 375t230.5 253t356.5 91q204 0 356.5 -92t232 -254
t79.5 -373q0 -214 -78 -375t-229.5 -251t-360.5 -90zM991 1671v-110h-180v180h113q67 0 67 -70zM629 1671v-110h-180v180h110q70 0 70 -70z" />
    <glyph glyph-name="glyph181" horiz-adv-x="1130" 
d="M823 844h242l-338 -412l352 -428h-319l-193 264l-190 -264h-326l348 432l-327 408h309l182 -256l146 200q30 56 114 56z" />
    <glyph glyph-name="glyph182" horiz-adv-x="1275" 
d="M655 215q136 0 203.5 43t65.5 129q0 100 -127 137q-35 11 -277 76q-407 105 -407 381q9 437 524 434q490 0 514 -432h-160q-85 0 -127 82q-70 119 -252 119q-218 -3 -227 -164q0 -132 270 -193q185 -44 332 -96q233 -79 221 -344q-24 -407 -553 -407q-551 0 -563 456h277
q15 -221 286 -221zM444 1741h-96l131 -154q63 -84 154 -84q79 0 151 84l123 154h-159l-123 -137l-80 92q-25 25 -44.5 35t-56.5 10z" />
    <glyph glyph-name="glyph183" horiz-adv-x="1427" 
d="M1393 696q0 -214 -78 -375t-229.5 -251t-360.5 -90q-262 0 -428 137l-88 -105h-158l164 189q-156 185 -156 495q0 213 78.5 374t230 251t357.5 90q260 0 430 -139l88 104h158l-164 -184q156 -190 156 -496zM725 219q189 0 286 129t97 348q0 166 -55 285l-582 -666
q96 -96 254 -96zM725 1167q-126 0 -213.5 -62.5t-127.5 -166.5t-40 -242q0 -178 59 -284l578 663q-103 92 -256 92z" />
    <glyph glyph-name="glyph184" horiz-adv-x="1134" 
d="M1067 545q0 -244 -102 -381q-93 -134 -244 -164q-137 -34 -263 -8t-206 92l-72 -84h-155l147 172q-100 147 -100 377q12 455 399 543q170 24 301 -25q69 -29 121 -72l72 80h155l-147 -168q94 -158 94 -362zM721 801q-68 71 -166 59q-169 -12 -199 -239q-15 -118 13 -226z
M793 545q0 76 -17 139q-47 -53 -167.5 -193t-188.5 -215q38 -57 102 -70t125 15.5t96 85.5q50 80 50 238z" />
    <glyph glyph-name="glyph185" horiz-adv-x="1234" 
d="M356 1393v-861q0 -304 269 -307q268 -3 268 307v861h283v-893q-9 -520 -551 -520q-544 0 -553 520v743q-9 150 143 150h141zM893 1741l-229 -234h-136l101 189q23 48 88 45h176z" />
    <glyph glyph-name="glyph186" horiz-adv-x="1234" 
d="M356 1393v-861q0 -304 269 -307q268 -3 268 307v861h283v-893q-9 -520 -551 -520q-544 0 -553 520v743q-9 150 143 150h141zM356 1741l228 -234h137l-100 189q-23 48 -89 45h-176z" />
    <glyph glyph-name="glyph187" horiz-adv-x="1234" 
d="M356 1393v-861q0 -304 269 -307q268 -3 268 307v861h283v-893q-9 -520 -551 -520q-544 0 -553 520v743q-9 150 143 150h141zM436 1507h-96l131 154q63 84 154 84q79 0 151 -84l123 -154h-160l-123 138l-79 -93q-25 -25 -44.5 -35t-56.5 -10z" />
    <glyph glyph-name="glyph188" horiz-adv-x="1234" 
d="M356 1393v-861q0 -304 269 -307q268 -3 268 307v861h283v-893q-9 -520 -551 -520q-544 0 -553 520v743q-9 150 143 150h141zM893 1671v-110h-180v180h110q70 0 70 -70zM528 1671v-110h-180v180h113q67 0 67 -70z" />
    <glyph glyph-name="glyph189" horiz-adv-x="1366" 
d="M844 0h-289v520l-504 873h352l297 -600l236 516q38 84 131 84h238l-461 -873v-520zM1012 1741l-228 -234h-137l101 189q23 48 88 45h176z" />
    <glyph glyph-name="glyph190" horiz-adv-x="1366" 
d="M844 0h-289v520l-504 873h352l297 -600l236 516q38 84 131 84h238l-461 -873v-520zM961 1671v-110h-181v180h113q68 0 68 -70zM596 1671v-110h-180v180h112q68 0 68 -70z" />
    <glyph glyph-name="glyph191" horiz-adv-x="1230" 
d="M244 856q-60 0 -100 39.5t-40 99.5v88h887v-231l-575 -616h592v-236h-936v215l579 641h-407zM395 1393h-96l133 -142q63 -84 152 -84q79 0 151 84l125 142h-160l-125 -125l-79 80q-25 25 -44.5 35t-56.5 10z" />
    <glyph glyph-name="glyph192" horiz-adv-x="1370" 
d="M1309 483q-12 -236 -177.5 -369.5t-431.5 -133.5q-316 0 -478.5 190.5t-162.5 525.5q0 346 169.5 532.5t498.5 186.5q260 0 411 -125.5t171 -361.5h-172q-92 0 -133 84q-69 151 -277 151q-194 0 -286.5 -123.5t-92.5 -343.5q0 -139 37.5 -242t122 -165t209.5 -62
q129 0 210 68.5t105 187.5h277zM948 -205q0 -23 -9 -39t-25.5 -23t-36 -10t-46 1t-48 8t-49.5 13t-44.5 14.5t-38.5 14t-26 9.5q-151 54 -205 -55v125q3 62 72 100q38 10 81 4.5t82.5 -22.5t81.5 -32t78 -23.5t71 4t62 48.5v-137z" />
    <glyph glyph-name="glyph193" 
d="M831 -205q0 -23 -9 -39t-25.5 -23t-36 -10t-46 1t-48 8t-49.5 13t-44.5 14.5t-38.5 14t-26 9.5q-151 54 -205 -55v125q3 60 74 100q38 10 80.5 4.5t82 -22.5t81 -32t77.5 -23.5t71 4t62 48.5v-137zM1028 332q-38 -170 -157 -265.5t-304 -91.5q-492 0 -504 562
q0 554 500 563q395 0 465 -352h-297q-50 112 -176 112q-215 0 -215 -323q0 -325 227 -322q95 0 164 78q39 39 92 39h205z" />
    <glyph glyph-name="glyph197" horiz-adv-x="1163" 
d="M592 -25q-106 0 -193.5 34t-148.5 95.5t-101.5 142.5t-60.5 181h-172v176h143q-8 63 -8 109h-135v186h131q16 115 57 208.5t106.5 164t162 109t215.5 38.5q214 0 344 -127q118 -132 139 -364h-143q-76 0 -127 63q-56 152 -213 164q-117 11 -183 -56.5t-81 -213.5h213
q96 0 96 -97v-79h-318q-3 -56 4 -97h222q89 0 92 -100v-84h-260q25 -67 71 -113.5t99 -63.5t112.5 1t108.5 72q61 61 100 159h232q-20 -234 -147 -371t-357 -137z" />
    <glyph glyph-name="glyph199" horiz-adv-x="790" 
d="M160 215h143v-207q0 -223 -235 -264v43q0 37 59 66q74 43 74 110q0 37 -41 37h-88v135q0 80 88 80zM559 215h146v-207q0 -223 -236 -264v43q0 37 59 66q72 41 72 110q0 37 -41 37h-88v135q0 80 88 80z" />
    <glyph glyph-name="glyph200" horiz-adv-x="1187" 
d="M160 215h143v-215h-231v135q0 80 88 80zM559 215h146v-215h-234v135q0 80 88 80zM961 215h143v-215h-232v135q0 80 89 80z" />
    <glyph glyph-name="glyph201" horiz-adv-x="1474" 
d="M809 387h399q113 0 113 -127v-33h-512v-751h-162v751h-471v160h471v401h-467v160h467v332q0 113 129 113h33v-445h399q113 0 113 -129v-31h-512v-401z" />
    <glyph glyph-name="glyph202" horiz-adv-x="1474" 
d="M809 788v-1312h-162v1312h-467v160h467v332q0 113 129 113h33v-445h399q113 0 113 -129v-31h-512z" />
    <glyph glyph-name="glyph203" horiz-adv-x="835" 
d="M227 1176h-96l133 151q63 84 152 84q79 0 151 -84l125 -151h-160l-124 137l-80 -92q-25 -25 -44.5 -35t-56.5 -10z" />
    <glyph glyph-name="glyph204" horiz-adv-x="579" 
d="M516 952q0 -56 -40 -96.5t-95 -40.5h-37v-940q0 -216 -92 -315t-277 -84q-262 0 -219 360q30 -217 201 -176q127 30 115 252v1200q-7 150 74 219.5t239 69.5q76 0 131 -8v-226h-72q-95 0 -104 -80v-71h176v-64z" />
    <glyph glyph-name="glyph205" horiz-adv-x="1955" 
d="M1057 1393h127l-819 -1413h-234l789 1355q20 37 48 47.5t89 10.5zM328 1368q231 0 231 -328q3 -323 -233 -323q-237 0 -234 327q3 324 236 324zM328 1264q-105 0 -105 -220q-3 -225 103 -225q105 0 102 221q0 224 -100 224zM1012 680q231 0 231 -328q3 -323 -233 -323
q-237 0 -234 327q3 324 236 324zM1012 575q-105 0 -105 -219q-3 -225 103 -225q105 0 102 221q0 223 -100 223zM1569 680q231 0 231 -328q3 -323 -233 -323q-239 0 -236 327q3 324 238 324zM1569 575q-105 0 -105 -219q-3 -225 103 -225q103 0 100 221q0 223 -98 223z" />
    <glyph glyph-name="glyph206" horiz-adv-x="522" 
d="M360 760q0 -15 -1.5 -26t-7.5 -21.5t-9 -15t-13.5 -17t-13.5 -16.5l-92 -84l137 -119v-158l-151 125q-82 70 -82 147q0 85 82 152l151 129v-96z" />
    <glyph glyph-name="glyph207" horiz-adv-x="522" 
d="M373 575q0 87 -80 152l-154 129v-96q0 -15 1.5 -26t7.5 -21.5t9 -15t13.5 -17t13.5 -16.5l92 -84l-137 -119v-158l154 125q80 68 80 147z" />
    <glyph glyph-name="glyph208" horiz-adv-x="1230" 
d="M231 1141q-60 0 -103.5 43.5t-43.5 103.5v105h1092v-242l-760 -899h743v-252h-1087v244l755 897h-596zM444 1741h-96l131 -154q63 -84 154 -84q79 0 151 84l123 154h-159l-123 -137l-80 92q-25 25 -44.5 35t-56.5 10z" />
    <glyph glyph-name="glyph209" horiz-adv-x="374" 
d="M215 928h-143v209q0 223 235 264v-45q0 -35 -59 -64q-72 -41 -72 -112q0 -35 39 -35h88v-137q0 -80 -88 -80z" />
    <glyph glyph-name="glyph210" horiz-adv-x="374" 
d="M160 1393h143v-209q0 -223 -235 -264v45q0 34 59 63q74 43 74 113q0 35 -41 35h-88v137q0 80 88 80z" />
    <glyph glyph-name="glyph211" horiz-adv-x="763" 
d="M215 924h-143v209q0 223 235 264v-45q0 -35 -59 -64q-72 -41 -72 -112q0 -35 39 -35h88v-137q0 -80 -88 -80zM580 924h-144v209q0 223 236 264v-45q0 -35 -60 -64q-71 -41 -71 -112q0 -35 39 -35h88v-137q0 -80 -88 -80z" />
    <glyph glyph-name="glyph212" horiz-adv-x="763" 
d="M537 1393h143v-209q0 -223 -236 -264v45q0 34 60 63q71 41 71 113q0 35 -38 35h-88v137q0 80 88 80zM172 1393h143v-209q0 -223 -235 -264v45q0 34 59 63q74 43 74 113q0 35 -41 35h-88v137q0 80 88 80z" />
    <glyph glyph-name="glyph213" horiz-adv-x="718" 
d="M360 461q-90 0 -155.5 67t-65.5 160q0 92 66 155.5t160 63.5q90 0 156.5 -65.5t66.5 -153.5q0 -91 -68.5 -159t-159.5 -68z" />
    <glyph glyph-name="glyph214" horiz-adv-x="1302" 
d="M113 465v94q0 53 51 53h1007v-147h-1058z" />
    <glyph glyph-name="glyph215" horiz-adv-x="1699" 
d="M113 465v94q0 53 51 53h1409v-147h-1460z" />
    <glyph glyph-name="glyph216" horiz-adv-x="690" 
d="M113 465v94q0 53 51 53h407v-147h-458z" />
    <glyph glyph-name="glyph217" 
d="M973 893v-352q0 -54 -53 -54h-97v256h-710v97q0 53 51 53h809z" />
    <glyph glyph-name="glyph218" horiz-adv-x="999" 
d="M248 1305q0 63 63 92q19 6 41 6.5t41 -2.5t42 -9.5t39 -13t37 -14.5t32 -12q40 -14 61.5 -19.5t51 -7.5t52.5 10t44 37v-32v-30t-0.5 -26t-2.5 -24.5t-5.5 -19t-9.5 -18t-14 -13t-19 -11t-25 -6.5q-36 -8 -87.5 5.5t-98 32t-93 30.5t-86 -2t-63.5 -62v109z" />
    <glyph glyph-name="glyph219" horiz-adv-x="1495" 
d="M92 1321q0 27 24 49.5t52 22.5h471v-125h-203v-555h-139v555h-205v53zM700 1321q0 28 20.5 50t47.5 22h135l141 -512l132 512h200v-680h-125v547l-143 -547h-139l-142 547v-547h-127v608z" />
    <glyph glyph-name="glyph220" horiz-adv-x="299" 
d="M231 1397v-750h-159v637q-3 113 129 113h30zM231 395v-747h-159v637q-3 110 129 110h30z" />
    <glyph glyph-name="glyph221" horiz-adv-x="718" 
d="M59 1012v96q0 51 54 51h555v-147h-609z" />
    <glyph glyph-name="glyph222" horiz-adv-x="735" 
d="M629 -205q0 -23 -9 -39t-26 -23t-36.5 -10t-46 1t-48.5 8t-50.5 13t-45 14.5t-39 14t-25.5 9.5q-149 53 -203 -55v125q3 62 72 100q38 10 81 4.5t82.5 -22.5t81.5 -32t78 -23.5t71.5 4t62.5 48.5v-137z" />
    <glyph glyph-name="glyph223" horiz-adv-x="759" 
d="M408 575q0 88 79 152l152 129v-96q0 -12 -2 -23t-3.5 -17.5t-7 -15.5t-7.5 -12t-11.5 -14t-11.5 -14l-92 -84l135 -119v-158l-152 125q-79 67 -79 147zM281 760q0 -15 -1.5 -26t-7.5 -21.5t-9 -15t-13.5 -17t-13.5 -16.5l-93 -84l138 -119v-158l-154 125q-80 68 -80 147
q0 87 80 152l154 129v-96z" />
    <glyph glyph-name="glyph224" horiz-adv-x="651" 
d="M549 1393l-230 -234h-135l101 189q23 48 88 45h176z" />
    <glyph glyph-name="glyph225" horiz-adv-x="911" 
d="M475 -41q77 0 130.5 42t53.5 112q0 58 -51 106q-12 16 -399 273q-62 41 -88 83q-49 64 -49 150q3 143 133 223l63 35l-49 49q-40 37 -55 80q-26 63 -11.5 117t55 94t102 61.5t130.5 20.5q159 0 232 -70q59 -53 84 -123h-68q-48 0 -71.5 12t-41.5 44q-40 63 -122 63
q-74 0 -125.5 -36t-51.5 -95q0 -70 60 -121q19 -19 385 -260q119 -88 119 -215q0 -63 -31 -117q-38 -61 -162 -143l53 -45q97 -97 88 -174q0 -115 -92 -176.5t-227 -61.5q-126 0 -219 54t-119 147q34 0 58 -2.5t38 -4t29.5 -11.5t19.5 -13t22.5 -22.5t25.5 -26.5
q64 -49 151 -49zM180 772q0 -115 144 -209l288 -190l31 26q159 170 70 256q-37 45 -398 297l-30 -16q-43 -24 -74 -68.5t-31 -95.5z" />
    <glyph glyph-name="glyph226" horiz-adv-x="774" 
d="M55 532v27q3 47 32.5 74.5t77.5 33.5t104.5 -1.5t117.5 -28.5q229 -80 313 -49q-5 0 -16 -35q-38 -89 -213 -37q-108 44 -173 60.5t-126.5 7.5t-116.5 -52z" />
    <glyph glyph-name="glyph227" horiz-adv-x="774" 
d="M55 532v27q3 47 32.5 74.5t77.5 33.5t104.5 -1.5t117.5 -28.5q229 -80 313 -49q-5 0 -16 -35q-38 -89 -213 -37q-108 44 -173 60.5t-126.5 7.5t-116.5 -52z" />
    <glyph glyph-name="glyph228" horiz-adv-x="559" 
d="M752 1335q0 45 45 45h92v-137l-70 -346l-67 350v88zM1028 1335q0 45 43 45h92v-137l-67 -346l-68 350v88z" />
    <glyph glyph-name="glyph229" horiz-adv-x="643" 
d="M131 1393h105v-150l-80 -346l-84 342v96q0 58 59 58zM453 1393h102v-150l-80 -346l-84 342v96q0 58 62 58z" />
    <glyph glyph-name="glyph230" horiz-adv-x="1558" 
d="M864 1393v-377h471q150 -9 150 -164v-59h-621v-1301h-227v1301h-545v223h547v244q0 136 149 133h76z" />
    <glyph glyph-name="glyph231" horiz-adv-x="1558" 
d="M864 1393v-377h471q150 -9 150 -164v-59h-621v-336h467q75 -2 114.5 -44.5t39.5 -123.5v-58h-621v-739h-227v739h-549v226h549v336h-545v223h547v244q0 136 149 133h76z" />
    <glyph glyph-name="glyph232" horiz-adv-x="1558" 
d="M864 1393v-377h471q150 -9 150 -164v-59h-621v-1301h-227v1301h-545v223h547v244q0 136 149 133h76z" />
    <glyph glyph-name="glyph233" horiz-adv-x="1558" 
d="M864 1393v-377h471q150 -9 150 -164v-59h-621v-336h467q75 -2 114.5 -44.5t39.5 -123.5v-58h-621v-739h-227v739h-549v226h549v336h-545v223h547v244q0 136 149 133h76z" />
    <glyph glyph-name="glyph236" horiz-adv-x="1323" 
 />
    <glyph glyph-name="glyph238" horiz-adv-x="1222" 
 />
    <glyph glyph-name="glyph240" horiz-adv-x="1478" 
 />
    <glyph glyph-name="glyph242" horiz-adv-x="1478" 
d="M168 244q65 129 105.5 251t61 265t27.5 283t7 350h755q181 0 181 -172v-977h106v-504h-354v260h-633v-260h-344v504h88zM688 1104q0 -258 -46.5 -449.5t-137.5 -410.5h461v860h-277z" />
    <glyph glyph-name="glyph245" horiz-adv-x="2215" 
 />
    <glyph glyph-name="glyph248" horiz-adv-x="1390" 
 />
    <glyph glyph-name="glyph251" horiz-adv-x="1390" 
 />
    <glyph glyph-name="glyph252" horiz-adv-x="1378" 
 />
    <glyph glyph-name="glyph257" horiz-adv-x="1359" 
 />
    <glyph glyph-name="glyph263" horiz-adv-x="1398" 
 />
    <glyph glyph-name="glyph264" horiz-adv-x="1867" 
 />
    <glyph glyph-name="glyph267" horiz-adv-x="1466" 
 />
    <glyph glyph-name="glyph268" horiz-adv-x="2119" 
 />
    <glyph glyph-name="glyph269" horiz-adv-x="1478" 
d="M1280 297v936q-9 160 -172 160h-172v-1096l-512 1096h-344v-1393h977v-344h344v641h-121z" />
    <glyph glyph-name="glyph272" horiz-adv-x="1263" 
 />
    <glyph glyph-name="glyph273" horiz-adv-x="2048" 
 />
    <glyph glyph-name="glyph276" horiz-adv-x="2048" 
 />
    <glyph glyph-name="glyph277" horiz-adv-x="2170" 
 />
    <glyph glyph-name="glyph278" horiz-adv-x="1622" 
 />
    <glyph glyph-name="glyph282" horiz-adv-x="2103" 
 />
    <glyph glyph-name="glyph283" horiz-adv-x="1280" 
 />
    <glyph glyph-name="glyph285" horiz-adv-x="1458" 
 />
    <glyph glyph-name="glyph286" horiz-adv-x="1259" 
 />
    <glyph glyph-name="glyph287" horiz-adv-x="2119" 
 />
    <glyph glyph-name="glyph289" horiz-adv-x="2078" 
 />
    <glyph glyph-name="glyph292" horiz-adv-x="1335" 
 />
    <glyph glyph-name="glyph293" horiz-adv-x="1179" 
 />
    <glyph glyph-name="glyph295" horiz-adv-x="1038" 
 />
    <glyph glyph-name="glyph297" horiz-adv-x="958" 
 />
    <glyph glyph-name="glyph299" horiz-adv-x="958" 
 />
    <glyph glyph-name="glyph301" horiz-adv-x="1363" 
 />
    <glyph glyph-name="glyph303" horiz-adv-x="1792" 
 />
    <glyph glyph-name="glyph305" horiz-adv-x="1638" 
d="M360 920h916v-920h-916v920zM520 793q-41 0 -41 -5q0 -16 53 -16q52 -12 52 8q0 3 -5 7.5t-12 5.5l-43 12q-45 0 -45 -4q24 -8 41 -8zM604 743q0 25 -67 25q-66 11 -60 -8l2 -4q0 -25 66 -25q59 -12 59 12zM621 676q0 45 -72 45q-42 2 -59.5 -6.5t-10.5 -26.5
q0 -38 76 -41q66 0 66 29zM555 637q-44 0 -63 -14.5t-13 -42.5q0 -60 88 -60q76 -12 76 47q-13 55 -88 70zM559 496q-92 0 -80 -80q9 -80 101 -80q84 0 75 80q-12 80 -96 80zM571 303q-52 0 -75 -22t-17 -66q0 -90 105 -90q92 0 92 90q-12 88 -105 88zM840 684q8 0 41 -27.5
t43 -40.5q0 -13 -45 24q-38 32 -39 44zM580 793q12 -11 16 -13q0 -21 47 -24q-27 0 -27 -8q12 -26 60 -35q55 -24 55 0q-12 12 -59 35q24 -12 24 0q12 12 -53 24h29q-25 6 -51 16zM760 735h-4v8q-21 3 -35 17l-45 8q20 -12 33 -12q-11 -11 28 -29l6 -2l50 -12q0 8 -9 8h9
q4 -8 12 -8q0 -5 28.5 -23.5t43.5 -25.5q22 0 -17 22q-9 4 -20 10q-21 0 -21 13q-12 12 -22 12q-18 5 -37 14zM969 571q0 -10 24 -39.5t43 -48.5q4 4 -24 49q-39 39 -43 39zM920 637v-8q8 -14 33 -38t34 -24q1 -2 2 -6t2 -6q11 -11 19.5 -18.5t13.5 -12.5h2q-2 3 -11.5 13
t-15.5 18q-7 6 -13 12.5t-9 11t-8 13t-8 12.5v-8h-3q-2 0 -2 8l-32 33q-9 7 -21.5 15t-17.5 12q11 -11 35 -27zM1120 356q-8 12 -20 35h-2q-2 0 -2 4q-1 2 -2 6.5t-2 6.5h4q0 7 -25 49q-20 20 -31 51v-12q-4 12 -16 24q3 -12 19.5 -37.5t21.5 -25.5q0 -5 3 -15t7 -10
q-1 1 -2 4t-2 4q-8 0 2.5 -24t24.5 -48l14 -24v12q9 -37 21 -37q-13 16 -13 37zM1141 240v2q3 -13 10 -23q2 2 -6 45q-2 9 -6.5 21.5t-5.5 17.5v-6l-25 47q0 -15 4 -55q21 -49 29 -49zM1151 147q0 -6 4 -22q8 0 8 43l-12 47v-8q-2 12 -10 12t-8 -47q0 -19 12 -47q6 0 6 22z
M872 209q0 -84 60 -84q30 -6 44.5 11t14.5 57q0 53 -40 79q-35 23 -60 -1q-19 -19 -19 -62zM1100 240q-11 11 -15 -15l-2 -32q12 -65 25 -68q23 -16 21 18q-1 12 -5 29q0 56 -24 68zM840 672q-69 49 -92 49h-5q0 -21 50 -45q47 -23 47 -4zM780 651q0 -25 56 -55q53 -38 53 0
q-15 40 -53 55q-56 30 -56 0zM1061 444l-37 39q-14 -20 18 -68q23 -33 34 -33q13 0 -15 62zM1071 303q23 -57 32 -52q12 5 -2 66q-14 62 -31 59q-2 0 -5 -3q-18 -18 6 -70zM956 395q-38 69 -79 49q-22 -14 -22.5 -42t13.5 -53.5t37 -40.5t43 -5q52 27 8 92zM639 684
q0 -33 70 -55q60 -20 61 0q0 4 -2 10q0 33 -68 57q-61 15 -61 -12zM731 608q-67 21 -67 -37q9 -50 79 -71q66 -25 66 37q-11 46 -78 71zM756 475q-41 5 -59.5 -12t-12.5 -55q3 -75 84 -84q72 -12 72 67q-12 72 -84 84zM696 215q0 -90 84 -90q40 -6 60 14t20 66q0 82 -88 94
q-76 0 -76 -84zM1004 205q0 -49 27 -74q23 -20 36 5q8 16 8 44q0 53 -27 78q-23 21 -36 -6q-8 -17 -8 -47zM1049 369q-37 60 -58 39q-37 -24 0 -76q15 -33 30.5 -44.5t27.5 1.5q27 3 0 80zM999 496q-39 39 -55 36q-23 -23 17 -68q30 -34 54 -39q13 -2 12 12q-2 18 -28 59z
M973 537q20 15 -29 55q-41 32 -56 30q-16 -3 36 -55q30 -49 49 -30zM907 545q-48 48 -80 26q-34 -22 21 -71q40 -54 76 -31q32 10 -17 76z" />
    <glyph glyph-name="glyph306" 
 />
    <glyph glyph-name="glyph310" horiz-adv-x="1042" 
 />
    <glyph glyph-name="glyph312" horiz-adv-x="1259" 
 />
    <glyph glyph-name="glyph313" 
 />
    <glyph glyph-name="glyph314" horiz-adv-x="1259" 
 />
    <glyph glyph-name="glyph315" horiz-adv-x="1259" 
 />
    <glyph glyph-name="glyph317" horiz-adv-x="1347" 
 />
    <glyph glyph-name="glyph320" horiz-adv-x="1079" 
 />
    <glyph glyph-name="glyph321" horiz-adv-x="1511" 
 />
    <glyph glyph-name="glyph329" horiz-adv-x="1871" 
 />
    <glyph glyph-name="glyph333" horiz-adv-x="1318" 
 />
    <glyph glyph-name="glyph335" horiz-adv-x="2119" 
d="M1075 260v660q-3 159 -172 159h-94v-819h-457v819h-272v-1079h840v-344h272v604h-117z" />
    <glyph glyph-name="glyph339" horiz-adv-x="1507" 
 />
    <glyph glyph-name="glyph340" horiz-adv-x="1546" 
d="M793 381q0 -35 -10.5 -59t-27 -37.5t-45.5 -21t-56.5 -9.5t-69.5 -2h-224v252h224q40 0 67 -2t56.5 -9t46.5 -20t28 -36t11 -56zM1079 381q0 106 -34.5 179.5t-102.5 115t-157 59t-210 17.5h-215v180q0 147 -155 147h-125v-1079h495q122 0 211.5 18.5t157 61.5t101.5 118
t34 183zM1339 1079q57 0 95.5 -37t38.5 -94v-948h-273v1079h139z" />
    <glyph glyph-name="glyph343" horiz-adv-x="1638" 
 />
    <glyph glyph-name="glyph345" horiz-adv-x="1167" 
 />
    <glyph glyph-name="glyph346" horiz-adv-x="1179" 
 />
    <glyph glyph-name="glyph348" horiz-adv-x="1726" 
 />
    <glyph glyph-name="glyph358" horiz-adv-x="782" 
 />
    <glyph glyph-name="glyph359" horiz-adv-x="718" 
d="M360 461q-90 0 -155.5 67t-65.5 160q0 92 66 155.5t160 63.5q90 0 156.5 -65.5t66.5 -153.5q0 -91 -68.5 -159t-159.5 -68z" />
    <glyph glyph-name="glyph361" horiz-adv-x="718" 
d="M356 567q-46 0 -83 40t-37 89t36.5 84t87.5 35q48 0 85.5 -35t37.5 -84q0 -52 -38 -90.5t-89 -38.5z" />
    <glyph glyph-name="glyph362" horiz-adv-x="2048" 
 />
    <glyph glyph-name="glyph364" horiz-adv-x="2048" 
 />
    <glyph glyph-name="glyph365" horiz-adv-x="2203" 
d="M-1524 1393h344v-1393h-385l-479 805v-805h-344v1225q-1 85 41.5 126.5t130.5 41.5h211l481 -801v801zM-981 553v84q0 59 57 59h459v-143h-516zM-1040 1083q0 89 34 162t94 115.5t141 54t175 -21.5q89 -33 138.5 -115t49.5 -199q0 -170 -102 -261.5t-283 -63.5
q-121 20 -184 107t-63 222zM-725 907q110 0 113 172q0 91 -39 142q-48 39 -113 18q-69 -28 -72 -160q0 -172 111 -172z" />
    <glyph glyph-name="glyph367" horiz-adv-x="2119" 
 />
    <glyph glyph-name="glyph368" horiz-adv-x="2119" 
 />
    <glyph glyph-name="glyph369" horiz-adv-x="1175" 
 />
    <glyph glyph-name="glyph370" horiz-adv-x="1079" 
d="M244 856q-60 0 -100 39.5t-40 99.5v88h887v-231l-575 -616h592v-236h-936v215l579 641h-407zM395 1393h-96l133 -142q63 -84 152 -84q79 0 151 84l125 142h-160l-125 -125l-79 80q-25 25 -44.5 35t-56.5 10z" />
    <glyph glyph-name="glyph371" 
 />
    <glyph glyph-name="glyph372" horiz-adv-x="718" 
d="M113 1159h555l-4 -147h-609l4 96q0 51 54 51z" />
    <glyph glyph-name="glyph373" horiz-adv-x="1718" 
 />
    <glyph glyph-name="glyph374" horiz-adv-x="2119" 
 />
    </font>
</defs>
</svg>
