<?xml version="1.0" standalone="no"?>
<!DOCTYPE svg PUBLIC "-//W3C//DTD SVG 1.1//EN" "http://www.w3.org/Graphics/SVG/1.1/DTD/svg11.dtd" >
<svg xmlns="http://www.w3.org/2000/svg" xmlns:xlink="http://www.w3.org/1999/xlink" version="1.1">
<metadata>
Created by FontForge 20170731 at Wed Jun 29 10:16:50 2022
 By Aleksey,,,
All Rights Reserved @SilverStag 2021
</metadata>
<defs>
<font id="LYONCRESTRegular" horiz-adv-x="978" >
  <font-face 
    font-family="LYON-CREST"
    font-weight="400"
    font-stretch="normal"
    units-per-em="2048"
    panose-1="0 0 0 0 0 0 0 0 0 0"
    ascent="1638"
    descent="-410"
    x-height="1020"
    cap-height="1434"
    bbox="-1360 -564.062 3455 2065"
    underline-thickness="102"
    underline-position="-307"
    unicode-range="U+000A-F011"
  />
<missing-glyph horiz-adv-x="1079" 
d="M102 1434h875v-1434h-875v1434zM160 1393l379 -633l381 633h-760zM514 717l-369 614v-1231zM541 674l-379 -631h758zM565 717l371 -621v1239z" />
    <glyph glyph-name=".notdef" horiz-adv-x="1079" 
d="M102 1434h875v-1434h-875v1434zM160 1393l379 -633l381 633h-760zM514 717l-369 614v-1231zM541 674l-379 -631h758zM565 717l371 -621v1239z" />
    <glyph glyph-name=".null" horiz-adv-x="0" 
 />
    <glyph glyph-name=".null" horiz-adv-x="0" 
 />
    <glyph glyph-name="nonmarkingreturn" horiz-adv-x="682" 
 />
    <glyph glyph-name="controlLF" unicode="&#xa;" horiz-adv-x="0" 
 />
    <glyph glyph-name="controlCR" unicode="&#xd;" horiz-adv-x="0" 
 />
    <glyph glyph-name="space" unicode=" " horiz-adv-x="677" 
 />
    <glyph glyph-name="exclam" unicode="!" horiz-adv-x="485" 
d="M168 381l-70 309q-3 18 -9 36l-9 30q-6 17 -9 37q-3 21 -3 43v598h348v-598q0 -23 -4 -42q-6 -26 -9 -38l-9 -30q-6 -18 -9 -36l-70 -309h-147zM78 4v307h332v-307h-332z" />
    <glyph glyph-name="quotedbl" unicode="&#x22;" horiz-adv-x="765" 
d="M119 938l-10 31q0 1 -2 6.5t-4.5 14t-4.5 17.5q-8 31 -18 66q-6 22 -9 34q-3 10 -10 30q-2 8 -6 22q0 5 -1 7t-1 5v263h312v-263l-5 -12q0 -6 -1 -9q-2 -5 -3 -13q-4 -12 -9 -30q-3 -12 -9 -34q-19 -61 -20 -66q-2 -9 -5 -18l-4.5 -13.5t-1.5 -6.5l-8 -31h-180zM467 938
l-10 31q0 1 -2 6.5t-4.5 14t-4.5 17.5q-8 31 -18 66q-6 22 -9 34q-5 18 -9 30q-1 4 -3.5 11.5l-3.5 10.5q0 5 -1 7t-1 5v263h312v-263l-4 -12q-1 -8 -7 -22q-2 -4 -8 -30q-1 -5 -3.5 -16.5t-4.5 -17.5q-2 -8 -19 -66q-3 -9 -5.5 -17.5t-4.5 -14t-2 -6.5l-8 -31h-180z" />
    <glyph glyph-name="numbersign" unicode="#" horiz-adv-x="1372" 
d="M224 4l44 330h-227l39 250h223l37 270h-211l39 252h205l45 328h303l-43 -328h135l45 328h303l-43 -328h211l-39 -252h-206l-37 -270h196l-39 -250h-192l-43 -330h-305l45 330h-137l-43 -330h-305zM606 584h137l37 270h-137z" />
    <glyph glyph-name="dollar" unicode="$" horiz-adv-x="1224" 
d="M82 164l154 362l53 -84q25 -28 61 -47l8 -4q1 -1 7 -4v234q-137 51 -228 159q-85 107 -82 244q-2 134 76 244q74 110 234 157v144h471v-144q4 -1 22 -4.5t29 -5.5q38 -8 57 -14q32 -6 47 -11q36 -12 43 -14q22 -8 37 -16q19 -10 33 -25l14 -18l-10 -23l-57 -114
q-34 -68 -60 -115l-35 -68l-51 60q-4 2 -6 4t-6 4q-3 2 -10 4t-11 4q-3 2 -10 4.5t-10 3.5q-8 0 -16 5v-222q161 -62 248 -175q88 -119 85 -267q0 -71 -19 -137q-21 -69 -59 -121q-42 -57 -104 -96q-72 -44 -151 -62v-137h-471v156q-28 7 -56 15q-12 3 -63 22q-30 10 -46 16
q-22 8 -42 18q-2 1 -15 9.5t-21 13.5q-21 14 -30 31z" />
    <glyph glyph-name="percent" unicode="%" horiz-adv-x="1445" 
d="M427 864q-63 -36 -132 -33q-69 -3 -132 33q-51 31 -83 80t-43 100q-25 96 0 193q11 51 43 100t83 80q62 33 132 33t132 -33q51 -31 83 -80q31 -49 43 -101q10 -40 12 -95q-2 -55 -12 -95q-12 -52 -43 -101q-32 -50 -83 -81zM176 4l885 1430h186l-885 -1430h-186z
M247 1101q3 -25 13 -44q6 -17 20 -29q15 -13 30 0q14 12 20 29q10 19 13 44q6 40 0 80q-3 25 -13 44q-5 15 -20 28t-30 0t-20 -28q-10 -19 -13 -44q-6 -40 0 -80zM954 109q-25 43 -36 99q-11 57 -11 95q0 36 11 91q11 56 38 100q30 49 79 79q61 36 130 33q70 3 131 -32
q51 -31 82 -78q29 -44 42 -100q12 -53 12 -93q-2 -47 -12 -93q-12 -53 -41 -103q-31 -51 -81 -84q-61 -38 -133 -35q-71 -3 -131 37q-47 32 -80 84zM1165 178q9 2 13 6q11 13 18 31q10 21 13 47q3 21 3 41q0 19 -3 39q-3 23 -13 41q-6 16 -18 28q-4 3 -13 5q-6 -2 -9 -4
q-12 -12 -17 -29q-10 -26 -11 -42q-2 -28 -2 -38q0 -9 2 -41q1 -23 11 -47q9 -19 18 -31q1 -1 8 -6z" />
    <glyph glyph-name="ampersand" unicode="&#x26;" horiz-adv-x="1304" 
d="M772 762l295 -66v-49q0 -97 -17 -182q-18 -91 -59 -176q34 -29 80 -29h21q2 0 6 2q33 -16 47 -50q24 -52 33 -79q15 -53 24 -106l-31 -15q-32 -12 -57 -17q-27 -7 -59 -7q-73 -2 -138 22q-59 22 -112 60q-152 -104 -334 -99q-97 -2 -186 33q-75 30 -133 88
q-53 55 -81 127q-28 75 -28 150q0 49 21 99t52 95q33 47 71 86q39 41 79 72q-32 67 -41 140q-8 62 -10 132q0 62 20 122q43 132 167 190q74 33 157 30q78 3 152 -33q60 -31 100 -83q38 -51 55 -111q17 -57 17 -115q0 -42 -21 -86q-18 -39 -52 -83q-64 -79 -140 -138
q15 -20 47 -60q20 -25 47 -61q12 73 8 142v55zM500 256q53 -1 102 27q-54 65 -96 121l-94 122q-23 -27 -35 -61q-12 -33 -12 -70q-3 -57 34 -100q41 -42 101 -39zM517 946q3 -37 11 -63l31 30q41 47 41 72q0 17 -3 34q-4 23 -11 36q-6 13 -17 22q-6 4 -10 4q-21 -2 -31 -16
q-17 -25 -14 -55q0 -30 3 -64z" />
    <glyph glyph-name="quotesingle" unicode="'" horiz-adv-x="417" 
d="M119 938l-10 31q0 2 -1.5 6.5l-4.5 13.5t-5 18q-2 8 -8 30.5t-10 35.5q-6 22 -9 34q-3 10 -10 30q-5 19 -6 22q0 5 -1 7t-1 5v263h312v-263l-5 -12q0 -6 -1 -9t-3 -13q-4 -12 -9 -30q-3 -12 -9 -34q-19 -61 -20 -66q-2 -9 -5 -18l-4.5 -13.5t-1.5 -6.5l-8 -31h-180z" />
    <glyph glyph-name="parenleft" unicode="(" horiz-adv-x="708" 
d="M471 -223l-41 33q-101 83 -173 182q-71 99 -115 206q-43 106 -63 221t-20 228q0 111 19 233q18 113 62 225q45 110 115 211q77 108 175 187l41 33l135 -147l-33 -27q-76 -62 -133 -151q-54 -85 -85 -176q-31 -95 -45 -192q-13 -94 -13 -196q0 -99 13 -190q14 -97 45 -188
q30 -87 85 -172q57 -84 133 -146l33 -27z" />
    <glyph glyph-name="parenright" unicode=")" horiz-adv-x="710" 
d="M238 -223l-136 147l31 27q79 65 135 150q54 84 85 177q32 95 44 192q13 106 13 196q0 93 -14 191q-14 95 -45 185q-30 87 -85 172q-57 87 -133 148l-31 27l136 147l38 -33q101 -81 175 -182q69 -94 115 -206q45 -110 64 -221q19 -110 19 -228q0 -120 -19 -233
q-20 -115 -63 -225q-48 -119 -114 -211q-76 -106 -176 -187z" />
    <glyph glyph-name="asterisk" unicode="*" horiz-adv-x="835" 
d="M102 934l127 129l-182 35l86 256l164 -76l-25 172h289l-22 -172l163 76l86 -256l-182 -35l127 -129l-231 -164l-84 152l-84 -152z" />
    <glyph glyph-name="plus" unicode="+" horiz-adv-x="1163" 
d="M33 408v208h430v404h237v-404h430v-208h-430v-404h-237v404h-430z" />
    <glyph glyph-name="comma" unicode="," horiz-adv-x="428" 
d="M49 -211v191h49q15 0 26 4q12 7 13 20h-88v307h330v-266q0 -55 -13 -106q-12 -45 -47 -80q-39 -37 -87 -52q-65 -20 -134 -18h-49z" />
    <glyph glyph-name="hyphen" unicode="-" horiz-adv-x="628" 
d="M47 391v254h535v-254h-535z" />
    <glyph glyph-name="period" unicode="." horiz-adv-x="428" 
d="M49 4v307h330v-307h-330z" />
    <glyph glyph-name="slash" unicode="/" horiz-adv-x="931" 
d="M102 4l531 1430h197l-531 -1430h-197z" />
    <glyph glyph-name="zero" unicode="0" horiz-adv-x="1265" 
d="M850 22q-108 -37 -217 -34q-109 -3 -217 34q-86 30 -156 91q-65 59 -103 132q-43 80 -62 155q-22 84 -29 164q-9 99 -9 155q0 67 10 150q10 88 32 162q24 81 65 157q41 75 104 134q70 62 154 93q103 36 211 35q108 1 211 -35q83 -30 153 -93q65 -61 105 -134
q39 -72 64 -158q25 -87 33 -163q9 -74 9 -148q0 -77 -7 -154q-7 -83 -30 -162q-23 -81 -62 -157q-39 -75 -103 -133q-70 -61 -156 -91zM445 593q4 -74 28 -149q46 -155 160 -155q113 0 159 155q24 78 28 150q5 87 5 125q0 52 -7 123q-7 75 -30 149q-51 158 -155 158
q-105 0 -156 -158q-23 -74 -30 -149q-7 -71 -7 -123q0 -41 5 -126z" />
    <glyph glyph-name="one" unicode="1" horiz-adv-x="739" 
d="M293 4v895l-244 -244v455l332 323h285v-1429h-373z" />
    <glyph glyph-name="two" unicode="2" horiz-adv-x="1142" 
d="M63 4v41q0 54 3 117q3 58 16 128q12 65 39 127q27 63 75 111q35 35 74 62q33 23 80 49q57 34 113 72q53 36 108 88q46 43 81 98q30 46 32 100q2 61 -33 109q-35 46 -92 43q-58 3 -99 -39q-39 -45 -36 -104q2 -36 16 -65q15 -36 39 -65l29 -36l-330 -162l-26 33
q-53 67 -70 144q-20 73 -21 150q0 93 34 174q33 81 97 142q68 62 156 94q103 36 211 35q113 3 220 -40q89 -37 155 -106q61 -64 92 -150q31 -84 31 -177q0 -75 -30 -141q-29 -65 -78 -125q-53 -63 -109 -106q-68 -52 -125 -85q-66 -35 -124 -80q-51 -40 -79 -96h573v-340
h-1022z" />
    <glyph glyph-name="three" unicode="3" horiz-adv-x="1101" 
d="M53 526h383v-41q0 -31 6 -61q6 -31 23 -61q12 -25 35.5 -40t50.5 -14q46 -2 74 33q29 38 26 88q0 38 -9 76q-7 31 -28 64q-17 26 -46 45q-28 18 -64 18h-160v293h197q41 -2 68 30q29 39 26 84q2 45 -28 79q-30 32 -75 30q-13 0 -24 -8q-15 -12 -23 -31q-9 -19 -14 -48
q-4 -20 -4 -46v-43h-373v43q0 80 27 157q28 82 82 140q60 65 139 99q96 41 199 38q97 2 187 -30q79 -27 141 -82q59 -53 89 -123q32 -76 31 -154q0 -75 -36 -144q-37 -72 -105 -118q100 -64 150 -171q46 -96 48 -206q0 -95 -33 -172q-33 -80 -99 -138q-71 -62 -156 -91
q-101 -35 -207 -33q-117 -3 -225 44q-92 42 -155 114q-60 71 -89 160t-29 179v41z" />
    <glyph glyph-name="four" unicode="4" horiz-adv-x="1128" 
d="M18 365v258l621 811h291v-754h149v-320h-149v-356h-375v356q-164 -2 -245 -2q-107 0 -244 5zM430 680h125v160z" />
    <glyph glyph-name="five" unicode="5" horiz-adv-x="1107" 
d="M59 526h383v-41q0 -31 6 -61q6 -31 23 -61q12 -25 35.5 -40t50.5 -14q53 0 74 47q16 23 21 55t5 56q0 35 -6 69q-6 38 -22 70q-11 26 -34.5 43.5t-51.5 20.5q-2 0 -3 -1t-4 -1q-4 -3 -14 -11q-6 -4 -16 -14q-6 -6 -16.5 -16t-15.5 -15q-6 -6 -13 -12.5t-8 -7.5l-21 -23
l-334 76l45 789h840l-25 -347h-452l-12 -129q50 13 94 13q116 3 218 -48q86 -46 144 -122q57 -75 79 -163q24 -90 24 -171q0 -90 -30 -176q-32 -90 -91 -154q-63 -69 -155 -108q-106 -44 -220 -41q-117 -3 -225 44q-92 42 -155 114q-60 71 -89 160t-29 179v41z" />
    <glyph glyph-name="six" unicode="6" horiz-adv-x="1138" 
d="M762 997l-27 45q-29 49 -67 81q-33 33 -78 36q-44 -2 -70 -37q-37 -52 -51 -116q-6 -20 -9 -43q-4 -28 -7 -43q32 29 65 48q39 23 84 21q119 3 222 -46q88 -43 149 -120q57 -73 84 -162q26 -87 26 -175q0 -94 -30 -183t-94 -159q-68 -75 -157 -113q-110 -46 -227 -43
q-80 -2 -157 21q-65 20 -122 58q-53 36 -90 85q-38 49 -65 104q-27 53 -42 113q-15 61 -24 118q-11 67 -13 114q-3 57 -3 106q0 55 4 106q4 52 14 118q9 61 27 121q17 57 46 118q29 59 67 108q40 52 93 89q57 39 123 60q78 24 157 23q68 0 137 -20q67 -20 122 -52
q52 -29 101 -77q46 -44 76 -93l19 -30zM461 492v-3q4 -22 12 -62q7 -33 25 -69q11 -29 38 -54q16 -15 40 -15q53 0 83 61q17 34 23 70q6 33 6 65q0 34 -8 72q-7 33 -27 70q-14 29 -41.5 45.5t-60.5 15.5q-20 0 -36 -14q-22 -22 -32 -49q-14 -33 -19 -72q-4 -30 -3 -61z" />
    <glyph glyph-name="seven" unicode="7" horiz-adv-x="1019" 
d="M145 4v41q1 140 48 281q47 150 114 295q60 128 127 248q68 120 129 225h-522v340h876v-299q0 -23 -8 -39t-18 -29q-4 -3 -19 -21q-4 -4 -12 -16q-45 -79 -101 -189q-46 -91 -87 -196q-57 -145 -90 -295q-31 -148 -31 -305v-41h-406z" />
    <glyph glyph-name="eight" unicode="8" horiz-adv-x="1126" 
d="M156 697q41 46 90 73q-74 53 -104 135q-27 75 -27 156q0 173 114 281t334 108q219 0 335 -108t116 -281q0 -79 -28 -157q-30 -81 -103 -134q102 -56 146 -162q40 -98 40 -200q0 -204 -132 -312t-374 -108t-374 108t-132 312q0 45 10 102q9 52 30 98q22 48 59 89zM563 289
q53 -5 85 38q29 49 26 105q0 29 -5 64q-4 29 -20 59q-12 24 -35.5 37.5t-50.5 11.5q-31 2 -54 -13q-22 -16 -34 -38q-16 -30 -20 -59q-5 -37 -5 -66q-3 -55 27 -102q34 -42 86 -37zM563 924q98 0 98 114q0 111 -98 111q-96 0 -96 -111q0 -114 96 -114z" />
    <glyph glyph-name="nine" unicode="9" horiz-adv-x="1138" 
d="M94 262l283 178l26 -45q24 -44 66 -81q32 -32 80 -35q44 2 67 36q41 55 54 117q1 7 3.5 21t4.5 22t4.5 22t3.5 21q-30 -28 -66 -48q-41 -22 -85 -22q-118 -3 -223 47q-88 42 -148 119q-57 72 -83 163q-26 87 -26 175q0 94 30 183q29 90 92 159q67 73 159 113
q110 46 227 43q77 1 157 -22q65 -20 122 -57q51 -34 91 -84q37 -47 64 -103q26 -52 42 -114q18 -69 25 -118q9 -61 12 -115q3 -57 3 -106q0 -55 -4 -106q-5 -69 -14 -118q-9 -51 -28 -121q-21 -68 -44 -118q-28 -58 -66 -107q-40 -51 -94 -89q-56 -41 -122 -62
q-75 -24 -158 -22q-71 0 -137 19q-63 19 -123 53q-59 34 -103 76q-42 41 -73 93zM678 946v2q-1 3 -13 63q-10 42 -24 70q-14 30 -38 53q-17 15 -40 15q-53 0 -86 -62q-17 -33 -21 -69q-6 -44 -6 -66q0 -33 8 -71q6 -34 25 -68q17 -30 43 -47q29 -18 62 -16q19 0 35 14
q23 21 32 51q14 31 19 70q4 40 4 61z" />
    <glyph glyph-name="colon" unicode=":" horiz-adv-x="444" 
d="M57 713v307h330v-307h-330zM57 4v307h330v-307h-330z" />
    <glyph glyph-name="semicolon" unicode=";" horiz-adv-x="446" 
d="M57 713v307h330v-307h-330zM57 -211v191h50q14 0 25 4q11 6 13 20h-88v307h330v-266q0 -55 -13 -106q-12 -46 -46 -80q-39 -37 -87 -52q-65 -20 -134 -18h-50z" />
    <glyph glyph-name="less" unicode="&#x3c;" horiz-adv-x="903" 
d="M39 414v200l807 392v-269l-490 -223l490 -227v-266z" />
    <glyph glyph-name="equal" unicode="=" horiz-adv-x="1101" 
d="M53 596v209h996v-209h-996zM53 238v208h996v-208h-996z" />
    <glyph glyph-name="greater" unicode="&#x3e;" horiz-adv-x="903" 
d="M57 21v266l490 227l-490 223v269l807 -392v-200z" />
    <glyph glyph-name="question" unicode="?" horiz-adv-x="1105" 
d="M440 381v41q0 57 1 89q2 52 7 95q5 42 24 95t52 90q25 28 49 47q8 6 17 13t19.5 14.5t15.5 11.5q53 36 94 77q37 38 35 88q3 64 -38 116q-43 51 -110 46q-80 3 -137 -55q-53 -57 -59 -137l-5 -47l-303 53l4 37q7 81 48 158q41 75 104 125q70 55 155 82q97 31 193 30
q99 1 196 -31q80 -27 147 -86q58 -52 93 -130q33 -77 33 -161q1 -57 -17 -114q-16 -49 -49 -95q-29 -40 -76 -80q-41 -35 -95 -75q-10 -6 -28 -20q-12 -9 -22 -19q-35 -41 -38 -96q-4 -30 -6 -62q-1 -20 -1 -57v-43h-303zM428 4v307h330v-307h-330z" />
    <glyph glyph-name="at" unicode="@" horiz-adv-x="2256" 
d="M1866 -100l125 -174l-33 -23q-79 -54 -172 -96q-96 -44 -196 -74q-95 -29 -207 -47q-99 -16 -205 -16q-278 0 -489 86q-199 78 -351 232q-142 147 -212 338q-72 199 -71 402q0 206 70 402q68 191 209 338q146 151 347 232q209 87 484 87q225 3 432 -67q180 -60 326 -189
q133 -120 205 -286q74 -171 72 -359q0 -74 -11 -156q-11 -81 -34 -155q-23 -68 -66 -144q-44 -76 -103 -129q-65 -59 -148 -93q-92 -38 -193 -36q-98 -2 -183 41q-75 39 -124 111q-60 -60 -140 -94q-85 -37 -178 -35q-107 -3 -207 40q-80 36 -140 103q-54 63 -79 145
q-24 80 -24 162q0 107 32 200q33 99 102 179q73 84 174 129q119 52 249 49q63 2 120 -19q54 -19 95 -54l8 53h293l-70 -567q-1 -8 -3 -26q-1 -9 -1 -25q-2 -72 35 -133q38 -59 106 -54q68 0 110 50q53 64 76 143q29 88 38 175q9 89 9 140q2 144 -53 276q-54 128 -154 216
q-110 94 -245 141q-158 54 -326 51q-191 5 -371 -67q-154 -63 -268 -184q-107 -117 -160 -268q-56 -163 -55 -323q-1 -162 56 -324q55 -152 164 -267q118 -121 272 -183q181 -72 375 -67q172 0 340 49q83 24 161 58q74 32 142 77zM1042 256q91 -3 163 45q65 44 75 123
q2 10 4.5 29.5t3.5 28.5q4 27 4 61q3 78 -47 141q-46 55 -139 55q-53 2 -99 -22q-44 -24 -70 -61q-28 -39 -41 -88q-13 -48 -13 -101q0 -41 9 -81q7 -31 29 -66q20 -30 50 -46q36 -19 71 -18z" />
    <glyph glyph-name="A" unicode="A" horiz-adv-x="1361" 
d="M878 1434l501 -1430h-389l-71 205l-457 2l-74 -207h-408l529 1378l-16 52h385zM568 498h250l-123 352z" />
    <glyph glyph-name="B" unicode="B" horiz-adv-x="1257" 
d="M72 4v1430h508q106 1 221 -19q90 -15 167 -62q69 -45 105 -121q40 -91 37 -194q0 -77 -30 -154q-33 -81 -95 -136q108 -34 185 -118q74 -83 71 -196q3 -101 -32 -198q-32 -84 -98 -134q-73 -54 -166 -74q-115 -26 -234 -24h-639zM444 825h80q97 0 151 54q55 57 52 139
q0 71 -28 99t-109 28h-146v-320zM444 295h189q48 -1 100 8q36 6 66 28q26 21 36 52q12 42 11 82q-2 21 -20 33q-29 21 -68 30q-54 12 -95 16q-55 5 -79 5h-7q-31 5 -63 3q-23 -1 -70 -1v-256z" />
    <glyph glyph-name="C" unicode="C" horiz-adv-x="1247" 
d="M1050 422l198 -237q-142 -133 -327.5 -178t-369.5 6t-321 189t-188 322t-5.5 369.5t179.5 326.5t316.5 197.5t369.5 16.5t332 -169l-199 -238q-119 91 -267 91q-182 0 -291 -109t-109 -291t109 -291t291 -109q159 0 282 104z" />
    <glyph glyph-name="D" unicode="D" horiz-adv-x="1306" 
d="M72 4v1430h462q205 0 349 -55q132 -49 229 -150q90 -99 127 -228q41 -138 39 -282q0 -137 -30 -271q-28 -129 -107 -229q-84 -103 -211 -156q-135 -59 -340 -59h-518zM445 1145l-1 -850h127q86 -3 160 36q60 35 95 95q36 66 45 135q12 78 12 158q0 81 -15 161
q-12 71 -52 136q-39 61 -103 94q-79 38 -166 35h-102z" />
    <glyph glyph-name="E" unicode="E" horiz-adv-x="1120" 
d="M72 4v1430h983v-301h-611v-330h574v-291h-574v-207h639v-301h-1011z" />
    <glyph glyph-name="F" unicode="F" horiz-adv-x="1071" 
d="M72 4v1430h983v-301h-611v-330h555v-291h-555v-508h-372z" />
    <glyph glyph-name="G" unicode="G" horiz-adv-x="1294" 
d="M1248 185q-142 -133 -327.5 -178t-369.5 6t-321 189t-188 322t-5.5 369.5t179.5 326.5t316.5 197.5t369.5 16.5t332 -169l-199 -238q-119 91 -267 91q-182 0 -291 -109t-109 -291t109 -291t291 -109q87 0 165 33v190h-356v301h671v-657z" />
    <glyph glyph-name="H" unicode="H" horiz-adv-x="1341" 
d="M72 4v1430h372v-625h453v625h373v-1430h-373v504h-453v-504h-372z" />
    <glyph glyph-name="I" unicode="I" horiz-adv-x="516" 
d="M72 4v1430h372v-1430h-372z" />
    <glyph glyph-name="J" unicode="J" horiz-adv-x="952" 
d="M2 580l373 65v-51q0 -12 -2 -80q-2 -55 8 -102q5 -41 27 -74q13 -20 36 -18q38 0 54 32q11 21 14 42q4 20 4 46v994h373v-994q0 -82 -23 -163q-22 -83 -77.5 -149t-134.5 -100q-98 -43 -210 -40q-111 -3 -217 35q-80 30 -136 95q-51 61 -69 141q-20 86 -20 171v150z" />
    <glyph glyph-name="K" unicode="K" horiz-adv-x="1257" 
d="M72 4v1430h372v-441q26 32 85.5 102.5t90.5 108.5q66 79 177 211l14 19h451l-58 -66q-66 -74 -194 -220q-70 -80 -195 -220l422 -856l33 -68h-426l-291 627l-109 -123v-504h-372z" />
    <glyph glyph-name="L" unicode="L" 
d="M72 4v1430h372v-1129h545v-301h-917z" />
    <glyph glyph-name="M" unicode="M" horiz-adv-x="1583" 
d="M72 4v1430h506l210 -756l205 756h518v-1430h-364v703l-193 -703h-323l-197 682v-682h-362z" />
    <glyph glyph-name="N" unicode="N" horiz-adv-x="1280" 
d="M72 4v1430h383l381 -777v777h372v-1430h-461l-303 619v-619h-372z" />
    <glyph glyph-name="O" unicode="O" horiz-adv-x="1396" 
d="M1014 56q-127 -68 -316 -68q-186 0 -313 68q-124 63 -210 174q-82 106 -117 236q-35 125 -35 253q0 79 13 153q14 79 42 150q37 88 91 161q54 74 135 136q81 60 177 95q105 38 217 36q113 2 218 -36q97 -33 178 -95q153 -117 225 -297q57 -144 57 -303q-2 -130 -36 -253
q-36 -132 -116 -236q-86 -111 -210 -174zM479 436q31 -63 88 -107q59 -40 131 -40t131 40q57 44 88 107q37 72 50 145q12 63 14 138q0 47 -6 94q-6 45 -23 94q-17 50 -37 88q-23 43 -54 77q-32 34 -73 55q-44 22 -90 22q-49 0 -89 -22q-42 -23 -72 -55q-34 -35 -56 -77
q-20 -38 -37 -88q-26 -88 -26 -188q0 -63 13 -138q14 -79 48 -145z" />
    <glyph glyph-name="P" unicode="P" horiz-adv-x="1062" 
d="M72 4v1430h407q118 1 236 -26q95 -20 181 -80q76 -55 116 -139q44 -96 41 -202q1 -106 -34 -211q-32 -93 -104 -162q-76 -72 -178 -104q-128 -40 -258 -37h-35v-469h-372zM444 1145v-383h47q108 0 148 62q45 78 41 165q0 84 -53 120t-158 36h-25z" />
    <glyph glyph-name="Q" unicode="Q" horiz-adv-x="1400" 
d="M1006 -182l-119 194q-91 -24 -189 -24q-186 0 -313 68q-122 63 -210 175q-82 107 -117 235q-33 119 -35 253q0 69 11 143q12 74 38 144q36 91 89 165q58 82 135 143q176 139 402 136q114 2 225 -37q100 -35 180 -99q155 -122 222 -308q51 -138 51 -287q0 -69 -11 -144
q-12 -75 -36 -147q-27 -76 -65 -138q-43 -69 -101 -124l97 -158zM643 412l254 192l55 -90q17 52 23 101q6 51 6 104q0 86 -23 170q-14 53 -35 94q-22 45 -57 84q-32 36 -74 59q-44 22 -94 22t-93 -22q-44 -24 -75 -59q-32 -37 -56 -84q-23 -46 -36 -94q-20 -80 -20 -170
q0 -63 13 -138q14 -79 48 -145q31 -63 88 -107q61 -43 131 -40h21z" />
    <glyph glyph-name="R" unicode="R" horiz-adv-x="1146" 
d="M72 4v1430h407q118 1 236 -26q95 -20 181 -80q76 -55 116 -139q44 -96 41 -202q0 -63 -14 -130q-14 -65 -45 -121q-33 -59 -85 -103q-61 -52 -131 -78l373 -551h-428l-279 408v-408h-372zM444 795h46q103 0 147 50q43 49 43 142q0 86 -53 122t-158 36h-25v-350z" />
    <glyph glyph-name="S" unicode="S" horiz-adv-x="1161" 
d="M1101 611q41 -94 38 -189q1 -89 -33 -178q-33 -81 -96 -137q-70 -61 -158 -88q-102 -33 -215 -31q-61 0 -130 8q-84 9 -157 25q-65 14 -152 45q-66 22 -118 63q-10 7 -18 18l-11 17l154 341l53 -63q20 -22 51 -41q68 -40 156 -68q87 -28 172 -28q129 0 129 109
q0 57 -72 96q-37 19 -77 31q-36 10 -86 22q-96 20 -195 58q-85 32 -161 91q-69 55 -109 131q-44 88 -41 181q-2 89 33 170q33 77 98 134q68 59 154 89q99 35 204 33q44 0 88 -3q58 -4 88 -7q2 0 78 -11q50 -7 111 -20q40 -8 58 -13q7 -2 52 -16q22 -6 45 -17q22 -11 39 -28
l15 -18l-11 -21q-19 -40 -57 -116l-94 -163l-33 23q-53 37 -122 55l-1 1q-35 9 -80 16q-44 7 -59 10q-29 5 -58 6q-40 2 -59 2q-44 3 -80 -21q-28 -20 -28 -56q0 -54 67 -88q35 -19 76 -30q20 -6 82 -22q105 -23 204 -63q86 -35 160 -98q68 -59 106 -141z" />
    <glyph glyph-name="T" unicode="T" horiz-adv-x="1083" 
d="M354 4v1129h-366v301h1108v-301h-367v-1129h-375z" />
    <glyph glyph-name="U" unicode="U" horiz-adv-x="1257" 
d="M55 1434h373v-824q0 -48 8 -104q8 -52 31 -96q21 -41 60 -66q47 -27 102 -24q55 -3 100 24q37 25 59 66q24 48 31 96q8 56 8 104v824h375v-871q0 -111 -29 -219q-28 -104 -95 -183q-73 -84 -176 -126q-132 -52 -273 -47q-143 -5 -275 47q-101 40 -173 121.5t-98 187.5
q-28 106 -28 219v871z" />
    <glyph glyph-name="V" unicode="V" horiz-adv-x="1216" 
d="M821 1434h411l-453 -1430h-340l-457 1430h401l222 -789z" />
    <glyph glyph-name="W" unicode="W" horiz-adv-x="1609" 
d="M1203 1434h409l-311 -1430h-348l-151 637l-158 -637h-348l-300 1430h406l101 -551l127 551h346l133 -549z" />
    <glyph glyph-name="X" unicode="X" horiz-adv-x="1210" 
d="M-18 4l444 727q-59 108 -175 322q-46 85 -175 321l-33 60h352l217 -400l244 400h375l-37 -62l-406 -663l351 -645l32 -60h-350l-12 25q-54 95 -103 188q-44 84 -104 189l-244 -402h-376z" />
    <glyph glyph-name="Y" unicode="Y" horiz-adv-x="1153" 
d="M1181 1434l-410 -805l2 -625h-375l2 627l-429 803h352l262 -469l264 469h332z" />
    <glyph glyph-name="Z" unicode="Z" horiz-adv-x="1132" 
d="M20 4v270l617 859h-590v301h1061v-271l-617 -858h617v-301h-1088z" />
    <glyph glyph-name="bracketleft" unicode="[" horiz-adv-x="616" 
d="M72 -203v1637h442v-201h-205v-1235h205v-201h-442z" />
    <glyph glyph-name="backslash" unicode="\" horiz-adv-x="972" 
d="M672 4l-570 1430h199l569 -1430h-198z" />
    <glyph glyph-name="bracketright" unicode="]" horiz-adv-x="616" 
d="M102 -203v201h205v1235h-205v201h443v-1637h-443z" />
    <glyph glyph-name="asciicircum" unicode="^" horiz-adv-x="837" 
d="M35 1081l245 353h273l250 -353h-312l-14 21q-9 11 -17 25q-8 12 -26 34q-4 2 -5 4t-5 6l-84 -90h-305z" />
    <glyph glyph-name="underscore" unicode="_" horiz-adv-x="1259" 
d="M72 -238v209h1116v-209h-1116z" />
    <glyph glyph-name="grave" unicode="`" horiz-adv-x="569" 
d="M240 1081l-209 353h397l98 -353h-286z" />
    <glyph glyph-name="a" unicode="a" 
d="M903 240l52 2v-238h-122q-25 0 -71 2q-48 5 -92 12q-45 8 -74 41q-52 -41 -114 -56q-66 -15 -134 -15q-169 0 -247 81q-83 89 -78 209q-2 56 24 106q23 45 66 80q45 36 95 55q59 23 112 30q43 5 82 12q15 3 43 9q10 2 41 14q73 27 73 71v82q2 22 -19 34q-34 14 -71 11
q-13 0 -53 -2h-1q-54 -5 -94 -36l-65 -48l-197 195l11 20q10 23 30 39q25 20 52 33q36 16 55 21q43 11 55 14q50 9 116 14q51 4 91 4q98 3 190 -30q70 -25 120.5 -80t70.5 -127q20 -70 20 -150v-409h33zM555 332q2 14 2 22q-19 -7 -47 -11q-32 -4 -47 -7q-3 -1 -44 -8
q-25 -4 -48 -15q-20 -7 -31 -17q-6 -8 -6 -9q-3 -36 19 -58q29 -19 61 -16q47 -3 89 22q36 30 46 72q4 11 6 25z" />
    <glyph glyph-name="b" unicode="b" horiz-adv-x="1026" 
d="M66 4v1430h311v-455q96 60 213 57q127 0 206 -58q75 -54 121 -138q44 -83 61 -168q15 -74 17 -160q-2 -86 -17 -160q-16 -86 -61 -166q-45 -83 -121 -139q-78 -59 -206 -59q-114 -3 -213 57v-41h-311zM383 425q6 -50 22 -93q37 -90 115 -90q72 0 111 92q20 42 26 94
q12 84 0 168q-6 48 -26 96q-39 90 -111 90q-78 0 -115 -88q-16 -42 -22 -94q-6 -44 -6 -88t6 -87z" />
    <glyph glyph-name="c" unicode="c" horiz-adv-x="980" 
d="M782 379l186 -225q-110 -128 -272.5 -170t-320.5 16q-158 59 -254 197t-96 306t96 306.5t253 196.5q157 59 320 17t273 -169l-177 -217q-38 52 -96 81t-123 29q-113 0 -173.5 -60.5t-60.5 -173.5t60.5 -173.5t173.5 -60.5q128 0 211 100z" />
    <glyph glyph-name="d" unicode="d" horiz-adv-x="1030" 
d="M651 4v51q-44 -30 -96 -49q-57 -20 -119 -18q-113 -5 -205 57q-77 54 -123 139q-45 83 -61 172q-14 74 -16 156q2 82 16 156q16 89 61 172q46 85 123 139q92 62 205 57q60 2 119 -17q54 -17 96 -48v463h314v-1430h-314zM395 334q41 -92 113 -92t111 92q17 42 25 94
q15 84 0 168q-8 52 -25 94q-39 92 -111 92q-74 0 -113 -90q-19 -40 -27 -95q-8 -56 -8 -85q0 -28 8 -84q8 -54 27 -94z" />
    <glyph glyph-name="e" unicode="e" horiz-adv-x="1118" 
d="M1098 513v-97h-778q28 -66 84.5 -110t127.5 -54t138 15.5t113 81.5l186 -186q-127 -148 -319.5 -180t-360.5 67t-233 282t2 366q44 120 136.5 206.5t213.5 122.5t247 14q192 -34 317.5 -183.5t125.5 -344.5zM571 795q-76 0 -141 -39t-100 -106h483q-35 67 -100.5 106
t-141.5 39z" />
    <glyph glyph-name="f" unicode="f" horiz-adv-x="643" 
d="M141 4v772h-125v244h125v113q0 62 11 114q11 54 44 96q36 44 92 66q76 28 152 25h197v-254h-109q-10 0 -15 1t-15 1q-19 2 -35 -7q-8 -8 -8 -42v-113h182v-244h-182v-772h-314z" />
    <glyph glyph-name="g" unicode="g" horiz-adv-x="1015" 
d="M51 -229l183 208l42 -20q12 -14 34 -23q30 -13 58 -21q35 -10 65 -15q29 -6 59 -6q76 0 111 39q39 50 34 112v21q-43 -30 -93 -45q-56 -17 -112 -17q-131 0 -211 53q-76 49 -121 132q-41 78 -53 162q-12 79 -12 161q0 79 11 165q11 87 52 167q42 82 120 136q78 56 214 56
q62 0 113 -17q52 -17 92 -46v47h313v-887q0 -83 -17 -170q-16 -84 -66 -159q-54 -76 -134 -116q-85 -46 -223 -46q-25 0 -73 2q-35 1 -70 6q-7 1 -28.5 4.5t-35.5 6.5q-58 11 -84 17q-8 2 -23.5 7t-20.5 6q-25 7 -40 14q-17 7 -36 18q-18 9 -31 27zM391 340q12 -36 43 -61
q32 -22 68 -21q65 0 104 86q19 45 25 88q6 39 6 80q0 42 -6 83q-5 44 -25 95q-39 92 -104 92q-78 0 -111 -88q-17 -45 -21 -93q-5 -50 -5 -89q0 -38 5 -85q4 -45 21 -87z" />
    <glyph glyph-name="h" unicode="h" horiz-adv-x="933" 
d="M66 4v1430h311v-459q87 57 192 55q105 0 166 -49q61 -48 92 -115q28 -62 39 -133q11 -75 11 -123v-606h-312v606q0 24 -5 54q-4 27 -15 51q-8 20 -25 34q-15 9 -32 9q-51 3 -82 -39q-31 -44 -29 -99v-616h-311z" />
    <glyph glyph-name="i" unicode="i" horiz-adv-x="446" 
d="M57 1081v308h330v-308h-330zM66 4v1016h313v-1016h-313z" />
    <glyph glyph-name="j" unicode="j" horiz-adv-x="444" 
d="M-67 -301l-1 254h91q10 -1 24 4q7 6 10 12q6 12 6 33q3 21 3 22v996h311v-975q0 -27 -2 -83q-2 -43 -12 -83q-23 -104 -98 -143q-86 -40 -185 -37h-147zM55 1081v307h332v-307h-332z" />
    <glyph glyph-name="k" unicode="k" horiz-adv-x="946" 
d="M66 4v1430h311v-648l90 108q60 72 90 109l14 17h367l-307 -346l144 -306q109 -232 143 -307l26 -57h-358l-174 422l-35 -41v-381h-311z" />
    <glyph glyph-name="l" unicode="l" horiz-adv-x="444" 
d="M66 4v1430h311v-1430h-311z" />
    <glyph glyph-name="m" unicode="m" horiz-adv-x="1402" 
d="M66 4v1016h311v-41q83 53 182 51q74 3 136 -35q53 -33 87 -84q47 57 109 86q72 35 154 33q103 0 164 -50q60 -49 90 -116q28 -61 37 -132q10 -67 10 -122v-606h-312v606q0 30 -4 53q-3 25 -14 52q-8 21 -24 34q-14 9 -29 9q-52 3 -80 -41q-30 -51 -27 -107v-606h-311v606
q0 29 -4 52q-5 28 -15 53q-6 22 -22 35q-13 8 -27 8q-48 2 -74 -39q-28 -42 -26 -99v-616h-311z" />
    <glyph glyph-name="n" unicode="n" horiz-adv-x="931" 
d="M66 4v1016h311v-45q87 57 192 55q105 0 166 -49q61 -48 92 -115q28 -62 39 -133q11 -75 11 -123v-606h-312v606q0 24 -5 54q-4 27 -15 51q-8 20 -25 34q-15 9 -33 9q-51 3 -82 -39q-30 -43 -28 -99v-616h-311z" />
    <glyph glyph-name="o" unicode="o" horiz-adv-x="1011" 
d="M741 36q-91 -48 -235 -48t-236 48q-89 44 -145 125q-54 77 -74 170q-20 91 -20 181q0 91 20 183t74 169q59 81 145 124q91 48 236 48q144 0 235 -48q90 -45 146 -125q54 -78 73 -169q41 -181 0 -363q-20 -95 -73 -170q-56 -80 -146 -125zM389 322q37 -99 117 -99
q78 0 115 99q19 50 23 99q5 58 5 91q0 34 -5 92q-5 52 -23 101q-37 96 -115 96q-81 0 -117 -96q-18 -49 -23 -101q-6 -72 -6 -92q0 -21 6 -91q4 -49 23 -99z" />
    <glyph glyph-name="p" unicode="p" horiz-adv-x="1026" 
d="M66 -274v1294h311v-41q96 60 213 57q127 0 206 -58q75 -54 121 -138q44 -83 61 -168q15 -74 17 -160q-2 -86 -17 -160q-16 -86 -61 -166q-45 -83 -121 -139q-78 -59 -206 -59q-114 -3 -213 57v-319h-311zM383 425q6 -50 22 -93q37 -90 115 -90q72 0 111 92q20 42 26 94
q12 84 0 168q-6 48 -26 96q-39 90 -111 90q-78 0 -115 -88q-16 -42 -22 -94q-6 -44 -6 -88t6 -87z" />
    <glyph glyph-name="q" unicode="q" horiz-adv-x="1030" 
d="M651 -274v329q-44 -30 -96 -49q-57 -20 -119 -18q-113 -5 -205 57q-77 54 -123 139q-45 83 -61 172q-14 74 -16 156q2 82 16 156q16 89 61 172q46 85 123 139q92 62 205 57q60 2 119 -17q54 -17 96 -48v49h314v-1294h-314zM368 428q8 -54 27 -94q41 -92 113 -92t111 92
q17 42 25 94q15 84 0 168q-8 52 -25 94q-39 92 -111 92q-74 0 -113 -90q-19 -40 -27 -95q-7 -49 -7 -85q0 -35 7 -84z" />
    <glyph glyph-name="r" unicode="r" horiz-adv-x="630" 
d="M66 4v1016h311v-53q90 58 198 53h50v-307h-86q-43 3 -81 -21q-32 -22 -48 -57q-21 -40 -27 -86q-6 -45 -6 -90v-455h-311z" />
    <glyph glyph-name="s" unicode="s" horiz-adv-x="913" 
d="M855 438q36 -63 34 -135q2 -73 -36 -135q-37 -59 -94 -95q-62 -40 -134 -56q-79 -19 -154 -19q-67 0 -135 6q-4 0 -23.5 2.5t-35.5 4.5q-12 1 -91 14q-48 10 -88 22q-17 7 -19 8q-12 4 -18 7t-18 11q-11 8 -16 17l-13 21l159 223l79 -47q28 -13 47 -19q40 -11 54 -13
q7 -1 20.5 -3.5t17.5 -3.5q39 -6 80 -6q21 0 42 3q20 3 38 9q27 15 27 29q-3 43 -43 61q-20 11 -52 22q-29 9 -57 15q-78 18 -140 44q-62 25 -116 70q-51 44 -78 99q-30 61 -28 131q-2 70 30 130q31 57 85 95q57 40 125 60q70 20 151 20q40 0 83 -4q55 -5 98 -13
q41 -7 97 -25q43 -14 80 -36q5 -5 11 -8q10 -7 14 -14l12 -18l-160 -203l-40 26q-39 25 -84 39h-1q-54 14 -58 15q-26 6 -52 6q-35 3 -68 -16q-22 -13 -22 -38q0 -40 37 -60q45 -27 98 -36q77 -16 141 -41q72 -28 125 -67q52 -37 89 -99z" />
    <glyph glyph-name="t" unicode="t" horiz-adv-x="655" 
d="M623 4h-244q-43 0 -85 6q-33 4 -71 23q-30 16 -51 46q-23 35 -29 77q-5 34 -7 74q-1 25 -1 77v469h-121v244h121v219l314 252v-471h174v-244h-174v-504q0 -8 2 -10v-4q12 -3 22 -2h150v-252z" />
    <glyph glyph-name="u" unicode="u" horiz-adv-x="933" 
d="M557 4v43q-38 -29 -80 -43q-47 -16 -100 -16q-115 0 -180 43q-66 43 -99 108q-29 64 -35 133q-6 72 -6 134v614h312v-614q0 -20 2 -58q1 -27 12 -51q6 -19 22.5 -30t36.5 -9q26 -2 49 11.5t35 37.5q19 29 24 55q7 27 7 60v598h311v-1016h-311z" />
    <glyph glyph-name="v" unicode="v" horiz-adv-x="931" 
d="M597 1020h338l-324 -1016h-307l-308 1016h331l133 -500z" />
    <glyph glyph-name="w" unicode="w" horiz-adv-x="1378" 
d="M1051 1020h329l-284 -1016h-291l-117 436l-115 -436h-292l-283 1016h326l110 -492l121 492h266l121 -490z" />
    <glyph glyph-name="x" unicode="x" horiz-adv-x="1134" 
d="M772 576l373 -572h-361l-204 307l-226 -307h-368l415 580l-286 436h362l115 -170l129 170h369z" />
    <glyph glyph-name="y" unicode="y" horiz-adv-x="923" 
d="M578 1020h349l-361 -1135q-19 -61 -47 -108q-27 -46 -66 -75q-44 -32 -99 -43q-68 -15 -142 -13h-143v262h137q23 0 31 1q19 3 20 3q14 6 24 16q18 23 25 56l6 26l-316 1010h333l125 -490z" />
    <glyph glyph-name="z" unicode="z" horiz-adv-x="849" 
d="M414 250h413v-246h-802v150l372 622h-346v244h746v-148q0 -10 -1 -15q-1 -4 -1 -13z" />
    <glyph glyph-name="braceleft" unicode="{" horiz-adv-x="684" 
d="M582 -203h-158q-60 -2 -115 23q-46 21 -78 58q-30 34 -44 80q-13 40 -13 87v422q3 26 -18 44q-30 16 -62 13h-49v183h49q34 -3 62 14q20 17 18 45v422q0 45 13 85q14 46 44 80q32 37 78 58q55 25 115 23h158v-201h-50q-23 0 -35 1t-34 1q-17 1 -37 -2q-6 -1 -6 -4
q-5 -6 -6 -13q-2 -9 -2 -28v-395q0 -19 -4 -55q-4 -30 -17 -60q-6 -18 -15 -32t-24 -29q27 -29 39 -64q13 -30 17 -59q4 -24 4 -56v-393q-3 -22 8 -41q0 -4 6 -4q6 -3 12 -3q8 -1 25 -1q22 0 34 1t35 1h50v-201z" />
    <glyph glyph-name="verticalbar" unicode="|" horiz-adv-x="380" 
d="M72 -444v1968h237v-1968h-237z" />
    <glyph glyph-name="braceright" unicode="}" horiz-adv-x="589" 
d="M6 -203v201h49q26 0 37 -1t33 -1q17 0 25 1q6 0 12 3q6 0 6 4q11 19 8 41v393q0 32 4 56q4 29 17 59q11 34 39 63q-14 14 -24 30q-9 14 -15 32q-13 30 -17 60q-4 24 -4 55v395q0 18 -2 27q-2 8 -6 14q0 3 -6 4q-20 3 -37 2q-22 0 -33 -1t-37 -1h-49v201h158q60 2 115 -23
q44 -21 77 -58q30 -34 44 -80q14 -44 14 -85v-422q-2 -28 18 -45q30 -18 62 -15h49v-182h-49q-32 3 -62 -13q-21 -18 -18 -44v-422q0 -43 -14 -87q-14 -46 -44 -80q-33 -37 -77 -58q-55 -25 -115 -23h-158z" />
    <glyph glyph-name="asciitilde" unicode="~" horiz-adv-x="759" 
d="M47 471v41q0 44 6 88q6 53 29 102q24 53 67 94q53 49 125 44h46l1 -9q31 -11 54 -25q24 -14 43 -32q10 -8 18 -15l16 -16q3 24 3 25v55h258v-41q0 -30 -8 -88t-29 -102q-23 -53 -66 -93q-53 -49 -125 -44h-47v8q-26 7 -45 24q-15 11 -31 27q-5 5 -13.5 14t-12.5 13
q-8 10 -12 14q-8 8 -11 12l-6 6q-4 -16 -4 -37v-65h-256z" />
    <glyph glyph-name="nonbreakingspace" unicode="&#xa0;" horiz-adv-x="677" 
 />
    <glyph glyph-name="exclamdown" unicode="&#xa1;" horiz-adv-x="485" 
d="M68 4v598q-2 41 12 80q1 2 4 13.5t5 17.5q6 16 9 35l70 309h147l70 -309q3 -19 9 -35q1 -4 4.5 -14.5l5.5 -16.5t4.5 -19t3.5 -17q4 -19 4 -44v-598h-348zM78 1126v308h332v-308h-332z" />
    <glyph glyph-name="cent" unicode="&#xa2;" horiz-adv-x="1007" 
d="M445 -131l-1 129q-101 13 -190 71q-73 49 -120 123q-44 70 -62 154q-38 166 0 332q18 84 62 156q47 74 120 123q89 58 190 71v127h240v-123q10 -2 29.5 -4.5t28.5 -3.5q35 -5 59 -14q38 -9 82 -33q41 -23 65 -62l10 -18l-10 -18q-11 -17 -30.5 -49t-24.5 -40
q-24 -39 -55 -86l-43 -67l-45 67q-27 41 -66 64v-506q17 7 39 22q17 12 25 25l41 82l170 -272l-11 -19q-20 -44 -65 -59q-49 -19 -88 -29q-31 -8 -58 -11q-35 -4 -55 -7v-125h-237zM444 291v450q-21 -25 -34 -61q-18 -43 -22 -85q-5 -47 -5 -83q0 -35 5 -80q4 -40 22 -82
q12 -32 34 -59z" />
    <glyph glyph-name="guillemotleft" unicode="&#xab;" horiz-adv-x="923" 
d="M283 94l-244 418l244 420h297l-246 -420l246 -418h-297zM586 94l-244 418l244 420h297l-246 -420l246 -418h-297z" />
    <glyph glyph-name="logicalnot" unicode="&#xac;" horiz-adv-x="913" 
d="M47 391v254h811v-522h-311v268h-500z" />
    <glyph glyph-name="softhyphen" unicode="&#xad;" horiz-adv-x="0" 
 />
    <glyph glyph-name="acute" unicode="&#xb4;" horiz-adv-x="571" 
d="M43 1081l100 353h398l-209 -353h-289z" />
    <glyph glyph-name="periodcentered" unicode="&#xb7;" horiz-adv-x="428" 
d="M49 360v308h330v-308h-330z" />
    <glyph glyph-name="guillemotright" unicode="&#xbb;" horiz-adv-x="923" 
d="M39 94l244 418l-244 420h295l246 -420l-246 -418h-295zM342 94l246 418l-246 420h297l244 -420l-244 -418h-297z" />
    <glyph glyph-name="questiondown" unicode="&#xbf;" horiz-adv-x="1105" 
d="M700 473l303 -53l-2 -35q-8 -84 -47 -160q-40 -76 -105 -126q-70 -55 -155 -82q-96 -30 -194 -29q-101 -2 -196 30q-80 27 -147 86q-59 54 -92 131q-32 78 -32 160q-1 59 17 117q15 48 49 94q32 44 76 80q33 28 95 74q34 24 50 39q32 43 38 96q5 33 5 62v100h303v-130
q0 -39 -7 -95q-11 -60 -24 -96q-17 -50 -51 -89q-25 -28 -49 -47q-27 -21 -54 -39q-51 -36 -92 -78q-37 -38 -35 -88q-3 -62 37 -115q44 -52 109 -47q81 -5 138 57q52 58 58 136zM348 1126v308h332v-308h-332z" />
    <glyph glyph-name="Agrave" unicode="&#xc0;" horiz-adv-x="1345" 
d="M-18 4l12 51q4 8 4 13l494 1314l-17 52h385l485 -1368q5 -10 5 -13l12 -49h-389l-10 31q-11 29 -31 87t-31 87l-457 2q-5 -14 -31 -89q-10 -29 -32 -87l-10 -31h-389zM557 1493l-211 352h397l101 -352h-287zM549 498h252l-123 352q-56 -151 -65 -175q-4 -11 -27.5 -76.5
t-36.5 -100.5z" />
    <glyph glyph-name="Aacute" unicode="&#xc1;" horiz-adv-x="1345" 
d="M-18 4l12 51q4 8 4 13l494 1314l-17 52h385l485 -1368q3 -7 5 -13l12 -49h-389l-10 31q-11 29 -31 87t-31 87l-457 2q-5 -14 -31 -89q-10 -29 -32 -87l-10 -31h-389zM524 1493l99 352h397l-209 -352h-287zM549 498h252l-123 352q-56 -151 -65 -175q-4 -11 -27.5 -76.5
t-36.5 -100.5z" />
    <glyph glyph-name="Acircumflex" unicode="&#xc2;" horiz-adv-x="1345" 
d="M-18 4l12 51q4 8 4 13l494 1314l-17 52h385l485 -1368q3 -7 5 -13l12 -49h-389l-10 31q-11 29 -31 87t-31 87l-457 2q-5 -14 -31 -89q-10 -29 -32 -87l-10 -31h-389zM301 1493l246 352h272l246 -352h-309l-15 22q-5 7 -17 25q-16 21 -26 33q-2 4 -8 10l-84 -90h-305z
M549 498h252l-123 352q-56 -151 -65 -175q-4 -11 -27.5 -76.5t-36.5 -100.5z" />
    <glyph glyph-name="Atilde" unicode="&#xc3;" horiz-adv-x="1345" 
d="M-18 4l12 51q4 8 4 13l493 1314l-16 52h385l485 -1368q3 -7 5 -13l12 -49h-389l-10 31q-11 29 -31 87t-31 87l-457 2q-5 -14 -31 -89q-10 -29 -32 -87l-10 -31h-389zM350 1493v43q0 36 7 87q7 53 30 103q11 26 27 48q16 23 39 43q25 22 54 32q35 12 71 12h47v-6
q28 -10 53 -25q21 -13 45 -32q3 -3 8.5 -8t8.5 -7l18 -18q2 16 2 25v55h256v-41q0 -36 -7 -87q-7 -53 -30 -103q-11 -26 -27 -48q-16 -23 -39 -43q-25 -20 -53 -32q-35 -14 -72 -12h-45l-2 8q-23 9 -43 22q-5 4 -31 27q-10 9 -28 29q-6 8 -10 12l-12 12q-5 5 -5 6
q-3 -12 -5 -38q-1 -12 -1 -21v-43h-256zM549 498h252l-123 352q-56 -151 -65 -175q-4 -11 -27.5 -76.5t-36.5 -100.5z" />
    <glyph glyph-name="Adieresis" unicode="&#xc4;" horiz-adv-x="1345" 
d="M-18 4l12 51q4 8 4 13l493 1314l-16 52h385l485 -1368q3 -7 5 -13l12 -49h-389l-10 31q-11 29 -31 87t-31 87l-457 2q-5 -14 -31 -89q-10 -29 -32 -87l-10 -31h-389zM375 1493v309h616v-309h-616zM549 498h252l-123 352q-56 -151 -65 -175q-4 -11 -27.5 -76.5
t-36.5 -100.5z" />
    <glyph glyph-name="Aring" unicode="&#xc5;" horiz-adv-x="1345" 
d="M-18 4l12 51q4 8 4 13l494 1314l-17 52h385l485 -1368q3 -7 5 -13l12 -49h-389l-10 31q-11 29 -31 87t-31 87l-457 2q-5 -14 -31 -89q-10 -29 -32 -87l-10 -31h-389zM486 1615q-11 38 -11 72q0 37 12 72q12 33 37 62q26 27 65 42q46 18 95 17q108 0 158 -59
q49 -57 49 -134q0 -40 -11 -73q-10 -33 -36 -62q-26 -27 -64 -43q-45 -18 -96 -16q-52 -2 -97 16q-38 14 -65 43q-26 29 -36 63zM549 498h252l-123 352q-56 -151 -65 -175q-4 -11 -27.5 -76.5t-36.5 -100.5zM684 1675v-4q2 0 2 17q0 7 -1 11q-1 2 -1 5q-3 -8 -2 -16
q0 -9 2 -13z" />
    <glyph glyph-name="Ccedilla" unicode="&#xc7;" horiz-adv-x="1251" 
d="M430 -276l96 77q-28 12 -47 39q-11 14 -8 35l39 146q-123 38 -220 116q-90 72 -154 171q-60 93 -89 202q-29 104 -29 209q2 135 44 255q44 129 134 235q96 112 222 174q149 72 313 67q49 0 109 -4q79 -5 139 -14q14 -3 69 -14q39 -9 68 -19q32 -12 61 -29q26 -16 44 -39
l10 -14l-64 -201l-53 -151l-59 79q-24 31 -57 47q-33 19 -80 32q-48 14 -93 20q-46 6 -94 6q-77 2 -141 -41q-60 -41 -99 -104q-40 -66 -58 -140q-40 -145 0 -291q18 -72 58 -139q39 -63 99 -104q64 -43 141 -41q51 0 96 7q51 8 93 22q44 16 79 39q32 20 54 55l59 98
l119 -367l-8 -14q-37 -56 -102 -78q-68 -26 -136 -41q-74 -13 -139 -17q-77 -5 -115 -5h-16q35 -10 63 -38q22 -22 40 -55q15 -28 21 -61q7 -32 7 -55q0 -33 -12 -76q-12 -40 -38 -72q-28 -34 -68 -54q-48 -23 -103 -21q-36 0 -65 7q-35 8 -63 22q-32 17 -50 42
q-21 29 -19 68v14zM614 -184l-6 -51v-9q0 -10 6 -16l2 -2h2v4q10 19 9 37q0 16 -7 35q-1 1 -1 4z" />
    <glyph glyph-name="Egrave" unicode="&#xc8;" horiz-adv-x="1120" 
d="M72 4v1430h983v-301h-611v-330h574v-291h-574v-207h639v-301h-1011zM436 1493l-211 352h398l102 -352h-289z" />
    <glyph glyph-name="Eacute" unicode="&#xc9;" horiz-adv-x="1120" 
d="M72 4v1430h983v-301h-611v-330h574v-291h-574v-207h639v-301h-1011zM404 1493l100 352h395l-207 -352h-288z" />
    <glyph glyph-name="Ecircumflex" unicode="&#xca;" horiz-adv-x="1120" 
d="M72 4v1430h983v-301h-611v-330h574v-291h-574v-207h639v-301h-1011zM180 1493l248 352h270l248 -352h-311l-15 22q-1 2 -6.5 11t-8.5 14q-10 15 -28 33q-3 6 -8 10l-84 -90h-305z" />
    <glyph glyph-name="Edieresis" unicode="&#xcb;" horiz-adv-x="1120" 
d="M72 4v1430h983v-301h-611v-330h574v-291h-574v-207h639v-301h-1011zM254 1493v309h618v-309h-618z" />
    <glyph glyph-name="Igrave" unicode="&#xcc;" horiz-adv-x="518" 
d="M133 1493l-211 352h397l101 -352h-287zM72 4v1430h374v-1430h-374z" />
    <glyph glyph-name="Iacute" unicode="&#xcd;" horiz-adv-x="516" 
d="M72 4v1430h372v-1430h-372zM98 1493l101 352h395l-207 -352h-289z" />
    <glyph glyph-name="Icircumflex" unicode="&#xce;" horiz-adv-x="518" 
d="M-123 1493l246 352h272l246 -352h-309l-15 22q-2 2 -7.5 10.5t-9.5 14.5q-16 21 -26 33q-2 4 -8 10l-84 -90h-305zM72 4v1430h374v-1430h-374z" />
    <glyph glyph-name="Idieresis" unicode="&#xcf;" horiz-adv-x="518" 
d="M-49 1493v309h616v-309h-616zM72 4v1430h375v-1430h-375z" />
    <glyph glyph-name="Ntilde" unicode="&#xd1;" horiz-adv-x="1280" 
d="M72 4v1430h383l381 -777v777h372v-1430h-461l-303 619v-619h-372zM307 1493v43q0 36 7 87q7 53 30 103q10 26 27 48q16 23 39 43q25 22 54 32q34 12 70 12h48v-6q31 -11 54 -25q19 -11 44 -32q10 -8 18 -15q7 -5 17 -18q2 16 2 25v55h256v-41q0 -44 -6 -87
q-6 -52 -29 -103q-25 -53 -66 -91q-55 -49 -127 -44h-45l-2 8q-23 9 -43 22q-30 23 -57 56l-24 24q0 1 -5 6q-4 -16 -4 -38v-64h-258z" />
    <glyph glyph-name="Ograve" unicode="&#xd2;" horiz-adv-x="1396" 
d="M1014 56q-127 -68 -316 -68q-186 0 -313 68q-124 63 -210 174q-82 106 -117 236q-35 125 -35 253q0 79 13 153q14 79 42 150q37 88 91 161q54 74 135 136q81 60 177 95q105 38 217 36q113 2 218 -36q97 -33 178 -95q75 -57 135 -136q54 -71 90 -161q57 -144 57 -303
q-2 -130 -36 -253q-36 -132 -116 -236q-86 -111 -210 -174zM571 1493l-211 352h398l102 -352h-289zM431 582q11 -73 48 -146q31 -63 88 -107q59 -40 131 -40t131 40q57 44 88 107q37 75 50 146q12 62 14 137q0 47 -6 94q-6 45 -23 94q-17 50 -37 88q-23 43 -54 77
q-32 34 -73 55q-44 22 -90 22q-49 0 -89 -22q-42 -23 -72 -55q-34 -35 -56 -77q-20 -38 -37 -88q-26 -88 -26 -188q2 -73 13 -137z" />
    <glyph glyph-name="Oacute" unicode="&#xd3;" horiz-adv-x="1396" 
d="M1014 56q-127 -68 -316 -68q-186 0 -313 68q-124 63 -210 174q-82 106 -117 236q-35 125 -35 253q0 79 13 153q14 79 42 150q37 88 91 161q54 74 135 136q81 60 177 95q105 38 217 36q113 2 218 -36q97 -33 178 -95q153 -117 225 -297q57 -144 57 -303q-2 -130 -36 -253
q-36 -132 -116 -236q-86 -111 -210 -174zM479 436q31 -63 88 -107q59 -40 131 -40t131 40q57 44 88 107q37 75 50 146q12 62 14 137q0 47 -6 94q-6 45 -23 94q-17 50 -37 88q-23 43 -54 77q-32 34 -73 55q-44 22 -90 22q-49 0 -89 -22q-42 -23 -72 -55q-34 -35 -56 -77
q-20 -38 -37 -88q-26 -88 -26 -188q0 -63 13 -138q14 -79 48 -145zM541 1493l98 352h397l-209 -352h-286z" />
    <glyph glyph-name="Ocircumflex" unicode="&#xd4;" horiz-adv-x="1396" 
d="M1014 56q-127 -68 -316 -68q-186 0 -313 68q-124 63 -210 174q-82 106 -117 236q-33 119 -35 253q0 79 13 153q14 79 42 150q37 88 91 161q54 74 135 136q81 60 177 95q105 38 217 36q113 2 218 -36q97 -33 178 -95q153 -117 225 -297q57 -144 57 -303q-2 -130 -36 -253
q-36 -132 -116 -236q-86 -111 -210 -174zM315 1493l248 352h271l247 -352h-311l-12 22q-10 13 -18 25q-20 27 -25 33q-4 4 -5 6l-4 4l-86 -90h-305zM479 436q31 -63 88 -107q59 -40 131.5 -40t131.5 40q57 44 88 107q36 72 49 146q12 62 14 137q0 47 -6 94q-6 45 -23 94
q-18 55 -36 88q-24 44 -55 77q-33 35 -72 55q-44 22 -91 22q-49 0 -89 -22q-42 -23 -72 -55q-34 -35 -56 -77q-18 -33 -36 -88q-27 -91 -27 -188q2 -73 13 -137q11 -73 48 -146z" />
    <glyph glyph-name="Otilde" unicode="&#xd5;" horiz-adv-x="1396" 
d="M1014 56q-127 -68 -316 -68q-186 0 -313 68q-124 63 -210 174q-82 106 -117 236q-33 119 -35 253q0 79 13 153q14 79 42 150q37 88 91 161q54 74 135 136q81 60 177 95q105 38 217 36q113 2 218 -36q97 -33 178 -95q153 -117 225 -297q57 -144 57 -303q-2 -130 -36 -253
q-36 -132 -116 -236q-86 -111 -210 -174zM366 1493l1 43q0 44 6 87q6 55 28 103q11 26 27 48q17 24 40 43q25 20 54 32q31 12 72 12h45l2 -6q28 -10 53 -25q24 -14 43 -32q14 -10 19 -15q3 -3 16 -18q2 16 2 25v55h258v-41q0 -36 -7 -87q-7 -53 -30 -103q-12 -29 -26 -48
q-16 -23 -39 -43q-24 -19 -54 -32q-31 -12 -71 -12h-47v8q-26 10 -45 22q-15 11 -31 27q-19 19 -27 29q-15 15 -22 24l-6 6q-5 -20 -5 -38v-64h-256zM479 436q31 -63 88 -107q59 -40 131 -40t131 40q57 44 88 107q37 75 50 146q12 62 14 137q0 47 -6 94q-6 45 -23 94
q-17 50 -37 88q-23 43 -54 77q-32 34 -73 55q-44 22 -90 22q-49 0 -89 -22q-42 -23 -72 -55q-34 -35 -56 -77q-20 -38 -37 -88q-26 -88 -26 -188q2 -73 13 -137q11 -73 48 -146z" />
    <glyph glyph-name="Odieresis" unicode="&#xd6;" horiz-adv-x="1396" 
d="M1014 56q-127 -68 -316 -68q-186 0 -313 68q-122 63 -210 175q-82 107 -117 235q-35 125 -35 253q0 80 13 154q14 77 42 149q37 88 91 161q54 74 135 136q81 60 177 95q105 38 217 36q113 2 218 -36q97 -33 178 -95q75 -57 135 -136q54 -71 90 -161q57 -144 57 -303
q-2 -130 -36 -253q-35 -130 -116 -235q-88 -112 -210 -175zM389 1493v309h619v-309h-619zM479 436q31 -63 88 -107q59 -40 131 -40t131 40q58 46 89 107q36 72 49 146q12 62 14 137q0 47 -6 94q-6 45 -23 94q-17 50 -37 88q-25 47 -54 77q-33 35 -72 55q-44 22 -91 22
q-49 0 -89 -22q-42 -23 -72 -55q-34 -35 -56 -77q-20 -38 -37 -88q-26 -88 -26 -188q0 -63 13 -138q14 -79 48 -145z" />
    <glyph glyph-name="Oslash" unicode="&#xd8;" horiz-adv-x="1445" 
d="M6 -12l195 243q-84 105 -119 238q-33 129 -33 250q0 86 14 160q32 173 139 314q59 78 134 132q81 60 175 91q106 35 214 34q100 0 193 -28q88 -26 169 -81l86 109h273l-201 -252q83 -105 121 -231q37 -123 37 -248q-2 -130 -36 -253q-35 -130 -117 -236
q-86 -111 -210 -174q-127 -68 -315 -68q-198 -3 -367 100l-80 -100h-272zM461 557l420 524q-29 27 -72 49q-89 40 -173 -2q-42 -22 -73 -54q-31 -33 -55 -77q-20 -38 -37 -88q-28 -98 -27 -190q0 -41 3 -81q3 -38 14 -81zM989 877l-420 -525q58 -56 139 -62.5t148 39.5
q57 44 88 107q35 69 49 145q13 69 15 138q0 76 -19 158z" />
    <glyph glyph-name="Ugrave" unicode="&#xd9;" horiz-adv-x="1257" 
d="M55 1434h373v-822q0 -50 8 -106q8 -52 31 -96q21 -41 60 -66q48 -28 102 -25q53 -3 100 25q37 25 59 66q24 48 31 96q8 56 8 106v822h375v-871q0 -111 -29 -219q-28 -104 -95 -183q-73 -84 -176 -126q-132 -52 -273 -47q-143 -5 -275 47q-101 40 -173 121.5t-98 187.5
q-28 106 -28 219v871zM502 1479l-211 352h397l100 -352h-286z" />
    <glyph glyph-name="Uacute" unicode="&#xda;" horiz-adv-x="1257" 
d="M55 1434h373v-822q0 -50 8 -106q8 -52 31 -96q21 -41 60 -66q48 -28 102 -25q53 -3 100 25q37 25 59 66q24 48 31 96q8 56 8 106v822h375v-871q0 -111 -29 -219q-28 -104 -95 -183q-73 -84 -176 -126q-132 -52 -273 -47q-143 -5 -275 47q-101 40 -173 121.5t-98 187.5
q-28 106 -28 219v871zM469 1479l98 352h397l-206 -352h-289z" />
    <glyph glyph-name="Ucircumflex" unicode="&#xdb;" horiz-adv-x="1257" 
d="M55 1434h373v-822q0 -50 8 -106q8 -52 31 -96q21 -41 60 -66q48 -28 102 -25q53 -3 100 25q37 25 59 66q24 48 31 96q8 56 8 106v822h375v-871q0 -111 -29 -219q-28 -104 -95 -183q-73 -84 -176 -126q-132 -52 -273 -47q-143 -5 -275 47q-101 40 -173 121.5t-98 187.5
q-28 106 -28 219v871zM246 1479l245 352h273l246 -352h-310l-14 20q-8 14 -16 25t-27 32q-3 6 -8 11l-84 -88h-305z" />
    <glyph glyph-name="Udieresis" unicode="&#xdc;" horiz-adv-x="1257" 
d="M55 1434h373v-822q0 -50 8 -106q8 -52 31 -96q21 -41 60 -66q48 -28 102 -25q53 -3 100 25q37 25 59 66q24 48 31 96q8 56 8 106v822h375v-871q0 -111 -29 -219q-28 -104 -95 -183q-73 -84 -176 -126q-132 -52 -273 -47q-143 -5 -275 47q-101 40 -173 121.5t-98 187.5
q-28 106 -28 219v871zM319 1479v307h617v-307h-617z" />
    <glyph glyph-name="Yacute" unicode="&#xdd;" horiz-adv-x="1136" 
d="M381 4v41v38q0 44 1 73t1 95v380q-9 30 -24 61t-29 53q-11 19 -35 59q-27 44 -37 66l-256 496l45 -25q-18 11 -31 26q-12 14 -24 32q-13 20 -19 35h332l262 -469q8 14 54.5 96.5t70.5 126.5q18 32 125 221l14 25h332l-37 -93l-248 -471q-14 -30 -36 -66q-24 -40 -35 -59
q-35 -55 -53 -116v-378q0 -66 1 -95t1 -73v-79h-375zM410 1493l98 352h397l-209 -352h-286z" />
    <glyph glyph-name="Thorn" unicode="&#xde;" horiz-adv-x="1058" 
d="M72 4v1430h372v-269h35q122 2 236 -25q98 -21 181 -81q75 -55 116 -139q41 -96 41 -201t-41 -201q-41 -83 -117 -138q-83 -57 -181 -80q-118 -27 -235 -26h-35v-270h-372zM444 875v-312h48q99 0 143 37q45 38 45 119q0 85 -53 120q-54 36 -158 36h-25z" />
    <glyph glyph-name="agrave" unicode="&#xe0;" 
d="M256 657l-196 234l10 20q13 25 34 42q22 18 48 30q36 16 55 21q43 11 55 14q50 9 116 14q51 4 91 4q98 3 190 -30q70 -25 120.5 -80t70.5 -127q20 -70 20 -150v-409h33l51 2v-238h-121q-25 0 -71 2q-48 5 -92 12q-45 8 -74 41q-51 -41 -115 -56q-66 -15 -133 -15
q-169 0 -247 81q-83 89 -78 209q-2 56 24 106q23 45 66 80q45 36 95 55q59 23 112 30q43 5 82 12q15 3 43 9q8 2 40 14q74 27 74 71v82q2 22 -19 34q-34 14 -71 11q-13 0 -53 -2q-32 -2 -60 -12q-54 -15 -65 -39zM342 1081l-211 353h397l103 -353h-289zM555 332q2 14 2 22
q-19 -7 -47 -11q-32 -4 -47 -7q-3 -1 -44 -8q-25 -4 -48 -15q-20 -7 -31 -17q-6 -8 -6 -9q-3 -36 19 -58q29 -19 61 -16q48 -3 89 21q35 29 46 73q4 11 6 25z" />
    <glyph glyph-name="aacute" unicode="&#xe1;" 
d="M256 657l-196 234l10 20q13 25 34 42q22 18 48 30q36 16 55 21q43 11 55 14q50 9 116 14q51 4 91 4q98 3 190 -30q70 -25 120.5 -80t70.5 -127q21 -73 21 -150v-409h32l52 2v-238h-122q-25 0 -71 2q-48 5 -92 12q-45 8 -74 41q-51 -41 -115 -56q-66 -15 -133 -15
q-169 0 -247 81q-83 89 -78 209q-2 56 24 106q23 45 66 80q45 36 95 55q59 23 112 30q43 5 82 12q15 3 43 9q8 2 40 14q74 27 74 71v82q2 22 -19 34q-34 14 -71 11q-13 0 -53 -2q-32 -2 -60 -12q-54 -15 -65 -39zM311 1081l99 353h397l-209 -353h-287zM555 332q2 14 2 22
q-19 -7 -47 -11q-32 -4 -47 -7q-3 -1 -44 -8q-25 -4 -48 -15q-20 -7 -31 -17q-6 -8 -6 -9q-3 -36 19 -58q29 -19 61 -16q48 -3 89 21q35 29 46 73q4 11 6 25z" />
    <glyph glyph-name="acircumflex" unicode="&#xe2;" 
d="M256 657l-196 234l10 20q13 25 34 42q22 18 48 30q36 16 55 21q43 11 55 14q50 9 116 14q51 4 91 4q98 3 190 -30q70 -25 120.5 -80t70.5 -127q20 -70 20 -150v-409h33l51 2v-238h-121q-25 0 -71 2q-48 5 -92 12q-45 8 -74 41q-51 -41 -115 -56q-66 -15 -133 -15
q-169 0 -247 81q-83 89 -78 209q-2 56 24 106q23 45 66 80q45 36 95 55q59 23 112 30q43 5 82 12q15 3 43 9q10 2 41 14q73 27 73 71v82q2 22 -19 34q-34 14 -71 11q-13 0 -53 -2q-31 -2 -59 -12q-55 -15 -66 -39zM86 1081l248 353h270l248 -353h-311l-13 21q-7 12 -17 26
q-16 21 -26 33q-4 2 -8 10l-86 -90h-305zM555 332q2 14 2 22q-19 -7 -47 -11q-32 -4 -47 -7q-3 -1 -44 -8q-25 -4 -48 -15q-20 -7 -31 -17q-6 -8 -6 -9q-3 -36 19 -58q29 -19 61 -16q48 -3 89 21q35 29 46 73q4 11 6 25z" />
    <glyph glyph-name="atilde" unicode="&#xe3;" 
d="M256 657l-196 234l10 20q13 25 34 42q22 18 48 30q36 16 55 21q43 11 55 14q50 9 116 14q51 4 91 4q98 3 190 -30q70 -25 120.5 -80t70.5 -127q21 -73 21 -150v-409h32l51 2v-238h-121q-25 0 -71 2q-48 5 -92 12q-45 8 -74 41q-51 -41 -115 -56q-66 -15 -133 -15
q-169 0 -247 81q-83 89 -78 209q-2 56 24 106q23 45 66 80q45 36 95 55q59 23 112 30q43 5 82 12q15 3 43 9q14 4 40 14q74 27 74 71v82q2 22 -19 34q-34 14 -71 11q-13 0 -53 -2q-32 -2 -60 -12q-54 -15 -65 -39zM137 1081v41q0 44 6 88q6 54 29 103q23 51 67 93
q53 49 126 44h45l2 -8q24 -9 53 -26q24 -14 43 -32q10 -8 18 -15q2 -3 8 -8t9 -7q2 16 2 23v57h258v-41q0 -37 -7 -88q-8 -56 -30 -103q-23 -53 -66 -93q-53 -49 -124 -44h-47v8q-25 7 -46 25q-15 11 -30 26l-27 27q-5 4 -22 27q-4 4 -7 4q-4 -16 -4 -36v-65h-256zM547 307
q10 25 10 47q-19 -7 -47 -11q-32 -4 -47 -7q-3 -1 -44 -8q-25 -4 -48 -15q-20 -7 -31 -17q-6 -8 -6 -9q-3 -36 19 -58q29 -19 61 -16q48 -3 89 21q35 30 44 73z" />
    <glyph glyph-name="adieresis" unicode="&#xe4;" 
d="M256 657l-197 234l11 20q13 25 34 42q22 18 48 30q36 16 55 21q43 11 55 14q50 9 116 14q51 4 91 4q98 3 190 -30q70 -25 120.5 -80t70.5 -127q20 -70 20 -150v-409h33l51 2v-238h-121q-25 0 -71 2q-48 5 -92 12q-45 8 -74 41q-51 -41 -115 -56q-66 -15 -133 -15
q-169 0 -247 81q-83 89 -78 209q-2 56 24 106q23 45 66 80q45 36 95 55q59 23 112 30q43 5 82 12q15 3 43 9q8 2 40 14q74 27 74 71v82q2 22 -19 34q-34 14 -71 11q-13 0 -53 -2q-32 -2 -60 -12q-54 -15 -65 -39zM102 1081v308h330v-308h-330zM557 354q-19 -7 -47 -11
q-32 -4 -47 -7q-3 -1 -44 -8q-25 -4 -48 -15q-20 -7 -31 -17q-6 -8 -6 -9q-3 -36 19 -58q29 -19 61 -16q48 -3 89 21q35 29 46 73q4 11 6 25t2 22zM508 1081v308h332v-308h-332z" />
    <glyph glyph-name="aring" unicode="&#xe5;" 
d="M256 657l-196 234l10 20q13 25 34 42q22 18 48 30q36 16 55 21q43 11 55 14q50 9 116 14q51 4 91 4q98 3 190 -30q70 -25 120.5 -80t70.5 -127q21 -73 21 -150v-409h32l51 2v-238h-121q-25 0 -71 2q-48 5 -92 12q-45 8 -74 41q-51 -41 -115 -56q-66 -15 -133 -15
q-169 0 -247 81q-83 89 -78 209q-2 56 24 106q23 45 66 80q45 36 95 55q59 23 112 30q43 5 82 12q15 3 43 9q8 2 40 14q74 27 74 71v82q2 22 -19 34q-34 14 -71 11q-13 0 -53 -2q-32 -2 -60 -12q-54 -15 -65 -39zM262 1276q0 38 12 72q11 36 36 61q25 26 65 43q44 18 94 16
q51 2 95 -16q38 -14 65 -43q26 -29 37 -61q12 -34 12 -72q0 -41 -11 -74q-9 -31 -36 -61q-27 -29 -65 -43q-97 -34 -194 0q-38 14 -65 43q-25 28 -35 62t-10 73zM557 354q-19 -7 -47 -11q-32 -4 -47 -7q-3 -1 -44 -8q-25 -4 -48 -15q-20 -7 -31 -17q-6 -8 -6 -9
q-3 -35 20 -58q29 -19 60 -16q48 -3 89 21q35 29 46 73q4 11 6 25t2 22zM471 1257q0 2 2 4v25q-2 2 -2 4q-5 -7 -4 -14q-2 -10 4 -19z" />
    <glyph glyph-name="ccedilla" unicode="&#xe7;" horiz-adv-x="952" 
d="M289 -276l96 77q-16 7 -34 21q-14 12 -21 33l-4 10l43 145q-94 23 -166 81q-64 52 -105 123q-39 67 -53 147q-14 78 -14 151q0 98 24 193q25 94 84 167q66 78 158 119q119 49 244 45q41 0 94 -3q57 -3 106 -13q51 -10 104 -34q51 -23 81 -71l10 -18l-10 -18
q-6 -9 -26 -40t-30 -48q-24 -39 -55 -86l-43 -68l-45 68q-54 88 -186 88q-48 2 -87 -24q-36 -26 -57 -64q-23 -44 -29 -95q-7 -46 -7 -98q0 -45 8 -96q7 -48 30 -90q19 -37 55 -62q38 -24 87 -22q61 0 113 17q47 11 71 50l39 82l172 -272l-10 -19q-12 -24 -37 -42
q-24 -16 -51 -27q-25 -9 -60 -18q-21 -5 -63 -11q-71 -12 -141 -12q35 -10 63 -38q27 -29 40 -56q14 -27 21 -62q7 -32 7 -55q0 -33 -12 -76q-12 -39 -38 -71q-30 -36 -68 -55q-48 -23 -104 -21q-35 0 -64 7q-33 7 -64 23q-30 16 -49 42q-21 29 -19 67v14zM473 -186l-6 -49
v-9q0 -10 6 -16l2 -2h2v4q10 17 8 37q0 19 -6 35q0 2 -1 2t-1 2zM489 -174l-10 -6l4 -2q0 2 3 4t3 4z" />
    <glyph glyph-name="egrave" unicode="&#xe8;" horiz-adv-x="1005" 
d="M758 381l192 -256l-8 -18q-11 -30 -37 -47q-24 -16 -55 -27q-38 -13 -63 -18t-68 -11q-64 -10 -134 -13q-65 -3 -96 -3q-140 0 -231 50q-84 45 -140 127q-51 78 -69 170q-18 87 -18 177t20 182q19 89 74 169q57 81 144 125q91 48 235 48q156 0 249 -60q90 -57 142 -152
q49 -90 64 -194q16 -101 16 -190v-41h-606q8 -50 28 -94q33 -63 92 -63q27 0 66 3q35 3 78 11q38 9 64 21q18 7 26 24zM377 1081l-211 353h397l103 -353h-289zM369 627h276q-10 50 -35 100q-34 64 -106 66q-33 0 -61.5 -18t-41.5 -48q-14 -27 -20 -49q-7 -26 -12 -51z" />
    <glyph glyph-name="eacute" unicode="&#xe9;" horiz-adv-x="1005" 
d="M758 381l192 -256l-8 -18q-11 -30 -37 -47q-24 -16 -55 -27q-38 -13 -63 -18t-68 -11q-64 -10 -134 -13q-65 -3 -96 -3q-140 0 -231 50q-84 45 -140 127q-51 78 -69 170q-18 87 -18 177t20 182q19 89 74 169q57 81 144 125q91 48 235 48q156 0 249 -60q90 -57 142 -152
q49 -90 64 -194q16 -101 16 -190v-41h-606q8 -50 28 -94q33 -63 92 -63q27 0 66 3q35 3 78 11q38 9 64 21q18 7 26 24zM344 1081l100 353h396l-207 -353h-289zM369 627h276q-10 50 -35 100q-34 64 -106 66q-33 0 -61.5 -18t-41.5 -48q-14 -27 -20 -49q-7 -26 -12 -51z" />
    <glyph glyph-name="ecircumflex" unicode="&#xea;" horiz-adv-x="1005" 
d="M758 381l192 -256l-8 -18q-11 -30 -37 -47q-24 -16 -55 -27q-38 -13 -63 -18t-68 -11q-64 -10 -134 -13q-65 -3 -96 -3q-140 0 -231 50q-84 45 -140 127q-51 78 -69 170q-18 87 -18 177t20 182q19 89 74 169q57 81 144 125q91 48 235 48q156 0 249 -60q90 -57 142 -152
q49 -90 64 -194q16 -101 16 -190v-41h-606q6 -32 11 -48q9 -29 17 -46q33 -63 92 -63q27 0 66 3q35 3 78 11q38 9 64 21q18 7 26 24zM121 1081l248 353h270l248 -353h-312l-14 21q-8 17 -15 27q-8 12 -28 32q-2 2 -3 4q-2 4 -5 7l-84 -91h-305zM369 627h276q-10 50 -35 100
q-34 64 -106 66q-33 0 -61.5 -18t-41.5 -48q-14 -27 -20 -49q-7 -26 -12 -51z" />
    <glyph glyph-name="edieresis" unicode="&#xeb;" horiz-adv-x="1005" 
d="M758 381l192 -256l-8 -18q-11 -30 -37 -47q-24 -16 -55 -27q-38 -13 -63 -18t-68 -11q-64 -10 -134 -13q-65 -3 -96 -3q-140 0 -231 50q-84 45 -140 127q-51 78 -69 170q-18 87 -18 177t20 182q19 89 74 169q57 81 144 125q91 48 235 48q156 0 249 -60q90 -57 142 -152
q49 -90 64 -194q16 -101 16 -190v-41h-606q6 -32 11 -48q9 -29 17 -46q33 -63 92 -63q27 0 66 3q35 3 78 11q38 9 64 21q18 7 26 24zM195 1081v308h618v-308h-618zM369 627h276q-10 50 -35 100q-34 64 -106 66q-33 0 -61 -18t-42 -48q-14 -27 -20 -49q-7 -26 -12 -51z" />
    <glyph glyph-name="igrave" unicode="&#xec;" horiz-adv-x="442" 
d="M94 1081l-211 353h398l100 -353h-287zM66 4v1016h311v-1016h-311z" />
    <glyph glyph-name="iacute" unicode="&#xed;" horiz-adv-x="442" 
d="M61 1081l99 353h397l-209 -353h-287zM66 4v1016h311v-1016h-311z" />
    <glyph glyph-name="icircumflex" unicode="&#xee;" horiz-adv-x="442" 
d="M-162 1081l246 353h272l246 -353h-309l-15 21q-2 4 -8 12.5t-9 13.5q-16 21 -26 33q-6 6 -8 10l-84 -90h-305zM66 4v1016h311v-1016h-311z" />
    <glyph glyph-name="idieresis" unicode="&#xef;" horiz-adv-x="442" 
d="M-147 1081v308h329v-308h-329zM66 4v1016h311v-1016h-311zM258 1081v308h332v-308h-332z" />
    <glyph glyph-name="ntilde" unicode="&#xf1;" horiz-adv-x="931" 
d="M66 4v1016h311v-45q87 57 192 55q105 0 166 -49q61 -48 92 -115q29 -63 39 -132q11 -73 11 -122v-608h-312v606q0 24 -5 54q-4 27 -15 51q-8 20 -25 34q-15 9 -33 9q-51 3 -82 -39q-30 -43 -28 -99v-616h-311zM139 1081v41q0 37 7 88q8 56 28 103q23 51 67 93
q53 49 126 44h45l2 -8q24 -9 53 -26q24 -14 43 -32l37 -30v80h258v-41q0 -37 -7 -88q-8 -56 -30 -103q-23 -53 -66 -93q-53 -49 -125 -44h-47v8q-25 8 -45 25q-15 11 -30 26l-27 27q-8 8 -11 13t-12 14q-4 4 -6 4q-4 -16 -4 -36v-65h-256z" />
    <glyph glyph-name="ograve" unicode="&#xf2;" horiz-adv-x="1011" 
d="M741 36q-91 -48 -235 -48t-236 48q-89 44 -145 125q-54 77 -74 170q-20 91 -20 181q0 91 20 183t74 169q59 81 145 124q91 48 236 48q144 0 235 -48q88 -44 146 -125q54 -78 73 -169q41 -181 0 -363q-20 -95 -73 -170q-56 -80 -146 -125zM379 1081l-211 353h397l101 -353
h-287zM366 421q4 -49 23 -99q37 -99 117 -99q78 0 115 99q19 50 23 99q5 58 5 91q0 34 -5 92q-5 52 -23 101q-37 96 -115 96q-80 0 -117 -96q-18 -49 -23 -101q-6 -72 -6 -92q0 -21 6 -91z" />
    <glyph glyph-name="oacute" unicode="&#xf3;" horiz-adv-x="1011" 
d="M741 36q-91 -48 -235 -48t-236 48q-89 44 -145 125q-54 77 -74 170q-20 92 -20 181q0 91 20 183t74 169q59 81 145 124q91 48 236 48q144 0 235 -48q88 -44 146 -125q54 -78 73 -169q41 -181 0 -363q-20 -95 -73 -170q-56 -80 -146 -125zM346 1081l100 353h396l-207 -353
h-289zM366 421q4 -49 23 -99q37 -99 117 -99q78 0 115 99q19 50 23 99q5 58 5 91q0 34 -5 92q-5 52 -23 101q-37 96 -115 96q-80 0 -117 -96q-18 -49 -23 -101q-6 -72 -6 -92q0 -21 6 -91z" />
    <glyph glyph-name="ocircumflex" unicode="&#xf4;" horiz-adv-x="1011" 
d="M741 36q-91 -48 -235 -48t-236 48q-89 44 -145 125q-54 77 -74 170q-20 92 -20 181q0 91 20 183t74 169q59 81 145 124q91 48 236 48q142 0 235 -48q88 -44 146 -125q54 -78 73 -169q41 -181 0 -363q-20 -95 -73 -170q-56 -80 -146 -125zM123 1081l246 353h272l248 -353
h-311l-15 21q-6 14 -16 26q-12 16 -27 33q-6 6 -8 10l-84 -90h-305zM366 421q4 -49 23 -99q37 -99 117 -99q78 0 115 99q19 50 23 99q5 58 5 91q0 34 -5 92q-5 52 -23 101q-37 96 -115 96q-81 0 -117 -96q-18 -49 -23 -101q-6 -72 -6 -92q0 -21 6 -91z" />
    <glyph glyph-name="otilde" unicode="&#xf5;" horiz-adv-x="1011" 
d="M741 36q-91 -48 -235 -48t-236 48q-89 44 -145 125q-54 77 -74 170q-20 91 -20 181q0 91 20 183t74 169q59 81 145 124q91 48 236 48q144 0 235 -48q88 -44 146 -125q54 -78 73 -169q41 -181 0 -363q-20 -95 -73 -170q-56 -80 -146 -125zM172 1081v41q0 37 7 88
q8 56 30 103q23 54 65 93q53 49 125 44h47v-8q29 -11 55 -26q19 -11 44 -32l18 -15q3 -2 8.5 -7t8.5 -8q1 8 1 23v57h256v-41q0 -45 -6 -88q-7 -57 -28 -103q-23 -51 -67 -93q-53 -49 -126 -44h-45l-2 8q-22 9 -43 25q-16 12 -32 26q-5 4 -25 27q-1 1 -4 3.5t-5 5t-4 4.5
q-8 10 -12 14q0 2 -1 3t-3 1q-4 -16 -4 -36v-65h-258zM366 421q4 -49 23 -99q37 -99 117 -99q78 0 115 99q19 50 23 99q5 58 5 91q0 34 -5 92q-5 52 -23 101q-37 96 -115 96q-80 0 -117 -96q-18 -49 -23 -101q-6 -72 -6 -92q0 -21 6 -91z" />
    <glyph glyph-name="odieresis" unicode="&#xf6;" horiz-adv-x="1011" 
d="M741 36q-91 -48 -235 -48t-236 48q-89 44 -145 125q-54 77 -74 170q-20 91 -20 181q0 91 20 183t74 169q59 81 145 124q91 48 236 48q144 0 235 -48q90 -45 146 -125q54 -78 73 -169q41 -181 0 -363q-20 -95 -73 -170q-56 -80 -146 -125zM197 1081v308h616v-308h-616z
M366 421q4 -49 23 -99q37 -99 117 -99q78 0 115 99q19 50 23 99q5 58 5 91q0 34 -5 92q-5 52 -23 101q-37 96 -115 96q-81 0 -117 -96q-18 -49 -23 -101q-6 -72 -6 -92q0 -21 6 -91z" />
    <glyph glyph-name="oslash" unicode="&#xf8;" horiz-adv-x="1054" 
d="M12 -12l137 174q-57 80 -75 173q-19 92 -19 177q0 86 21 183q20 94 73 169q59 80 146 124q91 48 235 48q69 0 133 -13q67 -14 125 -48l48 61h210l-135 -172q58 -82 76 -173q18 -88 18 -179q0 -89 -20 -181q-20 -93 -74 -170q-56 -81 -145 -125q-92 -48 -236 -48
q-72 0 -134 14q-64 13 -124 47l-49 -61h-211zM387 465l229 293q-32 45 -86 43q-79 0 -116 -96q-20 -53 -24 -101q-5 -60 -5 -92v-24q0 -7 2 -23zM674 561l-232 -293q31 -45 88 -45q78 0 115 98q20 53 24 100q5 58 5 91v49z" />
    <glyph glyph-name="ugrave" unicode="&#xf9;" horiz-adv-x="933" 
d="M606 4l-49 41q-38 -26 -80 -41q-47 -16 -100 -16q-115 0 -180 43q-66 43 -99 108q-29 64 -35 133q-6 72 -6 134v614h312v-614q0 -20 2 -58q1 -27 12 -51q6 -19 22.5 -30t36.5 -9q26 -2 49 11.5t35 37.5q19 29 24 55q7 27 7 60v598h311v-1016h-262zM334 1081l-207 353h395
l101 -353h-289z" />
    <glyph glyph-name="uacute" unicode="&#xfa;" horiz-adv-x="933" 
d="M606 4l-49 41q-38 -26 -80 -41q-47 -16 -100 -16q-115 0 -180 43q-66 43 -99 108q-29 64 -35 133q-6 72 -6 134v614h312v-614q0 -20 2 -58q1 -27 12 -51q6 -19 22.5 -30t36.5 -9q26 -2 49 11.5t35 37.5q19 29 24 55q7 27 7 60v598h311v-1016h-262zM303 1081l98 353h398
l-209 -353h-287z" />
    <glyph glyph-name="ucircumflex" unicode="&#xfb;" horiz-adv-x="933" 
d="M606 4l-49 41q-38 -26 -80 -41q-47 -16 -100 -16q-115 0 -180 43q-66 43 -99 108q-29 64 -35 133q-6 72 -6 134v614h312v-614q0 -20 2 -58q1 -27 12 -51q6 -19 22.5 -30t36.5 -9q26 -2 49 11.5t35 37.5q19 29 24 55q7 27 7 60v598h311v-1016h-262zM78 1081l250 353h272
l246 -353h-309l-15 21q-7 12 -17 26q-16 21 -26 33q-6 6 -8 10l-88 -90h-305z" />
    <glyph glyph-name="udieresis" unicode="&#xfc;" horiz-adv-x="933" 
d="M606 4l-49 41q-38 -26 -80 -41q-47 -16 -100 -16q-115 0 -180 43q-66 43 -99 108q-29 64 -35 133q-6 72 -6 134v614h312v-614q0 -20 2 -58q1 -27 12 -51q6 -19 22.5 -30t36.5 -9q26 -2 49 11.5t35 37.5q19 29 24 55q7 27 7 60v598h311v-1016h-262zM156 1081v308h614v-308
h-614z" />
    <glyph glyph-name="yacute" unicode="&#xfd;" horiz-adv-x="917" 
d="M61 -354v262h138q22 0 30 1l9 1q8 1 12 2q13 6 23 16q20 24 26 56l6 26l-303 948l47 -30q-16 16 -34 31q-7 7 -13 8l45 53h274l13 -25q2 -6 2 -8t2 -8l108 -449q7 23 21 73q4 14 10.5 40t9.5 37q5 18 15.5 56.5t15.5 57.5q4 14 13.5 47.5t13.5 49.5q3 19 9 39q3 11 9 31
q1 9 6 20l4 12l2 4l15 23h329l-18 -92l-342 -1043q-19 -61 -47 -108q-26 -45 -67 -75q-45 -32 -98 -43q-68 -15 -142 -13h-144zM295 1081l100 353h395l-206 -353h-289z" />
    <glyph glyph-name="thorn" unicode="&#xfe;" horiz-adv-x="1028" 
d="M66 -444v1878h311v-455q96 60 213 57q127 0 206 -58q75 -54 121 -138q44 -83 61 -168q35 -160 0 -320q-16 -86 -61 -166q-45 -83 -121 -139q-78 -59 -206 -59q-114 -3 -213 57v-489h-311zM383 425q6 -50 22 -93q37 -90 115 -90q72 0 111 92q20 42 26 94q12 84 0 168
q-6 52 -26 94q-39 92 -111 92q-78 0 -115 -88q-16 -42 -22 -94q-6 -44 -6 -88t6 -87z" />
    <glyph glyph-name="ydieresis" unicode="&#xff;" horiz-adv-x="917" 
d="M61 -354v262h138q22 0 30 1l9 1q8 1 12 2q13 6 23 16q20 24 26 56l6 26l-303 948l47 -30q-16 16 -34 31q-7 7 -13 8l45 53h275l12 -25q2 -6 2 -8t2 -8l108 -449q7 23 21 73q4 14 10.5 40t9.5 37q5 18 15.5 56.5t15.5 57.5q4 14 13.5 47.5t13.5 49.5q3 19 9 39q3 11 9 31
q1 9 6 20l4 12l2 4l15 23h329l-18 -92l-342 -1043q-19 -61 -47 -108q-26 -45 -67 -75q-45 -32 -98 -43q-68 -15 -142 -13h-144zM145 1081v308h617v-308h-617z" />
    <glyph glyph-name="Amacron" unicode="&#x100;" horiz-adv-x="1345" 
d="M-18 4l12 51q4 8 4 13l494 1314l-17 52h385l485 -1368q5 -10 5 -13l12 -49h-389l-10 31q-11 29 -31 87t-31 87l-457 2q-5 -14 -31 -89q-10 -29 -32 -87l-10 -31h-389zM414 1493v227h538v-227h-538zM549 498h252l-123 352q-56 -151 -65 -175q-4 -11 -27.5 -76.5
t-36.5 -100.5z" />
    <glyph glyph-name="amacron" unicode="&#x101;" 
d="M256 657l-196 234l10 20q13 25 34 42q22 18 48 30q36 16 55 21q43 11 55 14q50 9 116 14q51 4 91 4q98 3 190 -30q70 -25 120.5 -80t70.5 -127q21 -73 21 -150v-409h32l51 2v-238h-121q-25 0 -71 2q-48 5 -92 12q-45 8 -74 41q-51 -41 -115 -56q-66 -15 -133 -15
q-169 0 -247 81q-83 89 -78 209q-2 56 24 106q23 45 66 80q45 36 95 55q59 23 112 30q43 5 82 12q15 3 43 9q18 5 41 14q73 27 73 71v82q2 22 -19 34q-34 14 -71 11q-13 0 -53 -2q-32 -2 -60 -12q-54 -15 -65 -39zM199 1081v228h540v-228h-540zM547 307q10 25 10 47
q-19 -7 -47 -11q-32 -4 -47 -7q-3 -1 -44 -8q-25 -4 -48 -15q-20 -7 -31 -17q-6 -8 -6 -9q-3 -36 19 -58q29 -19 61 -16q48 -3 89 21q35 30 44 73z" />
    <glyph glyph-name="Abreve" unicode="&#x102;" horiz-adv-x="1345" 
d="M-18 4l12 51q2 3 4 13l494 1314l-17 52h385l486 -1368q2 -3 4 -13l12 -49h-389l-10 31q-11 29 -31 87t-31 87l-457 2q-5 -14 -31 -89q-10 -29 -32 -87l-10 -31h-389zM389 1818h256v-40q0 -15 3 -30q4 -18 11 -26q3 -8 13 -15q6 -3 12 -3t10 3q10 7 13 15q7 10 11 26
q3 15 3 30v40h256v-40q0 -54 -15 -103q-16 -55 -53.5 -99t-89.5 -70q-60 -29 -135 -27q-75 -2 -136 27q-53 25 -90.5 69.5t-53.5 99.5q-15 49 -15 103v40zM549 498h252l-123 352q-56 -151 -65 -175q-4 -11 -27.5 -76.5t-36.5 -100.5z" />
    <glyph glyph-name="abreve" unicode="&#x103;" 
d="M256 657l-196 234l10 20q13 25 34 42q22 18 48 30q36 16 55 21q43 11 55 14q50 9 116 14q51 4 91 4q97 3 189 -30q70 -26 121 -80.5t71 -126.5q20 -70 20 -150v-409h33l51 2v-238h-121q-25 0 -71 2q-48 5 -92 12q-45 8 -74 41q-51 -41 -115 -56q-66 -15 -133 -15
q-169 0 -247 81q-83 89 -78 209q-2 56 24 106q23 45 66 80q45 36 95 55q59 23 112 30q43 5 82 12q15 3 43 9q10 2 41 14q73 27 73 71v82q2 22 -19 34q-34 14 -71 11q-13 0 -53 -2q-31 -2 -59 -12q-55 -15 -66 -39zM176 1407h256v-43q0 -14 3 -28q2 -8 10 -27q8 -10 13 -14
q4 -3 11 -3q17 2 25 17q7 15 9 27q3 14 3 28v43h258v-41q0 -52 -15 -102q-14 -50 -52 -98q-39 -47 -92 -72q-64 -31 -136 -29q-71 -2 -135 29q-54 28 -91 72q-36 43 -51 98q-16 53 -16 102v41zM557 354q-19 -7 -47 -11q-32 -4 -47 -7q-3 -1 -44 -8q-25 -4 -48 -15
q-20 -7 -31 -17q-6 -8 -6 -9q-3 -36 19 -58q29 -19 61 -16q48 -3 89 21q35 29 46 73q4 11 6 25t2 22z" />
    <glyph glyph-name="Aogonek" unicode="&#x104;" horiz-adv-x="1339" 
d="M-18 4l12 51q4 8 4 13l493 1314l-16 52h385l485 -1368q4 -8 4 -13l7 -26l-27 -15q-16 -8 -26 -21q-13 -15 -25 -34q-14 -20 -20 -37q-6 -14 -7 -30q0 -30 24 -44q33 -19 68 -16h26q10 0 32 2q10 2 15 2q7 0 11 4q33 -9 56 -34q20 -23 34 -52q16 -36 23 -67l-14 -15
q-19 -21 -50 -29q-41 -12 -53 -14q-15 -3 -49 -5q-16 -1 -41 -1q-135 0 -218 69q-86 69 -83 181q0 37 17 69q18 35 40 64h-116l-11 31q-5 13 -10 27.5t-11 32t-9 27.5q-20 58 -31 87l-457 2q-22 -60 -32 -89q-20 -58 -31 -87l-11 -31h-388zM549 498h252l-123 352
q-56 -151 -65 -175q-4 -11 -27.5 -76.5t-36.5 -100.5z" />
    <glyph glyph-name="aogonek" unicode="&#x105;" horiz-adv-x="976" 
d="M954 25l-22 -13q-9 -6 -25 -22q-14 -16 -26 -32q-14 -19 -20 -34q-7 -16 -7 -28q0 -66 92 -66h26q10 0 32 2q10 2 15 2q7 0 11 2l5 2h1q32 -9 54 -34q19 -22 30 -52q16 -36 23 -67l-14 -15q-20 -21 -48 -29q-41 -12 -53 -14q-17 -3 -51 -5q-16 -1 -41 -1q-137 0 -218 72
q-84 73 -81 182q0 30 18 61q14 26 35 54q6 8 9 11q2 1 4.5 4t3.5 5q-3 0 -11 1.5t-12 2.5q-11 1 -22 6q-37 11 -64 39q-52 -41 -114 -56q-66 -15 -136 -15q-169 0 -247 81q-83 89 -78 210q-1 55 24 105q23 45 66 80q43 36 94 55q54 22 113 30q43 5 82 12q15 3 43 9
q18 5 41 14q73 27 73 71v82q2 22 -19 34q-34 14 -71 11q-13 0 -53 -2q-27 -1 -60 -10q-54 -18 -65 -41l-35 -71l-197 233l11 20q13 25 34 42q22 18 48 30q36 16 55 21q43 11 55 14q50 9 116 14q51 4 91 4q97 3 189 -30q70 -26 121 -80.5t71 -126.5q20 -70 20 -150v-409h33
l51 2v-217zM547 307q10 25 10 47q-19 -7 -47 -11q-32 -4 -47 -7q-3 -1 -44 -8q-25 -4 -48 -15q-20 -7 -31 -17q-6 -8 -6 -9q-3 -35 20 -58q29 -19 60 -16q48 -3 89 21q35 30 44 73z" />
    <glyph glyph-name="Cacute" unicode="&#x106;" horiz-adv-x="1251" 
d="M1112 508l119 -365l-8 -14q-37 -56 -102 -78q-68 -26 -136 -41q-74 -13 -138 -17q-77 -5 -116 -5q-164 -5 -313 67q-127 63 -222 173q-90 105 -134 236q-91 255 0 510q44 129 134 235q95 110 222 173q151 72 313 68q49 0 109 -4q79 -5 139 -14q14 -3 69 -14q39 -9 68 -19
q32 -12 61 -29q26 -16 44 -39l10 -14l-64 -201l-53 -152l-57 78q-24 32 -58 48q-47 24 -80 33q-47 14 -94 20q-46 6 -94 6q-77 2 -141 -41q-58 -39 -98 -105q-42 -69 -59 -139q-40 -145 0 -291q17 -70 59 -139q39 -64 98 -104q64 -43 141 -41q51 0 96 7q53 8 94 22
q42 15 78 39q32 20 54 55zM463 1493l100 352h398l-209 -352h-289z" />
    <glyph glyph-name="cacute" unicode="&#x107;" horiz-adv-x="950" 
d="M766 391l170 -272l-10 -19q-13 -24 -34 -39q-24 -17 -47 -27q-25 -11 -55 -19q-14 -4 -53 -11q-52 -10 -110 -13q-53 -3 -86 -3q-125 -4 -244 45q-92 41 -158 119q-59 73 -84 167q-50 193 0 385q25 96 84 168q66 78 158 119q119 49 244 45q41 0 94 -3q57 -3 106 -13
q51 -10 104 -34q50 -22 80 -71l11 -18l-11 -18q-11 -17 -30.5 -49t-24.5 -40q-24 -39 -55 -86l-43 -67l-45 67q-52 88 -186 88q-49 2 -87 -23q-36 -25 -57 -65q-23 -44 -29 -94q-8 -53 -8 -98q0 -38 9 -96q7 -48 30 -90q19 -37 55 -62q38 -24 87 -22q61 0 113 17
q47 11 71 50zM381 1081l100 353h397l-208 -353h-289z" />
    <glyph glyph-name="Ccircumflex" unicode="&#x108;" horiz-adv-x="1251" 
d="M1112 508l119 -365l-8 -14q-37 -56 -102 -78q-68 -26 -136 -41q-74 -13 -138 -17q-77 -5 -116 -5q-164 -5 -313 67q-127 63 -222 173q-90 105 -134 236q-91 255 0 510q44 129 134 235q95 110 222 173q151 72 313 68q49 0 109 -4q79 -5 139 -14q14 -3 69 -14q39 -9 68 -19
q32 -12 61 -29q26 -16 44 -39l10 -14l-64 -201l-53 -152l-57 78q-24 32 -58 48q-47 24 -80 33q-47 14 -94 20q-46 6 -94 6q-77 2 -141 -41q-58 -39 -98 -105q-42 -69 -59 -139q-40 -145 0 -291q17 -70 59 -139q39 -64 98 -104q64 -43 141 -41q51 0 96 7q53 8 94 22
q42 15 78 39q32 20 54 55zM240 1493l247 352h271l247 -352h-311l-14 23q-2 3 -4.5 7.5t-5 8.5t-5.5 8q-16 21 -26 33q-4 4 -5 6t-5 4l-84 -90h-305z" />
    <glyph glyph-name="Cdot" unicode="&#x10a;" horiz-adv-x="1251" 
d="M1112 508l119 -365l-8 -14q-37 -56 -102 -78q-68 -26 -136 -41q-74 -13 -138 -17q-77 -5 -116 -5q-164 -5 -313 67q-127 63 -222 173q-90 105 -134 236q-91 255 0 510q44 129 134 235q95 110 222 173q151 72 313 68q49 0 109 -4q79 -5 139 -14q14 -3 69 -14q39 -9 68 -19
q32 -12 61 -29q26 -16 44 -39l10 -14l-64 -201l-53 -152l-57 78q-24 32 -58 48q-47 24 -80 33q-47 14 -94 20q-46 6 -94 6q-77 2 -141 -41q-58 -39 -98 -105q-42 -69 -59 -139q-40 -145 0 -291q17 -70 59 -139q39 -64 98 -104q64 -43 141 -41q51 0 96 7q53 8 94 22
q42 15 78 39q32 20 54 55zM459 1493v309h329v-309h-329z" />
    <glyph glyph-name="cdot" unicode="&#x10b;" horiz-adv-x="952" 
d="M766 391l170 -272l-10 -19q-13 -24 -34 -39q-24 -17 -47 -27q-26 -12 -54 -19q-12 -3 -54 -11q-52 -10 -110 -13q-54 -3 -86 -3q-125 -4 -244 45q-92 41 -158 119q-59 73 -84 167q-50 193 0 385q25 96 84 168q66 78 158 119q119 49 244 45q41 0 94 -3q57 -3 106 -13
q51 -10 104 -34q51 -23 81 -71l10 -18l-10 -18q-38 -60 -56 -89q-24 -39 -55 -86l-43 -67l-45 67q-54 88 -186 88q-49 2 -87 -23q-36 -25 -57 -65q-23 -44 -29 -94q-7 -46 -7 -98q0 -45 8 -96q7 -48 30 -90q19 -37 55 -62q38 -24 87 -22q61 0 113 17q47 11 71 50zM377 1081
v308h330v-308h-330z" />
    <glyph glyph-name="Ccaron" unicode="&#x10c;" horiz-adv-x="1251" 
d="M1112 508l119 -365l-8 -14q-37 -56 -102 -78q-68 -26 -136 -41q-74 -13 -138 -17q-77 -5 -116 -5q-164 -5 -313 67q-127 63 -222 173q-90 105 -134 236q-91 255 0 510q44 129 134 235q95 110 222 173q151 72 313 68q49 0 109 -4q79 -5 139 -14q6 -1 68 -14q42 -9 69 -19
q32 -12 61 -29q26 -16 44 -39l10 -14l-64 -201l-53 -152l-57 78q-24 32 -58 48q-47 24 -80 33q-47 14 -94 20q-46 6 -94 6q-77 2 -141 -41q-58 -39 -98 -105q-42 -69 -59 -139q-40 -145 0 -291q17 -70 59 -139q39 -64 98 -104q64 -43 141 -41q51 0 96 7q53 8 94 22
q42 15 78 39q32 20 54 55zM487 1493l-247 352h305l84 -88q4 2 5 4t5 6q10 12 26 33q4 6 15 25l14 20h312l-248 -352h-271z" />
    <glyph glyph-name="ccaron" unicode="&#x10d;" horiz-adv-x="950" 
d="M766 391l170 -272l-10 -19q-13 -24 -34 -39q-24 -17 -47 -27q-25 -11 -55 -19q-14 -4 -53 -11q-52 -10 -110 -13q-53 -3 -86 -3q-125 -4 -244 45q-92 41 -158 119q-59 73 -84 167q-50 193 0 385q25 96 84 168q66 78 158 119q119 49 244 45q41 0 94 -3q57 -3 106 -13
q51 -10 104 -34q51 -23 81 -71l10 -18l-10 -18q-38 -60 -56 -89q-24 -39 -55 -86l-43 -67l-45 67q-52 88 -186 88q-49 2 -87 -23q-36 -25 -57 -65q-23 -44 -29 -94q-8 -53 -8 -98q0 -38 9 -96q7 -48 30 -90q19 -37 55 -62q38 -24 87 -22q61 0 113 17q47 11 71 50zM406 1081
l-248 353h305l84 -91q5 5 8 11q20 20 28 32q3 5 8.5 14t6.5 11l14 23h312l-248 -353h-270z" />
    <glyph glyph-name="Dcaron" unicode="&#x10e;" horiz-adv-x="1306" 
d="M72 4v1430h463q204 0 348 -55q132 -49 229 -150q90 -99 127 -228q41 -138 39 -282q0 -137 -30 -271q-28 -129 -107 -229q-84 -103 -211 -156q-135 -59 -340 -59h-518zM391 1493l-248 352h305l87 -88q6 6 8 10q10 11 26 33q12 16 17 25l14 20h311l-247 -352h-273z
M444 1145v-850h127q86 -3 160 36q60 35 95 95q36 66 45 135q12 78 12 158q0 81 -15 161q-12 71 -52 136q-39 61 -103 94q-79 38 -166 35h-103z" />
    <glyph glyph-name="dcaron" unicode="&#x10f;" horiz-adv-x="1030" 
d="M651 4v51q-44 -30 -96 -49q-57 -20 -119 -18q-113 -5 -205 57q-77 54 -123 139q-45 83 -61 172q-33 156 0 312q16 89 61 172q46 85 123 139q92 62 205 57q60 2 119 -17q54 -17 96 -48v463h305v16h342l-88 -352h-245v-1094h-314zM395 334q41 -92 113 -92q71 0 110 92
q19 46 26 94q15 84 0 168q-8 52 -25 94q-39 92 -111 92q-74 0 -113 -90q-19 -40 -27 -95q-8 -56 -8 -85q0 -28 8 -84q8 -54 27 -94z" />
    <glyph glyph-name="Dslash" unicode="&#x110;" horiz-adv-x="1394" 
d="M158 4v604h-148v226h148v600h465q176 4 347 -55q133 -47 230 -150q90 -99 127 -228q41 -138 39 -282q0 -140 -31 -271q-30 -129 -107 -229q-84 -104 -210 -156q-135 -59 -340 -59h-520zM531 608l-1 -313h129q85 -3 159 36q61 36 94 95q36 66 45 135q12 78 12 158
q0 81 -15 161q-12 71 -52 136q-39 61 -103 94q-79 38 -166 35h-102v-311h133v-226h-133z" />
    <glyph glyph-name="dmacron" unicode="&#x111;" horiz-adv-x="1032" 
d="M651 4v51q-44 -30 -96 -49q-57 -20 -119 -18q-113 -5 -205 57q-77 54 -123 139q-45 83 -61 172q-33 156 0 312q16 89 61 172q46 85 123 139q92 62 205 57q60 2 119 -17q54 -17 96 -48v110h-264v228h264v124h314v-124h209v-228h-209v-1077h-314zM368 428q8 -54 27 -94
q41 -92 113 -92t111 92q17 42 25 94q15 84 0 168q-8 52 -25 94q-39 92 -111 92q-74 0 -113 -90q-19 -40 -27 -95q-7 -49 -7 -85q0 -35 7 -84z" />
    <glyph glyph-name="Emacron" unicode="&#x112;" horiz-adv-x="1120" 
d="M72 4v1430h983v-301h-611v-330h574v-291h-574v-207h639v-301h-1011zM293 1493v227h541v-227h-541z" />
    <glyph glyph-name="emacron" unicode="&#x113;" horiz-adv-x="1005" 
d="M758 381l192 -256l-8 -18q-11 -30 -37 -47q-24 -16 -55 -27q-38 -13 -63 -18t-68 -11q-64 -10 -134 -13q-65 -3 -96 -3q-140 0 -231 50q-84 45 -140 127q-51 78 -69 170q-18 87 -18 177t20 182q19 89 74 169q57 81 144 125q91 48 235 48q156 0 249 -60q90 -57 142 -152
q49 -90 64 -194q16 -101 16 -190v-41h-606q6 -32 11 -48q9 -29 17 -46q33 -63 92 -63q27 0 66 3q35 3 78 11q38 9 64 21q18 7 26 24zM233 1081v228h541v-228h-541zM369 627h276q-10 50 -35 100q-34 64 -106 66q-33 0 -61.5 -18t-41.5 -48q-14 -27 -20 -49q-7 -26 -12 -51z
" />
    <glyph glyph-name="Ebreve" unicode="&#x114;" horiz-adv-x="1120" 
d="M72 4v1430h983v-301h-611v-330h574v-291h-574v-207h639v-301h-1011zM268 1819h258v-41q-2 -29 13 -56q3 -9 12 -15q6 -3 12 -3q7 0 11 3q11 9 14 15q14 26 12 56v41h256v-41q0 -54 -15 -103q-16 -55 -53.5 -99t-89.5 -70q-60 -29 -135 -27q-75 -2 -136 27
q-52 25 -89.5 69t-53.5 100q-16 53 -16 103v41z" />
    <glyph glyph-name="ebreve" unicode="&#x115;" horiz-adv-x="1005" 
d="M758 381l192 -256l-8 -18q-11 -30 -37 -47q-24 -16 -55 -27q-38 -13 -63 -18t-68 -11q-64 -10 -134 -13q-65 -3 -96 -3q-140 0 -231 50q-84 45 -140 127q-51 78 -69 170q-18 87 -18 177t20 182q19 89 74 169q57 81 144 125q91 48 235 48q156 0 249 -60q90 -57 142 -152
q49 -90 64 -194q16 -101 16 -190v-41h-606q8 -50 28 -94q33 -63 92 -63q27 0 66 3q35 3 78 11q38 9 64 21q18 7 26 24zM209 1407h258v-43q0 -14 3 -28q2 -12 9 -27q8 -15 25 -17q6 0 11 3q5 4 13 14q8 19 10 27q3 14 3 28v43h256v-41q0 -49 -16 -102q-15 -55 -51 -98
q-37 -44 -91 -72q-64 -31 -135 -29q-72 -2 -136 29q-54 26 -93 72q-36 43 -51 98q-15 50 -15 102v41zM369 627h276q-10 50 -35 100q-34 64 -106 66q-33 0 -61.5 -18t-41.5 -48q-14 -27 -20 -49q-7 -26 -12 -51z" />
    <glyph glyph-name="Edot" unicode="&#x116;" horiz-adv-x="1120" 
d="M72 4v1430h983v-301h-611v-330h574v-291h-574v-207h639v-301h-1011zM399 1493v309h330v-309h-330z" />
    <glyph glyph-name="edot" unicode="&#x117;" horiz-adv-x="1005" 
d="M758 381l192 -256l-8 -18q-11 -30 -37 -47q-24 -16 -55 -27q-38 -13 -63 -18t-68 -11q-64 -10 -134 -13q-65 -3 -96 -3q-140 0 -231 50q-84 45 -140 127q-51 78 -69 170q-18 87 -18 177t20 182q19 89 74 169q57 81 144 125q91 48 235 48q156 0 249 -60q90 -57 142 -152
q49 -90 64 -194q16 -101 16 -190v-41h-606q8 -50 28 -94q33 -63 92 -63q27 0 66 3q35 3 78 11q38 9 64 21q18 7 26 24zM340 1081v308h330v-308h-330zM369 627h276q-10 50 -35 100q-34 64 -106 66q-33 0 -61 -18t-42 -48q-14 -27 -20 -49q-7 -26 -12 -51z" />
    <glyph glyph-name="Eogonek" unicode="&#x118;" horiz-adv-x="1120" 
d="M72 4v1430h983v-301h-611v-330h574v-291h-574v-207h639v-301h-454q-26 -22 -45 -53q-20 -27 -23 -55q0 -66 92 -66h26q10 0 32 2q10 2 15 2q8 0 13 4h4q33 -10 54 -33q18 -21 30 -53q16 -36 23 -67l-14 -15q-19 -21 -49 -29q-42 -12 -52 -14q-17 -3 -51 -5q-16 -1 -41 -1
q-62 0 -124 20q-52 16 -95 53q-84 71 -82 181q0 35 18 62q16 27 37 53q8 10 13 14h-338z" />
    <glyph glyph-name="eogonek" unicode="&#x119;" horiz-adv-x="1005" 
d="M944 -316l-14 -14q-19 -19 -50 -29q-41 -12 -53 -14q-15 -3 -49 -5q-16 -1 -41 -1q-135 0 -218 71q-86 70 -83 181q0 28 17 57q20 36 32 52l7 6q-141 0 -232 50q-84 45 -140 127q-52 80 -70 170q-19 85 -19 177q0 90 20 182q19 89 74 169q57 81 144 125q91 48 235 48
q156 0 249 -60q90 -57 142 -152q49 -90 64 -194q16 -101 16 -190v-41h-606q6 -32 11 -48q9 -29 17 -46q33 -63 92 -63q27 0 66 3q35 3 78 11q38 9 64 21q16 6 26 22l33 84l194 -258l-8 -19q-11 -32 -40 -47q-32 -18 -54 -27q-19 -7 -55 -15q-30 -5 -46 -9q-8 -2 -11 -2
t-9 -2h-2q-8 -8 -10 -8q-22 -23 -41 -52q-17 -24 -19 -51q0 -63 92 -63h26q10 0 32 2q10 2 14 2t12 2q4 2 7 2q31 -9 53 -34q21 -24 31 -52q14 -30 22 -68zM369 627h276q-10 50 -35 100q-34 64 -106 66q-33 0 -61.5 -18t-41.5 -48q-14 -27 -20 -49q-7 -26 -12 -51z" />
    <glyph glyph-name="Ecaron" unicode="&#x11a;" horiz-adv-x="1120" 
d="M72 4v1430h983v-301h-611v-330h574v-291h-574v-207h639v-301h-1011zM428 1493l-248 352h305l84 -88q6 5 9 10q15 15 27 33q2 3 16 25l14 20h311l-248 -352h-270z" />
    <glyph glyph-name="ecaron" unicode="&#x11b;" horiz-adv-x="1005" 
d="M758 381l192 -256l-8 -18q-11 -30 -37 -47q-24 -16 -55 -27q-38 -13 -63 -18t-68 -11q-64 -10 -134 -13q-65 -3 -96 -3q-140 0 -231 50q-84 45 -140 127q-51 78 -69 170q-18 87 -18 177t20 182q19 89 74 169q57 81 144 125q91 48 235 48q156 0 249 -60q90 -57 142 -152
q49 -90 64 -194q16 -101 16 -190v-41h-606q8 -50 28 -94q33 -63 92 -63q27 0 66 3q35 3 78 11q38 9 64 21q18 7 26 24zM369 1081l-248 353h305l84 -90q6 6 8 10q24 24 43 57l14 23h312l-248 -353h-270zM369 627h276q-10 50 -35 100q-34 64 -106 66q-33 0 -61 -18t-42 -48
q-14 -27 -20 -49q-7 -26 -12 -51z" />
    <glyph glyph-name="Gcircumflex" unicode="&#x11c;" horiz-adv-x="1363" 
d="M600 541v301h719l-2 -43q0 -197 1 -296t1 -298v-19l-14 -12q-102 -82 -231 -133q-130 -53 -277 -53q-178 -3 -338 59q-139 54 -244 161q-99 102 -147 233q-50 134 -50 277.5t50 277.5q49 133 147 234q105 107 244 161q160 62 338 59q43 0 109 -3q70 -3 132 -13
q68 -10 132 -33q61 -18 102 -70l12 -14l-63 -201l-54 -151l-57 77q-24 32 -55 49q-34 19 -78 32q-46 14 -90 20q-45 6 -90 6q-92 2 -171 -37q-72 -36 -120 -96q-49 -63 -70 -137q-46 -160 0 -320q21 -74 70 -137q48 -60 120 -96q79 -39 171 -37q42 0 82 17q43 18 77 44v191
h-356zM414 1493l248 352h270l248 -352h-312l-14 23l-15 24q-10 15 -28 33q-3 6 -8 10l-84 -90h-305z" />
    <glyph glyph-name="Gbreve" unicode="&#x11e;" horiz-adv-x="1363" 
d="M600 541v301h719l-2 -43q0 -197 1 -296t1 -298v-19l-14 -12q-102 -82 -231 -133q-130 -53 -277 -53q-178 -3 -338 59q-139 54 -244 161q-99 102 -147 233q-50 134 -50 277.5t50 277.5q49 133 147 234q105 107 244 161q160 62 338 59q43 0 109 -3q70 -3 132 -13
q68 -10 132 -33q61 -18 102 -70l12 -14l-63 -201l-54 -151l-57 77q-24 32 -55 49q-34 19 -78 32q-46 14 -90 20q-45 6 -90 6q-92 2 -171 -37q-72 -36 -120 -96q-49 -63 -70 -137q-46 -160 0 -320q21 -74 70 -137q48 -60 120 -96q79 -39 171 -37q42 0 82 17q43 18 77 44v191
h-356zM502 1819h258v-41q-2 -30 12 -56q3 -9 12 -15q6 -3 13 -3t11 3q9 7 13 15q15 27 13 56v41h255v-41q0 -54 -15 -103q-33 -115 -142 -169q-60 -29 -135 -27q-75 -2 -137 27q-52 25 -89.5 69t-53.5 100q-15 49 -15 103v41z" />
    <glyph glyph-name="gbreve" unicode="&#x11f;" horiz-adv-x="1015" 
d="M51 -229l183 247l42 -59q12 -14 34 -23q30 -13 58 -21q35 -10 65 -15q29 -6 59 -6q76 0 111 39q39 50 34 112v21q-43 -30 -93 -45q-56 -17 -112 -17q-129 0 -211 54q-76 49 -121 131q-41 78 -53 162q-12 79 -12 161q0 79 11 165q11 87 52 167q42 82 120 136q78 56 214 56
q62 0 113 -17q52 -17 92 -46v47h313v-887q0 -83 -17 -170q-16 -83 -66 -158q-56 -78 -134 -117q-85 -46 -223 -46q-25 0 -73 2q-35 1 -70 6q-7 1 -28.5 4.5t-35.5 6.5q-41 7 -84 18q-30 8 -44 12q-25 7 -40 14q-5 2 -36 19q-19 10 -31 26zM199 1407h256v-43q0 -14 3 -28
q3 -17 11 -27q8 -15 25 -17q11 0 22 17q7 15 9 27q3 14 3 28v43h256v-41q0 -52 -15 -102q-16 -55 -50 -98q-35 -44 -90 -72q-64 -31 -135 -29q-73 -2 -137 29q-54 26 -92 72q-36 43 -51 98q-15 50 -15 102v41zM391 340q12 -36 43 -61q32 -22 68 -21q65 0 104 86q19 45 25 88
q6 39 6 80q0 42 -6 83q-5 44 -25 95q-39 92 -104 92q-78 0 -111 -88q-17 -45 -21 -93q-5 -50 -5 -89q0 -38 5 -85q4 -45 21 -87z" />
    <glyph glyph-name="Gdot" unicode="&#x120;" horiz-adv-x="1366" 
d="M600 541v301h719l-2 -43q0 -197 1 -296t1 -298v-19l-14 -12q-102 -82 -231 -133q-130 -53 -277 -53q-178 -3 -338 59q-139 54 -244 161q-99 102 -147 233q-50 134 -50 277.5t50 277.5q49 133 147 234q105 107 244 161q160 62 338 59q43 0 109 -3q70 -3 132 -13
q68 -10 132 -33q61 -18 102 -70l12 -14l-63 -201l-54 -151l-57 77q-24 32 -55 49q-34 19 -78 32q-46 14 -90 20q-45 6 -90 6q-92 2 -171 -37q-72 -36 -120 -96q-49 -63 -70 -137q-46 -160 0 -320q21 -74 70 -137q48 -60 120 -96q79 -39 171 -37q42 0 82 17q45 19 78 44v191
h-357zM633 1493v309h330v-309h-330z" />
    <glyph glyph-name="gdot" unicode="&#x121;" horiz-adv-x="1015" 
d="M51 -229l183 247l43 -59q12 -15 33 -23q30 -13 58 -21q35 -10 65 -15q29 -6 59 -6q76 0 111 39q39 50 34 112v21q-43 -30 -93 -45q-56 -17 -112 -17q-129 0 -211 54q-76 49 -121 131q-41 78 -53 162q-12 79 -12 161q0 79 11 165q11 87 52 167q42 82 120 136q78 56 214 56
q62 0 113 -17q52 -17 92 -46v47h313v-887q0 -83 -17 -170q-16 -83 -66 -158q-56 -78 -134 -117q-85 -46 -223 -46q-25 0 -73 2q-35 1 -70 6q-7 1 -28.5 4.5t-35.5 6.5q-41 7 -84 18q-30 8 -44 12q-25 7 -40 14q-5 2 -36 19q-19 10 -31 26zM326 1081v308h331v-308h-331z
M370 427q4 -45 21 -87q14 -38 43 -61q32 -22 68 -21q65 0 104 86q19 45 25 88q6 39 6 80q0 42 -6 83q-5 44 -25 95q-39 92 -104 92q-78 0 -111 -88q-17 -45 -21 -93q-5 -50 -5 -89q0 -38 5 -85z" />
    <glyph glyph-name="Hcircumflex" unicode="&#x124;" horiz-adv-x="1341" 
d="M72 4v1430h372v-625h453v625h373v-1430h-373v504h-453v-504h-372zM287 1493l248 352h272l246 -352h-310l-14 23q-8 11 -17 24q-16 21 -26 33q-4 4 -5 6t-3 4l-86 -90h-305z" />
    <glyph glyph-name="Itilde" unicode="&#x128;" horiz-adv-x="518" 
d="M-74 1493v43q0 36 7 87q6 55 28 103q11 28 27 49q15 22 40 42t54 32q35 14 72 12h45l2 -6q28 -10 53 -25q24 -14 43 -32q11 -8 18 -15q7 -5 17 -18q2 16 2 25v55h258v-41q0 -36 -7 -87q-7 -53 -30 -103q-11 -26 -27 -48q-16 -23 -39 -43q-25 -20 -53 -32q-31 -12 -71 -12
h-48v8q-26 10 -45 22q-11 8 -30 27t-27 29q-15 15 -22 24l-7 6q-4 -16 -4 -38v-64h-256zM72 4v1430h373v-1430h-373z" />
    <glyph glyph-name="itilde" unicode="&#x129;" horiz-adv-x="444" 
d="M-111 1081v41q0 37 7 88q7 57 28 103q23 51 67 93q53 49 126 44h45l2 -8q24 -9 53 -26q24 -14 43 -32q14 -10 19 -15q3 -3 8.5 -8t7.5 -7q2 16 2 23v57h258v-41q0 -37 -7 -88q-8 -56 -30 -103q-23 -54 -65 -93q-53 -49 -125 -44h-47v8q-24 7 -45 25q-18 13 -31 26l-27 27
q-5 4 -22 27q-4 4 -7 4q-4 -16 -4 -36v-65h-256zM66 4v1016h313v-1016h-313z" />
    <glyph glyph-name="Imacron" unicode="&#x12a;" horiz-adv-x="518" 
d="M-10 1493v227h538v-227h-538zM72 4v1430h374v-1430h-374z" />
    <glyph glyph-name="imacron" unicode="&#x12b;" horiz-adv-x="442" 
d="M-49 1081v228h538v-228h-538zM66 4v1016h311v-1016h-311z" />
    <glyph glyph-name="Ibreve" unicode="&#x12c;" horiz-adv-x="518" 
d="M-35 1819h256v-41q0 -15 3 -30q4 -16 12 -26q3 -9 12 -15q4 -3 10 -3t12 3q10 7 13 15q14 26 12 56v41h258v-41q0 -54 -15 -103q-16 -55 -53.5 -99.5t-90.5 -69.5q-61 -29 -136 -27q-75 -2 -135 27q-109 54 -142 169q-16 53 -16 103v41zM72 4v1430h372v-1430h-372z" />
    <glyph glyph-name="ibreve" unicode="&#x12d;" horiz-adv-x="444" 
d="M-72 1407h256v-43q0 -14 3 -28q3 -15 12 -27q7 -15 22 -17q17 2 25 17q7 15 9 27q3 14 3 28v43h258v-41q0 -52 -15 -102q-15 -55 -51 -98q-38 -45 -93 -72q-64 -31 -136 -29q-71 -2 -135 29q-54 28 -91 72q-37 46 -51 98q-16 53 -16 102v41zM66 4v1016h313v-1016h-313z
" />
    <glyph glyph-name="Idot" unicode="&#x130;" horiz-adv-x="516" 
d="M72 4v1430h372v-1430h-372zM94 1493v309h330v-309h-330z" />
    <glyph glyph-name="dotlessi" unicode="&#x131;" horiz-adv-x="442" 
d="M66 4v1016h311v-1016h-311z" />
    <glyph glyph-name="Jcircumflex" unicode="&#x134;" horiz-adv-x="950" 
d="M2 580l373 65v-51q0 -12 -2 -80q-2 -55 8 -102q5 -43 26 -74q14 -21 37 -19q38 0 54 33q11 21 14 42q4 20 4 46v994h373v-994q0 -82 -23 -163q-22 -83 -77.5 -149t-134.5 -100q-98 -43 -210 -40q-111 -3 -217 35q-80 30 -136 95q-51 61 -69 141q-20 86 -20 171v150z
M319 1493l248 352h271l247 -352h-311l-14 23q-10 16 -16 24q-20 27 -25 33q-4 4 -5 6t-5 4l-84 -90h-306z" />
    <glyph glyph-name="Lacute" unicode="&#x139;" 
d="M72 4v1430h372v-1129h545v-301h-917zM98 1493l101 352h395l-207 -352h-289z" />
    <glyph glyph-name="lacute" unicode="&#x13a;" horiz-adv-x="444" 
d="M65 4l1 1417h-58l101 353h397l-203 -340h76v-1430h-314z" />
    <glyph glyph-name="Lcaron" unicode="&#x13d;" horiz-adv-x="985" 
d="M72 4v1430h372v-1129h545v-301h-917zM508 1098l-6 352h342l-88 -352h-248z" />
    <glyph glyph-name="lcaron" unicode="&#x13e;" horiz-adv-x="442" 
d="M66 4v1430h303v16h344l-90 -352h-246v-1094h-311z" />
    <glyph glyph-name="Lslash" unicode="&#x141;" horiz-adv-x="1069" 
d="M160 4v533l-148 -39v239l148 39v658h372v-562l273 70v-239l-273 -70v-328h547v-301h-919z" />
    <glyph glyph-name="lslash" unicode="&#x142;" horiz-adv-x="638" 
d="M164 4v539l-148 -51v241l148 53v648h311v-537l150 51v-241l-150 -54v-649h-311z" />
    <glyph glyph-name="Nacute" unicode="&#x143;" horiz-adv-x="1280" 
d="M72 4v1430h383l381 -777v777h372v-1430h-461l-303 619v-619h-372zM295 1493l98 352h397l-206 -352h-289z" />
    <glyph glyph-name="nacute" unicode="&#x144;" horiz-adv-x="931" 
d="M66 4v1016h311v-45q87 57 192 55q105 0 166 -49q61 -48 92 -115q29 -63 39 -132q11 -73 11 -122v-608h-312v606q0 24 -5 54q-4 27 -15 51q-8 20 -25 34q-15 9 -33 9q-51 3 -82 -39q-30 -43 -28 -99v-616h-311zM311 1081l99 353h397l-209 -353h-287z" />
    <glyph glyph-name="Ncaron" unicode="&#x147;" horiz-adv-x="1280" 
d="M72 4v1430h383l381 -777v777h372v-1430h-461l-303 619v-619h-372zM506 1493l-250 352h305l86 -88q6 6 8 10q18 18 28 33q3 5 8.5 14t6.5 11l15 20h311l-248 -352h-270z" />
    <glyph glyph-name="ncaron" unicode="&#x148;" horiz-adv-x="931" 
d="M66 4v1016h311v-45q87 57 192 55q105 0 166 -49q61 -48 92 -115q29 -63 39 -132q10 -67 10 -122v-608h-311v606q0 24 -5 54q-4 27 -15 51q-8 20 -25 34q-15 9 -33 9q-51 3 -82 -39q-30 -43 -28 -99v-616h-311zM336 1081l-250 353h305l88 -91q3 6 8 11q14 16 26 32
q12 18 17 25l15 23h309l-246 -353h-272z" />
    <glyph glyph-name="Omacron" unicode="&#x14c;" horiz-adv-x="1396" 
d="M1014 56q-127 -68 -316 -68q-186 0 -313 68q-124 63 -210 174q-82 106 -117 236q-35 125 -35 253q0 79 13 153q14 79 42 150q37 88 91 161q54 74 135 136q81 60 177 95q105 38 217 36q113 2 218 -36q97 -33 178 -95q153 -117 225 -297q57 -144 57 -303q-2 -130 -36 -253
q-36 -132 -116 -236q-86 -111 -210 -174zM431 582q11 -73 48 -146q31 -63 88 -107q59 -40 131 -40t131 40q57 44 88 107q37 75 50 146q12 62 14 137q0 47 -6 94q-6 45 -23 94q-17 50 -37 88q-25 47 -54 77q-32 34 -73 55q-44 22 -90 22q-49 0 -89 -22q-42 -23 -72 -55
q-34 -35 -56 -77q-20 -38 -37 -88q-26 -88 -26 -188q2 -73 13 -137zM428 1493v227h541v-227h-541z" />
    <glyph glyph-name="omacron" unicode="&#x14d;" horiz-adv-x="1011" 
d="M741 36q-91 -48 -235 -48t-236 48q-89 44 -145 125q-54 77 -74 170q-20 92 -20 181q0 91 20 183t74 169q59 81 145 124q91 48 236 48q144 0 235 -48q90 -45 146 -125q54 -78 73 -169q41 -181 0 -363q-20 -95 -73 -170q-56 -80 -146 -125zM236 1081v228h538v-228h-538z
M366 421q4 -49 23 -99q37 -99 117 -99q78 0 115 99q19 50 23 99q5 58 5 91q0 34 -5 92q-5 52 -23 101q-37 96 -115 96q-81 0 -117 -96q-18 -49 -23 -101q-6 -72 -6 -92q0 -21 6 -91z" />
    <glyph glyph-name="Obreve" unicode="&#x14e;" horiz-adv-x="1396" 
d="M1014 56q-127 -68 -316 -68q-186 0 -313 68q-124 63 -210 174q-82 106 -117 236q-35 125 -35 253q0 79 13 153q14 79 42 150q37 88 91 161q54 74 135 136q81 60 177 95q105 38 217 36q113 2 218 -36q97 -33 178 -95q153 -117 225 -297q57 -144 57 -303q-2 -130 -36 -253
q-36 -132 -116 -236q-86 -111 -210 -174zM405 1819h256v-41q-2 -29 13 -56q4 -8 13 -15q5 -3 11 -3q7 0 13 3q9 6 12 15q14 26 12 56v41h258v-41q0 -54 -15 -103q-16 -56 -53.5 -100t-89.5 -69q-62 -29 -137 -27q-75 -2 -135 27q-109 54 -142 169q-16 53 -16 103v41z
M431 581q14 -79 48 -145q31 -63 88 -107q59 -40 131 -40t131 40q57 44 88 107q37 75 50 146q12 62 14 137q0 47 -6 94q-6 45 -23 94q-17 50 -37 88q-25 47 -54 77q-32 34 -73 55q-44 22 -90 22q-49 0 -89 -22q-42 -23 -72 -55q-34 -35 -56 -77q-20 -38 -37 -88
q-26 -88 -26 -188q0 -63 13 -138z" />
    <glyph glyph-name="obreve" unicode="&#x14f;" horiz-adv-x="1011" 
d="M741 36q-91 -48 -235 -48t-236 48q-89 44 -145 125q-54 77 -74 170q-20 91 -20 181q0 91 20 183t74 169q59 81 145 124q91 48 236 48q144 0 235 -48q90 -45 146 -125q54 -78 73 -169q41 -181 0 -363q-20 -95 -73 -170q-56 -80 -146 -125zM211 1407h258v-43q0 -14 3 -28
q2 -12 9 -27q8 -15 25 -17q11 0 22 17q9 12 12 27q3 14 3 28v43h256v-41q0 -49 -16 -102q-14 -52 -51 -98q-37 -44 -91 -72q-64 -31 -135 -29q-72 -2 -136 29q-55 27 -93 72q-36 43 -51 98q-15 50 -15 102v41zM366 421q4 -49 23 -99q37 -99 117 -99q78 0 115 99q19 50 23 99
q5 58 5 91q0 34 -5 92q-5 52 -23 101q-37 96 -115 96q-80 0 -117 -96q-18 -49 -23 -101q-6 -72 -6 -92q0 -21 6 -91z" />
    <glyph glyph-name="Racute" unicode="&#x154;" horiz-adv-x="1144" 
d="M72 4v1430h407q118 1 236 -26q95 -20 181 -80q76 -55 116 -139q44 -96 41 -202q0 -63 -14 -130q-14 -65 -45 -121q-33 -59 -85 -103q-61 -52 -131 -78l373 -551h-428l-279 408v-408h-372zM401 1493l101 352h397l-209 -352h-289zM444 795h45q104 0 148 50q43 49 43 142
q0 86 -53 122t-158 36h-25v-350z" />
    <glyph glyph-name="racute" unicode="&#x155;" horiz-adv-x="632" 
d="M66 4v1016h311v-53q90 58 198 53h50v-307h-86q-43 3 -81 -21q-32 -22 -48 -57q-21 -40 -27 -86q-6 -45 -6 -90v-455h-311zM184 1081l101 353h397l-209 -353h-289z" />
    <glyph glyph-name="Rcaron" unicode="&#x158;" horiz-adv-x="1146" 
d="M72 4v1430h407q118 1 236 -26q95 -20 181 -80q76 -55 116 -139q44 -96 41 -202q0 -63 -14 -130q-14 -65 -45 -121q-33 -59 -85 -103q-61 -52 -131 -78l373 -551h-428l-279 408v-408h-372zM428 1493l-250 352h305l86 -88q6 5 9 10q15 15 27 33q2 3 16 25l14 20h311
l-248 -352h-270zM444 795h45q104 0 148 50q43 49 43 142q0 87 -53 122q-54 36 -158 36h-25v-350z" />
    <glyph glyph-name="rcaron" unicode="&#x159;" horiz-adv-x="634" 
d="M211 1081l-250 353h305l88 -91q3 5 4 6q2 1 4 5q14 16 26 32q12 18 17 25l15 23h309l-246 -353h-272zM65 4v1016h314v-53q88 58 196 53h52v-307h-88q-44 2 -80 -21q-33 -22 -50 -57q-17 -36 -24 -86q-6 -45 -6 -90v-455h-314z" />
    <glyph glyph-name="Sacute" unicode="&#x15a;" horiz-adv-x="1161" 
d="M51 164l154 360l53 -82q20 -22 51 -41q68 -40 156 -68q87 -28 172 -28q129 0 129 109q0 57 -72 96q-37 19 -77 31q-36 10 -86 22q-91 19 -195 59q-88 33 -161 90q-69 55 -109 131q-44 88 -41 181q-1 87 34 170q34 78 97 134q68 59 154 89q99 35 204 33q44 0 88 -3
q58 -4 88 -7q2 0 78 -11q50 -7 111 -20q36 -7 58 -13q7 -2 52 -16q22 -6 45 -17q22 -11 39 -28l15 -18l-11 -21q-19 -40 -57 -116q-43 -87 -59 -115l-35 -68l-51 60q0 5 -31 16q-39 15 -74 23q-35 9 -80 16q-44 7 -59 10q-29 5 -58 6q-40 2 -59 2q-44 3 -80 -21
q-28 -20 -28 -56q0 -54 67 -88q35 -19 76 -30q16 -5 47 -12.5t35 -8.5q100 -21 204 -64q86 -35 160 -98q68 -59 106 -141q40 -91 38 -189q1 -89 -33 -178q-32 -80 -96 -136q-70 -61 -158 -88q-105 -34 -215 -32q-61 0 -130 8q-73 8 -157 26q-72 15 -152 44q-67 22 -118 63
q-9 6 -18 19zM410 1493l98 352h397l-209 -352h-286z" />
    <glyph glyph-name="sacute" unicode="&#x15b;" horiz-adv-x="915" 
d="M14 110l140 185l86 -4l12 -4q28 -13 47 -19q40 -11 54 -13q7 -1 20.5 -3.5t17.5 -3.5q39 -6 80 -6q21 0 42 3q20 3 38 9q26 14 26 29q-3 44 -42 61q-16 9 -52 21q-38 12 -57 16q-78 18 -140 44q-64 26 -116 69q-48 41 -78 100q-30 61 -28 131q-2 70 30 130q31 57 85 95
q57 40 125 60q70 20 151 20q40 0 83 -4q55 -5 98 -13q41 -7 97 -25q43 -14 80 -36q5 -5 11 -8q10 -7 14 -14l12 -19l-160 -241l-43 65q-12 15 -30 21q-27 11 -52 18q-38 10 -58 14q-30 7 -52 7q-35 3 -68 -16q-22 -13 -22 -38q0 -40 36 -60q44 -27 99 -36q77 -16 141 -41
q67 -25 125 -68q53 -38 89 -98q36 -63 34 -135q2 -73 -36 -135q-37 -59 -94 -95q-65 -41 -134 -57q-75 -18 -154 -18q-67 0 -135 6q-4 0 -23.5 2.5t-35.5 4.5q-29 3 -91 13q-39 8 -88 23q-7 3 -19 7t-18 7l-18 12q-11 8 -16 17zM295 1081l100 353h397l-208 -353h-289z" />
    <glyph glyph-name="Scircumflex" unicode="&#x15c;" horiz-adv-x="1161" 
d="M51 164l154 360l53 -82q20 -22 51 -41q68 -40 156 -68q87 -28 172 -28q129 0 129 109q0 57 -72 96q-37 19 -77 31q-36 10 -86 22q-91 19 -195 59q-88 33 -161 90q-69 55 -109 131q-44 88 -41 181q-2 89 33 170q33 77 98 134q68 59 154 89q99 35 204 33q44 0 88 -3
q58 -4 88 -7q2 0 78 -11q50 -7 111 -20q36 -7 58 -13q7 -2 52 -16q22 -6 45 -17q22 -11 39 -28l15 -18l-11 -21q-19 -40 -57 -116q-43 -87 -59 -115l-35 -68l-51 60q0 5 -31 16q-39 15 -74 23q-35 9 -80 16q-44 7 -59 10q-28 4 -59 6q-40 2 -58 2q-44 3 -80 -21
q-29 -21 -29 -56q0 -53 68 -88q35 -19 76 -30q16 -5 47 -12.5t35 -8.5q98 -21 203 -64q88 -36 161 -98q68 -59 106 -141q40 -91 38 -189q1 -89 -33 -178q-32 -80 -96 -136q-70 -61 -158 -88q-105 -34 -215 -32q-61 0 -130 8q-73 8 -157 26q-72 15 -152 44q-66 22 -118 63
q-11 8 -19 19zM184 1493l250 352h271l247 -352h-311l-14 23q-10 16 -16 24q-20 27 -25 33q-4 4 -5 6t-5 4l-86 -90h-306z" />
    <glyph glyph-name="Scedilla" unicode="&#x15e;" horiz-adv-x="1161" 
d="M444 -276l103 81q-15 3 -32 13q-13 10 -21 22q-14 14 -11 35l27 121q-60 7 -111 16q-58 10 -120 27q-48 13 -113 39q-47 18 -86 51q-11 7 -18 21l-11 14l154 362l53 -83q8 -9 17 -17q8 -8 13 -11t13 -9q79 -47 160 -72q87 -29 176 -29q129 0 129 109q0 57 -72 96
q-35 21 -77 33q-49 14 -84 20q-96 20 -195 58q-86 31 -162 90q-68 54 -110 132q-44 88 -41 181q-2 89 33 170q33 77 98 134q68 59 154 89q99 35 204 33q118 0 240 -17q114 -14 235 -52q9 -5 17 -8q11 -3 20 -7q16 -8 23 -12q11 -6 24 -19l15 -18l-11 -23l-57 -114
q-29 -58 -59 -115l-86 -6q-2 2 -5 2q-2 0 -4 2q-4 3 -12 5q-9 2 -10 3q-73 30 -161 44q-90 16 -169 16q-42 3 -80 -22q-28 -20 -28 -56q0 -54 67 -88q35 -19 76 -30q16 -5 44.5 -12t35.5 -9q107 -21 206 -63q84 -34 160 -99q68 -59 106 -141q40 -90 38 -189
q0 -178 -108 -294q-108 -115 -314 -136q39 -10 70 -37q28 -25 44 -55q17 -31 23 -64q6 -28 6 -57q0 -37 -11 -76q-12 -39 -38 -71q-29 -35 -70 -55q-50 -23 -104 -21q-36 0 -65 7t-62 23q-27 14 -48 42q-22 31 -20 67v15zM629 -182l-6 -53v-9q-1 -7 4 -16q2 0 3 -1t3 -1
q-1 0 -1 2t1 2q8 19 8 37q0 20 -8 35q0 2 -2 6zM645 -176q-8 -4 -14 -4q2 0 4 -2h2q1 1 5 3q3 1 3 3z" />
    <glyph glyph-name="scedilla" unicode="&#x15f;" horiz-adv-x="913" 
d="M277 -274l96 75q-25 9 -43 33q-19 18 -13 41l31 127q-6 0 -18.5 1t-18.5 2q-25 2 -37 5q-3 0 -18 2.5t-28 4.5q-10 1 -21.5 3.5t-26.5 5.5t-24 5q-28 7 -37 10q-3 1 -33 10q-11 5 -17 6q-13 5 -16 7q-3 3 -13 11t-15 17l-11 21l138 182l88 -6q2 -2 3 -1l5 -1
q23 -11 45 -17q38 -11 51 -13q6 -1 14.5 -3t13.5 -3t9 -1q22 -4 44 -6q28 -2 44 -2q21 0 42 3q20 3 38 9q26 14 26 29q0 35 -42 61q-20 11 -52 22q-29 9 -57 15q-78 18 -140 44q-62 25 -116 70q-49 42 -78 99q-30 61 -28 131q-2 70 30 130q31 57 85 95q57 40 125 60
q70 20 151 20q37 0 80 -4q56 -5 100 -13q40 -7 99 -25q45 -15 81 -36q16 -14 23 -22l12 -19l-162 -243l-43 67q-12 15 -28 21q-20 9 -51 18q-44 11 -59 14q-30 7 -52 7q-35 3 -68 -16q-22 -13 -22 -38q0 -40 36 -60q44 -27 99 -36q77 -16 141 -41q67 -25 125 -68
q53 -38 89 -98q36 -63 34 -135q1 -64 -30 -124q-31 -56 -81 -92q-53 -39 -117 -59q-72 -22 -137 -28v-2q46 -5 84 -32q31 -23 52 -57q19 -31 27 -68q7 -37 7 -62q0 -37 -11 -76q-12 -40 -38 -72q-27 -33 -69 -54q-48 -23 -103 -21q-35 0 -64 7q-37 8 -64 22q-30 16 -49 42
q-22 31 -20 68v14zM459 -211l-3 -24q-2 -2 -2 -9q0 -9 7 -16l4 -2q-2 0 2 4q6 18 6 37q0 9 -2 14v-4h-12z" />
    <glyph glyph-name="Scaron" unicode="&#x160;" horiz-adv-x="1161" 
d="M51 164l154 360l53 -82q20 -22 51 -41q68 -40 156 -68q87 -28 172 -28q129 0 129 109q0 57 -72 96q-37 19 -77 31q-36 10 -86 22q-91 19 -195 59q-88 33 -161 90q-69 55 -109 131q-44 88 -41 181q-1 87 34 170q34 78 97 134q68 59 154 89q99 35 204 33q44 0 88 -3
q58 -4 88 -7q2 0 78 -11q50 -7 111 -20q40 -8 58 -13q7 -2 52 -16q22 -6 45 -17q22 -11 39 -28l15 -18l-11 -21q-19 -40 -57 -116q-29 -58 -59 -115l-35 -68l-51 60q0 5 -31 16q-39 15 -74 23q-35 9 -80 16q-44 7 -59 10q-28 4 -59 6q-40 2 -58 2q-44 3 -80 -21
q-28 -20 -28 -56q0 -54 67 -88q35 -19 76 -30q16 -5 47 -12.5t35 -8.5q100 -21 204 -64q86 -35 160 -98q68 -59 106 -141q40 -91 38 -189q1 -89 -33 -178q-32 -80 -96 -136q-70 -61 -158 -88q-105 -34 -215 -32q-61 0 -130 8q-73 8 -157 26q-72 15 -152 44q-66 22 -118 63
q-11 8 -19 19zM434 1493l-250 352h306l86 -88q4 2 5 4t5 6q5 6 25 33q2 3 16 25l14 20h311l-247 -352h-271z" />
    <glyph glyph-name="scaron" unicode="&#x161;" horiz-adv-x="915" 
d="M14 110l140 185l86 -4l12 -4q28 -13 47 -19q40 -11 54 -13q7 -1 20.5 -3.5t17.5 -3.5q39 -6 80 -6q21 0 42 3q20 3 38 9q26 14 26 29q-3 44 -42 61q-16 9 -52 21q-38 12 -57 16q-78 18 -140 44q-62 25 -116 70q-49 42 -78 99q-31 63 -29 131q-2 68 31 130q31 57 85 95
q57 40 125 60q70 20 151 20q40 0 83 -4q55 -5 98 -13q41 -7 97 -25q43 -14 80 -36q5 -5 11 -8q10 -7 14 -14l12 -19l-160 -241l-43 65q-12 15 -30 21q-27 11 -52 18q-38 10 -58 14q-30 7 -52 7q-35 3 -68 -16q-22 -13 -22 -38q0 -40 36 -60q44 -27 99 -36q77 -16 141 -41
q67 -25 125 -68q53 -38 89 -98q36 -63 34 -135q2 -73 -36 -135q-37 -59 -94 -95q-65 -41 -134 -57q-75 -18 -154 -18q-67 0 -135 6q-5 0 -24.5 2.5t-35.5 4.5q-49 5 -90 13q-39 8 -88 23q-7 3 -19 7t-18 7l-18 12q-11 8 -16 17zM319 1081l-247 353h305l84 -91l10 11
q14 16 26 32q3 5 8.5 14t6.5 11l14 23h312l-248 -353h-271z" />
    <glyph glyph-name="Tcaron" unicode="&#x164;" horiz-adv-x="1087" 
d="M356 4v1129h-366v301h1108v-301h-367v-1129h-375zM407 1493l-245 352h305l84 -88q6 6 8 10q15 17 27 33q8 11 16 25l14 20h310l-246 -352h-273z" />
    <glyph glyph-name="tcaron" unicode="&#x165;" horiz-adv-x="655" 
d="M622 4h-243q-43 0 -85 6q-33 4 -71 23q-30 16 -51 46q-23 35 -29 77q-5 34 -7 74q-1 25 -1 77v469h-121v244h121v219l313 252v-41h336l-90 -352h-246v-78h175v-244h-175v-504q-1 -5 2 -10v-4q12 -3 23 -2h149v-252z" />
    <glyph glyph-name="Utilde" unicode="&#x168;" horiz-adv-x="1257" 
d="M55 1434h373v-822q0 -50 8 -106q8 -52 31 -96q21 -41 60 -66q47 -27 102 -24q55 -3 100 24q37 25 59 66q24 48 31 96q8 56 8 106v822h375v-871q0 -111 -29 -219q-28 -104 -95 -183q-73 -84 -176 -126q-132 -52 -273 -47q-143 -5 -275 47q-101 40 -173 121.5t-98 187.5
q-28 106 -28 219v871zM295 1479v41q0 36 7 87q7 53 30 103q12 29 26 48q16 23 39 43q25 22 54 32q34 12 71 12h47v-6q26 -10 54 -26q27 -17 45 -31q3 -2 8.5 -8t8.5 -8q5 -5 17 -15q2 14 2 22v58h256v-43q0 -36 -7 -87q-8 -55 -30 -104q-11 -27 -25 -48q-18 -26 -39 -43
q-23 -19 -54 -31q-37 -14 -72 -13h-45l-2 8q-19 8 -43 23q-10 8 -32 27q-9 9 -27 28q-6 8 -11 13l-12 12q-2 2 -2 3t-2 3q-3 -12 -5 -38q-1 -12 -1 -21v-41h-256z" />
    <glyph glyph-name="utilde" unicode="&#x169;" horiz-adv-x="933" 
d="M557 4v43q-38 -29 -80 -43q-47 -16 -100 -16q-115 0 -180 43q-66 43 -99 108q-29 64 -35 133q-6 72 -6 133v615h312v-615q0 -19 2 -57q1 -27 12 -51q6 -19 22.5 -30t36.5 -9q26 -2 49 11.5t35 37.5q19 29 24 55q7 27 7 60v598h311v-1016h-311zM131 1081v41q0 37 7 88
q8 56 28 103q24 53 66 93q53 49 126 44h45l2 -8q26 -10 54 -26q24 -14 43 -32l36 -30v80h258v-41q0 -37 -7 -88q-8 -59 -29 -103q-23 -53 -66 -93q-53 -49 -125 -44h-47v8q-25 8 -45 25q-18 13 -31 26q-5 5 -13.5 14t-12.5 13q-8 8 -11 13t-12 14q-4 4 -6 4q-4 -16 -4 -36
v-65h-256z" />
    <glyph glyph-name="Umacron" unicode="&#x16a;" horiz-adv-x="1257" 
d="M55 1434h373v-822q0 -50 8 -106q8 -52 31 -96q21 -41 60 -66q47 -27 102 -24q55 -3 100 24q37 25 59 66q24 48 31 96q8 56 8 106v822h375v-871q0 -111 -29 -219q-28 -104 -95 -183q-73 -84 -176 -126q-132 -52 -273 -47q-143 -5 -275 47q-101 40 -173 121.5t-98 187.5
q-28 106 -28 219v871zM358 1479v225h539v-225h-539z" />
    <glyph glyph-name="umacron" unicode="&#x16b;" horiz-adv-x="933" 
d="M606 4l-49 41q-38 -26 -80 -41q-47 -16 -100 -16q-115 0 -180 43q-66 43 -99 108q-29 64 -35 133q-6 72 -6 133v615h312v-615q0 -19 2 -57q1 -27 12 -51q6 -19 22.5 -30t36.5 -9q26 -2 49 11.5t35 37.5q19 29 24 55q7 27 7 60v598h311v-1016h-262zM195 1081v228h538v-228
h-538z" />
    <glyph glyph-name="Ubreve" unicode="&#x16c;" horiz-adv-x="1257" 
d="M55 1434h373v-822q0 -50 8 -106q8 -52 31 -96q21 -41 60 -66q47 -27 102 -24q55 -3 100 24q37 25 59 66q24 48 31 96q8 56 8 106v822h375v-871q0 -111 -29 -219q-28 -104 -95 -183q-73 -84 -176 -126q-132 -52 -273 -47q-143 -5 -275 47q-101 40 -173 121.5t-98 187.5
q-28 106 -28 219v871zM334 1802h256v-41q-2 -29 14 -55q7 -16 25 -18q11 0 22 18q16 28 15 55v41h256v-41q0 -49 -16 -102q-33 -115 -142 -169q-62 -30 -135 -28q-72 -2 -136 28q-53 25 -90.5 69.5t-53.5 99.5q-15 49 -15 102v41z" />
    <glyph glyph-name="ubreve" unicode="&#x16d;" horiz-adv-x="933" 
d="M606 4l-49 41q-38 -26 -80 -41q-47 -16 -100 -16q-115 0 -180 43q-66 43 -99 108q-29 64 -35 133q-6 72 -6 133v615h312v-615q0 -19 2 -57q1 -27 12 -51q6 -19 22.5 -30t36.5 -9q26 -2 49 11.5t35 37.5q19 29 24 55q7 27 7 60v598h311v-1016h-262zM170 1407h256v-43
q0 -14 3 -28q3 -17 11 -27q11 -17 23 -17q11 0 22 17q9 12 12 27q3 14 3 28v43h256v-41q0 -49 -16 -102q-16 -55 -50 -98q-37 -46 -91 -72q-64 -31 -136 -29q-71 -2 -135 29q-54 28 -91 72q-37 45 -52 98q-15 50 -15 102v41z" />
    <glyph glyph-name="Uring" unicode="&#x16e;" horiz-adv-x="1255" 
d="M55 1434h373v-824q0 -48 8 -104q8 -52 31 -96q21 -41 60 -66q47 -27 102 -24q55 -3 100 24q37 25 59 66q24 48 31 96q8 56 8 104v824h373v-871q0 -113 -28 -219q-26 -106 -97.5 -187.5t-172.5 -121.5q-132 -52 -273 -47q-143 -5 -275 47q-101 40 -173 121.5t-98 187.5
q-28 106 -28 219v871zM432 1599q-10 33 -10 72q0 40 11 72q10 35 37 61q26 27 64 43q46 19 95 17q108 0 158 -59q51 -57 51 -134q0 -38 -12 -74q-9 -31 -36 -61q-26 -28 -64 -42q-47 -17 -97 -15q-53 -2 -98 16q-36 14 -64 43q-24 26 -35 61zM629 1659v-4q4 0 4 16
q0 7 -2 11q-2 2 -2 6q0 -4 -1 -6q-1 -4 -1 -11q0 -8 2 -12z" />
    <glyph glyph-name="uring" unicode="&#x16f;" horiz-adv-x="933" 
d="M557 4v43q-38 -29 -80 -43q-47 -16 -100 -16q-115 0 -180 43q-66 43 -99 108q-29 64 -35 133q-6 72 -6 133v615h312v-615q0 -19 2 -57q1 -27 12 -51q6 -19 22.5 -30t36.5 -9q26 -2 49 11.5t35 37.5q19 29 24 55q7 27 7 60v598h311v-1016h-311zM265 1202q-11 33 -11 74
q0 38 12 72q11 33 38 61q25 26 65 43q94 34 188 0q40 -17 65 -43q25 -25 36 -61q12 -34 12 -72q0 -35 -11 -73q-11 -36 -34 -62q-27 -29 -65 -43q-97 -34 -194 0q-38 14 -65 43q-27 30 -36 61zM463 1257q0 4 1 6q1 4 1 13v10q-2 2 -2 4q-4 0 -4 -14q0 -9 2 -13q2 -2 2 -6z
" />
    <glyph glyph-name="Wcircumflex" unicode="&#x174;" horiz-adv-x="1583" 
d="M285 4l-279 1370q-2 6 -2 19v41h387l8 -35l93 -516l127 551h346l133 -551q30 172 44 258t44 258l6 35h389v-41q0 -6 -1 -9t-1 -8l-289 -1372h-348l-152 637l-157 -637h-348zM408 1493l249 352h273l246 -352h-310l-14 23q-8 11 -17 24q-16 21 -26 33q-4 4 -5 6t-3 4
l-88 -90h-305z" />
    <glyph glyph-name="Ycircumflex" unicode="&#x176;" horiz-adv-x="1136" 
d="M381 4v79q0 44 1 73t1 95v380q-9 30 -24 61q-18 36 -29 54q-6 11 -19 32t-16 26q-27 44 -37 66l-256 496l45 -25q-18 11 -31 26q-12 14 -24 32q-13 20 -19 35h332l14 -25q82 -148 124 -222t124 -222l126 222q42 74 124 222l14 25h332l-37 -93l-247 -471q-10 -22 -37 -66
q-24 -40 -35 -59q-35 -55 -53 -116v-378q0 -66 1 -95t1 -73v-79h-375zM186 1493l246 352h272l246 -352h-309l-14 23q-3 5 -17 24q-16 22 -26 33q-1 2 -9 10l-84 -90h-305z" />
    <glyph glyph-name="Ydieresis" unicode="&#x178;" horiz-adv-x="1136" 
d="M381 4v41v38q0 44 1 73t1 95v380q-9 30 -24 61q-18 36 -29 54q-6 11 -19 32t-16 26q-27 44 -37 66l-256 496l45 -25q-18 11 -31 26q-12 14 -24 32q-13 20 -19 35h332l14 -25q82 -148 124 -222t124 -222l126 222q42 74 124 222l14 25h332l-37 -93l-247 -471
q-10 -22 -37 -66q-24 -40 -35 -59q-35 -55 -53 -116v-378q0 -66 1 -95t1 -73v-79h-375zM260 1493v309h616v-309h-616z" />
    <glyph glyph-name="Zacute" unicode="&#x179;" horiz-adv-x="1134" 
d="M20 4v270l617 859h-590v301h1061v-271l-617 -858h617v-301h-1088zM420 1493l98 352h397l-208 -352h-287z" />
    <glyph glyph-name="zacute" unicode="&#x17a;" horiz-adv-x="854" 
d="M27 4v41v109q0 37 6 37l366 585h-346v244h746v-147q0 -11 -1 -16q-1 -4 -1 -13q-2 -6 -4 -10l-377 -584h414v-246h-803zM281 1081l100 353h397l-209 -353h-288z" />
    <glyph glyph-name="Zdot" unicode="&#x17b;" horiz-adv-x="1134" 
d="M20 4l1 270l616 859h-590v301h1061v-271l-616 -858h616v-301h-1088zM414 1493v309h332v-309h-332z" />
    <glyph glyph-name="zdot" unicode="&#x17c;" horiz-adv-x="851" 
d="M27 4v41v109q0 37 6 37l366 585h-346v244h746v-147q0 -11 -1 -16q-1 -4 -1 -13q-3 -8 -4 -10l-377 -584h413v-246h-802zM277 1081v308h329v-308h-329z" />
    <glyph glyph-name="Zcaron" unicode="&#x17d;" horiz-adv-x="1136" 
d="M21 4l-1 270l617 859h-590v301h1061v-271l-616 -858h616v-301h-1087zM442 1493l-247 352h305l86 -88q6 6 8 10q5 6 25 33q3 4 7 9.5t6.5 9.5t4.5 6l14 20h309l-245 -352h-273z" />
    <glyph glyph-name="zcaron" unicode="&#x17e;" horiz-adv-x="854" 
d="M27 4v41v109q0 37 6 37l366 585h-346v244h746v-147q0 -11 -1 -16q-1 -4 -1 -13q-3 -8 -4 -10l-377 -584h414v-246h-803zM307 1081l-250 353h305l87 -91q3 5 4 6q2 1 4 5q17 17 27 32q2 3 16 25l14 23h311l-247 -353h-271z" />
    <glyph glyph-name="oogonek" unicode="&#x1eb;" horiz-adv-x="1306" 
d="M934 -178l-111 184q-84 -18 -170 -18q-140 -3 -273 49q-114 46 -197 131q-80 83 -117 189q-39 108 -39 225q2 238 163 407q85 88 197 135q128 51 266.5 51t266.5 -51q110 -46 196 -135q81 -84 121 -190q41 -105 41 -217q0 -124 -42 -236q-46 -124 -146 -209l96 -162z
M598 385l248 156l49 -82q10 26 13 59q3 32 3 64q0 59 -16 111q-15 54 -49 102q-32 44 -81 73q-52 31 -112 29q-60 2 -112 -29q-50 -30 -82 -73q-33 -47 -50 -102q-18 -59 -18 -111q0 -56 16 -117q13 -55 48 -102q34 -44 82 -70q54 -29 116 -27q10 0 15 2z" />
    <glyph glyph-name="uni0226" unicode="&#x226;" horiz-adv-x="1345" 
d="M-18 4l12 51q4 8 4 13l494 1314l-17 52h385l485 -1368q5 -10 5 -13l12 -49h-389l-10 31q-11 29 -31 87t-31 87l-457 2q-5 -14 -31 -89q-10 -29 -32 -87l-10 -31h-389zM518 1493v309h332v-309h-332zM549 498h252l-123 352q-56 -151 -65 -175q-4 -11 -27.5 -76.5
t-36.5 -100.5z" />
    <glyph glyph-name="uni0262" unicode="&#x262;" horiz-adv-x="1257" 
d="M551 420v278h667v-542l-16 -13q-94 -76 -216 -115q-126 -40 -253 -40q-149 -2 -290 42q-124 38 -226 120q-95 79 -146 187q-53 116 -53 243.5t53 243.5q52 111 146 188q102 82 225 121q136 44 291 42q37 0 104 -5q70 -7 123 -17q63 -14 119 -36q55 -20 92 -66l13 -17
l-107 -328l-59 80q-48 59 -122 82q-79 29 -163 29q-167 0 -258 -88q-92 -95 -92 -228t92 -228q91 -87 258 -87q82 -2 150 43v111h-332z" />
    <glyph glyph-name="uni026a" unicode="&#x26a;" horiz-adv-x="462" 
d="M57 4v1155h346v-1155h-346z" />
    <glyph glyph-name="uni0274" unicode="&#x274;" horiz-adv-x="1091" 
d="M57 4v1155h340l291 -565v565h346v-1155h-413l-220 428v-428h-344z" />
    <glyph glyph-name="uni0280" unicode="&#x280;" horiz-adv-x="1036" 
d="M57 4v1155h334q103 0 198 -16q89 -15 174 -58q76 -39 125 -110q53 -82 48 -178q3 -118 -63 -215q-63 -90 -197 -135q52 -63 154 -189q9 -11 155 -188l55 -66h-407l-232 285v-285h-344zM401 889v-213q74 -5 142 28q25 14 38 39.5t11 53.5q2 26 -16 45q-18 18 -44 26
q-34 12 -62 16q-38 5 -69 5z" />
    <glyph glyph-name="uni028f" unicode="&#x28f;" horiz-adv-x="1085" 
d="M369 4v623l-338 460l41 -20q-34 18 -41 23q-2 1 -4 3t-4 3l-46 63h338l15 -18q100 -120 106 -127q61 -71 107 -129q35 44 105 128q92 110 106 128l14 18h340l-47 -63q-2 -2 -2 -3t-2 -3l-13 -23l-329 -440v-623h-346z" />
    <glyph glyph-name="uni0299" unicode="&#x299;" horiz-adv-x="1142" 
d="M57 4v1155h457q99 0 183 -11q79 -9 153 -46q66 -35 105 -98q45 -78 40 -168q0 -129 -94 -217q93 -30 161 -100q67 -70 64 -167q3 -93 -35 -172q-34 -66 -101 -106q-74 -42 -152 -54q-93 -16 -195 -16h-586zM401 889v-201q22 0 33 -1t33 -1q69 -3 125 35q49 35 47 96
q0 43 -24 58q-22 14 -93 14h-121zM401 275l172 -1q98 0 143 20q44 20 44 85q0 6 -14 16q-30 17 -62 23q-47 8 -84 11q-44 3 -65 3h-134v-157z" />
    <glyph glyph-name="uni029c" unicode="&#x29c;" horiz-adv-x="1163" 
d="M57 4v1155h344v-508h359v508h346v-1155h-346v371h-359v-371h-344z" />
    <glyph glyph-name="uni029f" unicode="&#x29f;" horiz-adv-x="851" 
d="M57 4v1155h347v-876h452v-279h-799z" />
    <glyph glyph-name="circumflex" unicode="&#x2c6;" horiz-adv-x="837" 
d="M35 1081l245 353h273l250 -353h-311l-15 21q-2 2 -17 25q-8 12 -26 34q-4 2 -5 4t-5 6l-84 -90h-305z" />
    <glyph glyph-name="caron" unicode="&#x2c7;" horiz-adv-x="825" 
d="M274 1081l-245 353h305l84 -91l10 11q14 16 26 32q15 24 17 27l14 21h312l-250 -353h-273z" />
    <glyph glyph-name="firsttonechinese" unicode="&#x2c9;" horiz-adv-x="628" 
d="M45 1081v228h539v-228h-539z" />
    <glyph glyph-name="breve" unicode="&#x2d8;" horiz-adv-x="675" 
d="M45 1407h256v-43q0 -14 3 -28q2 -12 9 -27q11 -17 23 -17q17 2 25 17q8 19 10 27q4 12 2 28v43h258v-41q0 -49 -16 -102q-15 -55 -51 -98q-38 -46 -92 -72q-136 -59 -272 0q-55 27 -90 72q-35 47 -50 98q-15 50 -15 102v41z" />
    <glyph glyph-name="dotaccent" unicode="&#x2d9;" horiz-adv-x="428" 
d="M49 1081v308h330v-308h-330z" />
    <glyph glyph-name="ring" unicode="&#x2da;" horiz-adv-x="509" 
d="M57 1203q-10 34 -10 73q0 36 11 72q10 34 37 61q25 26 65 43q94 34 188 0q40 -17 65 -43q27 -28 38 -61q12 -34 12 -72q0 -41 -11 -74q-9 -31 -36 -61q-27 -29 -65 -43q-97 -34 -194 0q-38 14 -65 43q-27 30 -35 62zM254 1257q4 0 4 19q0 7 -2 10q0 2 -2 4q0 -3 -1 -5
q-1 -3 -1 -9q0 -9 1 -13q1 -2 1 -6z" />
    <glyph glyph-name="uni1d00" unicode="&#x1d00;" horiz-adv-x="1501" 
d="M102 4l25 55q152 354 228 528q160 367 229 527l-19 45h352l13 -28q148 -358 222 -535q197 -472 224 -536l23 -56h-359l-61 146h-455l-61 -146h-361zM637 414h233l-114 282z" />
    <glyph glyph-name="uni1d04" unicode="&#x1d04;" horiz-adv-x="1218" 
d="M1165 151l-8 -14q-35 -55 -91 -79q-60 -28 -122 -44q-54 -14 -129 -21q-70 -5 -110 -5q-144 -2 -272 49q-118 46 -206 131q-86 84 -130 189q-46 105 -46 225q0 119 46 223q47 107 130 189q91 88 206 133q128 51 272 49q47 0 100 -4q58 -4 122 -17t120 -34q53 -18 94 -56
l-74 2q27 -2 48 -7l30 -9q10 -5 20 -15l-57 -188l-47 -141l-60 79q-24 31 -53 48q-31 19 -73 34q-39 14 -83 22q-41 7 -87 7q-62 1 -122 -27q-53 -26 -91 -71q-37 -44 -57 -102q-19 -54 -19 -115t19 -117q18 -55 57 -102q40 -47 95.5 -72.5t117.5 -24.5q42 0 90 8
q41 7 85 25q33 13 70 40q29 22 49 54l58 100z" />
    <glyph glyph-name="uni1d05" unicode="&#x1d05;" horiz-adv-x="1228" 
d="M68 4v1155h409q341 0 518 -146q178 -147 178 -431q2 -127 -35 -241q-33 -104 -113 -182q-88 -82 -199 -115q-141 -43 -294 -40h-464zM412 274h102q72 -2 140 21q55 19 90 60q37 45 49 98q14 59 14 129q0 144 -74 226q-73 81 -246 81h-75v-615z" />
    <glyph glyph-name="uni1d07" unicode="&#x1d07;" horiz-adv-x="1015" 
d="M68 4v1155h860v-278h-516v-213h479v-271h-479v-114h544v-279h-888z" />
    <glyph glyph-name="uni1d0a" unicode="&#x1d0a;" horiz-adv-x="870" 
d="M45 580l344 61v-51q0 -39 -1 -74q-1 -51 5 -110q1 -6 3.5 -25t4.5 -28q2 -17 13 -40q3 -8 7 -13l5 -5q14 0 21 12q10 24 10 53v799h346v-799q0 -71 -21 -137q-20 -69 -68 -122.5t-115 -80.5q-89 -35 -175 -32q-127 0 -202 42q-71 38 -114 107q-41 67 -52 145
q-11 79 -11 150v148z" />
    <glyph glyph-name="uni1d0b" unicode="&#x1d0b;" horiz-adv-x="1239" 
d="M68 4v1155h344v-327l299 327h395l-49 -63q-3 -7 -11 -15l-10 -10l-319 -342l420 -725h-383l-15 23q-71 120 -133 220t-133 220l-61 -64v-399h-344z" />
    <glyph glyph-name="uni1d0d" unicode="&#x1d0d;" horiz-adv-x="1447" 
d="M68 4v1155h462l191 -598l184 598h475v-1155h-338v541l-172 -541h-321l12 45l-156 479v-524h-337z" />
    <glyph glyph-name="uni1d0f" unicode="&#x1d0f;" horiz-adv-x="1355" 
d="M90 357q-39 108 -39 225q2 237 164 407q85 88 197 135q128 51 266 51t266 -51q112 -47 197 -135q79 -82 120 -190q41 -105 41 -217q0 -119 -38 -224q-39 -105 -117 -189q-83 -86 -195 -132q-133 -49 -274 -49t-274 49q-112 45 -196 131q-81 84 -118 189zM678 266
q62 -2 116 27q48 25 80 70q33 47 47 102q15 57 15 117q0 59 -16 111q-14 52 -50 102q-33 45 -80 73q-52 31 -112 29q-61 2 -113 -29q-50 -30 -82 -73q-33 -47 -50 -102q-17 -56 -17 -111q0 -60 15 -117q13 -55 48 -102q34 -44 82 -70q54 -29 117 -27z" />
    <glyph glyph-name="uni1d18" unicode="&#x1d18;" horiz-adv-x="991" 
d="M68 4v1155h333q103 0 198 -16q89 -15 174 -58q76 -39 125 -110q53 -82 48 -178q3 -98 -40 -189q-40 -79 -110 -128q-78 -54 -169 -73q-109 -25 -215 -26v-377h-344zM412 889v-238q98 0 144 34t46 112q0 50 -59 71q-34 12 -63 16q-38 5 -68 5z" />
    <glyph glyph-name="uni1d1b" unicode="&#x1d1b;" horiz-adv-x="1216" 
d="M434 4v877h-332v278h1012v-278h-332v-877h-348z" />
    <glyph glyph-name="uni1d1c" unicode="&#x1d1c;" horiz-adv-x="1116" 
d="M49 1159h344v-661q-4 -78 36 -148q36 -55 128 -55t128 55q40 70 36 148v661h344v-702q1 -96 -29 -189q-27 -83 -90 -148q-68 -66 -158 -97q-231 -70 -462 0q-90 31 -158 97q-63 65 -90 148q-30 93 -29 189v702z" />
    <glyph glyph-name="uni1d20" unicode="&#x1d20;" horiz-adv-x="1019" 
d="M356 4l-391 1094q-2 4 -2 6t-2 6l-12 49h366l9 -31l93 -287q47 -143 93 -288q69 215 91 288q17 55 49 157.5t40 129.5l10 31h365l-10 -49q-2 -4 -2 -6t-2 -6l-381 -1094h-314z" />
    <glyph glyph-name="uni1d21" unicode="&#x1d21;" horiz-adv-x="1523" 
d="M299 4l-256 1096l-12 59h362l10 -28q2 -4 2 -8q0 -3 2 -7l82 -393l117 436h318l118 -434l78 391q0 8 2 12l10 31h365l-12 -49q-54 -220 -129 -537q-67 -283 -129 -536l-9 -33h-317l-139 508l-144 -508h-319z" />
    <glyph glyph-name="uni1d22" unicode="&#x1d22;" horiz-adv-x="1105" 
d="M55 4v252l549 625h-522v278h967v-252l-549 -624h549v-279h-994z" />
    <glyph glyph-name="Wgrave" unicode="&#x1e80;" horiz-adv-x="1583" 
d="M285 4l-279 1370q-2 6 -2 19v41h387l8 -35l93 -516l127 551h346l133 -549q30 172 44 257t44 257l6 35h389v-41q0 -6 -1 -9t-1 -8l-289 -1372h-348l-151 637l-158 -637h-348zM664 1493l-207 352h395l100 -352h-288z" />
    <glyph glyph-name="Wacute" unicode="&#x1e82;" horiz-adv-x="1583" 
d="M285 4l-279 1370q-2 6 -2 19v41h387l8 -35l93 -516l127 551h346l133 -549q30 172 44 257t44 257l6 35h389v-41q0 -6 -1 -9t-1 -8l-289 -1372h-348l-151 637l-158 -637h-348zM633 1493l98 352h397l-209 -352h-286z" />
    <glyph glyph-name="Wdieresis" unicode="&#x1e84;" horiz-adv-x="1583" 
d="M285 4l-279 1370q-2 6 -2 19v41h387l8 -35l93 -516l127 551h346l133 -549q30 172 44 257t44 257l6 35h389v-41q0 -6 -1 -9t-1 -8l-289 -1372h-348l-151 637l-158 -637h-348zM485 1493v309h615v-309h-615z" />
    <glyph glyph-name="Etilde" unicode="&#x1ebc;" horiz-adv-x="1120" 
d="M72 4v1430h983v-301h-611v-330h574v-291h-574v-207h639v-301h-1011zM229 1493v43q0 29 8 87q8 56 29 103q10 26 27 48q18 27 40 44q23 19 54 31q36 13 70 13h47v-7q31 -11 54 -25q19 -11 44 -32q14 -10 19 -15q3 -3 16 -18q2 16 2 25v55h256v-41q0 -44 -6 -87
q-6 -52 -29 -103q-26 -54 -65 -91q-55 -49 -127 -44h-45v8q-28 11 -46 22q-11 8 -30 27t-27 29l-24 24q0 1 -5 6q-4 -16 -4 -38v-64h-258z" />
    <glyph glyph-name="Ygrave" unicode="&#x1ef2;" horiz-adv-x="1136" 
d="M381 4v41v38q0 44 1 73t1 95v380q-9 30 -24 61t-29 53q-11 19 -35 59q-27 44 -37 66l-256 496l45 -25q-18 11 -31 26q-12 14 -24 32q-13 20 -19 35h332l14 -25q82 -148 124 -222t124 -222l126 222q42 74 124 222l14 25h332l-37 -93l-247 -471q-10 -22 -37 -66
q-24 -40 -35 -59q-35 -55 -53 -116v-378q0 -66 1 -95t1 -73v-79h-375zM442 1493l-211 352h398l100 -352h-287z" />
    <glyph glyph-name="endash" unicode="&#x2013;" horiz-adv-x="876" 
d="M47 391v254h782v-254h-782z" />
    <glyph glyph-name="emdash" unicode="&#x2014;" horiz-adv-x="1247" 
d="M47 391v254h1153v-254h-1153z" />
    <glyph glyph-name="quoteleft" unicode="&#x2018;" horiz-adv-x="438" 
d="M53 928v264q0 49 16 102q15 46 49 82q40 38 87 54q64 21 129 20h49v-190h-49q-28 3 -37 -25h86v-307h-330z" />
    <glyph glyph-name="quoteright" unicode="&#x2019;" horiz-adv-x="440" 
d="M55 928v190h49q15 0 26 4q11 7 13 21h-88v307h330v-266q0 -57 -13 -106q-12 -46 -46 -82q-35 -35 -87 -51q-63 -19 -135 -17h-49z" />
    <glyph glyph-name="quotedblleft" unicode="&#x201c;" horiz-adv-x="784" 
d="M53 928v264q0 49 16 102q15 46 49 82q40 38 87 54q64 21 129 20h49v-190h-49q-28 3 -37 -25h86v-307h-330zM399 928v264q0 49 16 102q15 46 49 82q40 38 87 54q64 21 129 20h49v-190h-49q-28 3 -37 -25h86v-307h-330z" />
    <glyph glyph-name="quotedblright" unicode="&#x201d;" horiz-adv-x="784" 
d="M55 928v190h49q15 0 26 4q11 6 13 21h-88v307h330v-266q0 -57 -13 -106q-12 -46 -46 -82q-35 -35 -87 -51q-63 -19 -135 -17h-49zM401 928v190h50q14 0 25 4q11 6 13 21h-88v307h330v-266q0 -57 -13 -106q-12 -46 -46 -82q-35 -35 -87 -51q-63 -19 -135 -17h-49z" />
    <glyph glyph-name="dagger" unicode="&#x2020;" horiz-adv-x="1144" 
d="M416 -86v952h-314v262h314v306h313v-306h313v-262h-313v-952h-313z" />
    <glyph glyph-name="daggerdbl" unicode="&#x2021;" horiz-adv-x="1054" 
d="M371 -86v305h-314v264h314v383h-314v262h314v306h313v-306h313v-262h-313v-383h313v-264h-313v-305h-313z" />
    <glyph glyph-name="bullet" unicode="&#x2022;" horiz-adv-x="428" 
d="M49 360v308h330v-308h-330z" />
    <glyph glyph-name="ellipsis" unicode="&#x2026;" horiz-adv-x="1167" 
d="M49 4v307h330v-307h-330zM418 4v307h332v-307h-332zM788 4v307h330v-307h-330z" />
    <glyph glyph-name="perthousand" unicode="&#x2030;" horiz-adv-x="2054" 
d="M427 864q-63 -36 -132 -33q-69 -3 -132 33q-51 31 -83 80t-43 100q-25 96 0 193q11 51 43 100q35 51 83 80q62 33 132 33t132 -33q51 -31 83 -80q31 -49 43 -101q10 -40 12 -95q-2 -55 -12 -95q-12 -52 -43 -101q-32 -50 -83 -81zM176 4l885 1430h186l-885 -1430h-186z
M247 1101q3 -25 13 -44q7 -18 19 -29q15 -14 31 0q14 12 20 29q10 19 13 44q6 40 0 80q-3 25 -13 44q-5 15 -20 28q-15 14 -31 0q-13 -12 -19 -28q-10 -19 -13 -44q-6 -40 0 -80zM1450 130q-19 39 -29 79q-10 -44 -26 -78q-17 -36 -50 -71q-72 -75 -180 -72q-71 -3 -131 37
q-47 32 -80 84q-26 45 -37 99q-10 52 -10 95q0 41 10 91q11 54 39 100q30 49 79 79q61 36 130 33q57 2 106 -19q39 -17 74 -50q32 -32 50 -69q16 -32 26 -75q10 38 29 77q18 38 49 69q34 33 76 49q51 20 106 18q71 3 132 -32q52 -31 83 -77t43 -99q13 -50 13 -95
q-2 -49 -12 -95q-12 -56 -42 -104q-31 -49 -83 -82q-62 -37 -134 -34q-56 -2 -106 19q-44 19 -76 51q-32 33 -49 72zM1165 178q7 2 12 6q13 15 19 31q10 21 13 47q3 21 3 41q0 19 -3 39q-3 23 -13 41q-5 14 -19 28q-4 3 -12 5q-6 -2 -9 -4q-12 -12 -17 -29q-10 -26 -11 -42
q-2 -28 -2 -38q0 -9 2 -41q1 -17 11 -47q9 -19 18 -31q1 -1 8 -6zM1631 262q3 -26 13 -47q6 -17 21 -30q7 -5 16 -7q10 2 15 6q13 11 20 31q10 22 12 47q2 32 2 41q0 19 -3 39q-4 25 -11 41q-7 18 -19 28q-8 5 -16 5q-9 0 -17 -6q-13 -12 -20 -25q-16 -42 -16 -82
q0 -20 3 -41z" />
    <glyph glyph-name="guilsinglleft" unicode="&#x2039;" horiz-adv-x="618" 
d="M283 94l-244 418l244 420h297l-246 -420l246 -418h-297z" />
    <glyph glyph-name="guilsinglright" unicode="&#x203a;" horiz-adv-x="618" 
d="M39 94l244 418l-244 420h295l246 -420l-246 -418h-295z" />
    <glyph glyph-name="fraction" unicode="&#x2044;" horiz-adv-x="1273" 
d="M102 4l885 1430h184l-882 -1430h-187z" />
    <glyph glyph-name="Euro" unicode="&#x20ac;" horiz-adv-x="1409" 
d="M31 508l28 199h86v24h-98l29 199h98q29 102 87 194q60 97 144 166q93 76 200 116q124 46 255 44q49 0 109 -4q68 -5 137 -15q44 -8 68 -13q42 -9 69 -19q29 -11 60 -29q26 -16 44 -39l11 -14l-115 -355l-59 80q-24 32 -58 48q-46 23 -81 33q-48 14 -92 20q-47 6 -93 6
q-50 0 -95 -18q-45 -17 -79 -48q-38 -35 -61 -70q-29 -42 -46 -83h426l-28 -199h-436v-24h448l-29 -199h-381q17 -41 46 -83q25 -38 61 -71q34 -31 79 -48q43 -17 95 -17q51 0 96 7q51 8 93 22q44 16 79 39q32 20 54 55l57 98l119 -367l-8 -14q-15 -26 -41 -44
q-28 -20 -60 -34q-24 -11 -67 -24q-36 -11 -68 -17q-78 -13 -140 -17q-77 -5 -114 -5q-131 -2 -255 44q-109 41 -200 115q-84 69 -144 166q-56 89 -87 195h-143z" />
    <glyph glyph-name="minus" unicode="&#x2212;" horiz-adv-x="1081" 
d="M43 414v209h995v-209h-995z" />
    <glyph glyph-name="divisionslash" unicode="&#x2215;" horiz-adv-x="1214" 
d="M102 4l826 1430h184l-825 -1430h-185z" />
    <glyph glyph-name="bulletoperator" unicode="&#x2219;" horiz-adv-x="428" 
d="M49 360v308h330v-308h-330z" />
    <glyph glyph-name="unia730" unicode="&#xa730;" 
d="M68 4v1155h860v-278h-516v-213h460v-271h-460v-393h-344z" />
    <glyph glyph-name="unia731" unicode="&#xa731;" horiz-adv-x="1095" 
d="M74 170l9 16q18 49 47 117q8 19 24.5 57.5t24.5 57.5l39 92l51 -86q17 -23 45 -41q67 -46 134 -72q69 -28 147 -30q100 0 100 57q0 20 -13 33q-18 16 -46 28q-35 16 -68 23q-13 3 -36 7.5t-32 6.5q-88 15 -170 45q-76 27 -140 75q-59 44 -96 112q-56 105 -32 221.5
t117 190.5q62 48 136 71q86 26 171 25q36 0 109 -7q69 -6 129 -19q63 -13 127 -33q54 -17 102 -48q9 -5 18 -16l15 -19l-148 -295l-53 62v1q-1 1 -2 1q0 4 -6 4q-8 5 -19 10q-63 30 -132 45q-78 17 -140 17q-29 0 -59 -11q-10 -4 -14 -9q-3 -5 -3 -9q0 -31 54 -55
q33 -16 62 -23q37 -8 62 -12q88 -16 182 -49q79 -29 143 -81q60 -50 94 -120q36 -76 34 -164q2 -83 -33 -155q-31 -65 -91 -111q-63 -48 -140 -69q-90 -24 -182 -23q-114 0 -222 27q-106 25 -206 75q-22 10 -41 25q-24 17 -41 39z" />
    <glyph glyph-name="A.alt1" unicode="&#xf000;" horiz-adv-x="1429" 
d="M878 1434q61 -236 114.5 -418t120 -367t133 -317t150 -252t173.5 -189.5t201 -112t236 -36t274.5 55t320.5 145.5l98 -331q-310 -133 -582.5 -165.5t-502 35t-407.5 251t-288 476.5l-457 2l-74 -207h-408l529 1378l-16 52h385zM568 498h250l-123 352z" />
    <glyph glyph-name="K.alt1" unicode="&#xf001;" horiz-adv-x="1255" 
d="M815 928l455 -924h-426l-291 627l-109 -123v-504h-372v1430h372v-441q223 448 580 704.5t811.5 283.5t974.5 -224l-156 -292q-242 127 -464 173t-412 18t-364 -125t-320 -246.5t-279 -356.5z" />
    <glyph glyph-name="K.alt2" unicode="&#xf002;" horiz-adv-x="1341" 
d="M815 928q85 -272 188 -473t241.5 -347t306 -211.5t381.5 -51.5t468 118l156 -273q-379 -131 -693 -136t-562 116t-434 360.5t-314 600.5l-109 -123v-504h-372v1430h372v-441l367 441h431z" />
    <glyph glyph-name="L.alt1" unicode="&#xf003;" horiz-adv-x="958" 
d="M72 4v1430h372v-1129q149 0 237.5 -38.5t168.5 -130.5q76 -89 159.5 -153.5t187 -107.5t213 -51t240.5 25.5t267 113.5l176 -273q-278 -172 -557 -205t-521 66.5t-433 317.5q-20 23 -44.5 41.5t-46 31.5t-55.5 23.5t-53.5 17t-61.5 11t-59 6.5t-65.5 3t-60.5 1h-64z" />
    <glyph glyph-name="Q.alt1" unicode="&#xf004;" horiz-adv-x="1402" 
d="M2315 -271q-318 -145 -596 -158.5t-489 99.5t-343 342q-91 -24 -189 -24q-186 0 -313 68q-124 63 -210 174q-82 106 -117 236q-33 119 -35 253q0 69 11 143q12 74 38 144q36 91 89 165q58 82 135 143q176 139 402 136q114 2 225 -37q100 -35 180 -99q155 -122 222 -308
q51 -138 51 -287q0 -69 -11 -144q-12 -75 -36 -147q-27 -76 -65 -138q-43 -69 -101 -124q69 -112 155 -183t181 -103t209 -30.5t232 30t258 83.5zM643 412l254 192l55 -90q17 52 23 101q6 51 6 104q0 86 -23 170q-14 53 -35 94q-22 45 -57 84q-32 36 -74 59q-44 22 -94 22
t-93 -22q-44 -24 -75 -59q-32 -37 -56 -84q-23 -46 -36 -94q-20 -80 -20 -170q0 -63 13 -138q14 -79 48 -145q31 -63 88 -107q61 -43 131 -40h21z" />
    <glyph glyph-name="R.alt1" unicode="&#xf005;" horiz-adv-x="1110" 
d="M72 4v1430h407q118 1 236 -26q95 -20 181 -80q76 -55 116 -139q44 -96 41 -202q0 -63 -14 -130q-14 -65 -45 -121q-33 -59 -85 -103q-61 -52 -131 -78q36 -186 106 -314.5t161.5 -199t215.5 -97t258.5 -15t299.5 55.5l136 -256q-1133 -416 -1511 683v-408h-372zM444 795
h45q104 0 148 50q43 49 43 142q0 86 -53 122t-158 36h-25v-350z" />
    <glyph glyph-name="T.alt1" unicode="&#xf006;" horiz-adv-x="520" 
d="M72 4v1519h-971v301h1712v-301h-366v-1519h-375z" />
    <glyph glyph-name="T.alt2" unicode="&#xf007;" horiz-adv-x="518" 
d="M71 4l1 1519h-367v301h1693v-301h-952v-1519h-375z" />
    <glyph glyph-name="V.alt1" unicode="&#xf008;" horiz-adv-x="1419" 
d="M1024 1434h410l-452 -1430h-340q-71 337 -163.5 600t-199 448.5t-237 308t-271 185.5t-308 75t-340.5 -18t-377 -99l-98 312q165 45 310.5 72.5t299 40t287 2t268.5 -47.5t250.5 -102.5t226 -167.5t202.5 -238.5t173 -320.5t143 -409z" />
    <glyph glyph-name="V.alt2" unicode="&#xf009;" horiz-adv-x="1320" 
d="M2932 1835l-137 -312q-189 109 -366.5 165t-332.5 59t-297 -38t-262 -124t-225 -201.5t-189.5 -268t-152 -326t-115 -373.5t-76.5 -412h-340l-457 1430h401l222 -789q74 303 197.5 550t286.5 426t367.5 287.5t435.5 140.5t496 -21t544 -193z" />
    <glyph glyph-name="W.alt1" unicode="&#xf00a;" horiz-adv-x="1970" 
d="M1564 1434h409l-311 -1430h-348l-151 637l-158 -637h-348q-393 2066 -1895 1500l-97 312q282 97 535.5 124.5t491 -19t444 -172.5t391.5 -343t337 -523l127 551h346l133 -549z" />
    <glyph glyph-name="W.alt2" unicode="&#xf00b;" horiz-adv-x="1886" 
d="M3455 1835l-137 -312q-211 114 -398 168t-338 58t-286.5 -51t-240 -134t-202 -216t-168 -272t-144 -328.5t-124.5 -357.5t-113 -386h-349l-151 637l-158 -637h-348l-300 1430h407l100 -551l127 551h346l133 -549q109 208 216.5 373t242.5 317t278 253t319 164.5t369 69
t426.5 -49.5t492.5 -177z" />
    <glyph glyph-name="X.alt1" unicode="&#xf00c;" horiz-adv-x="1261" 
d="M1280 1434l-37 -62l-405 -663l350 -645l33 -60h-350l-13 25q-79 142 -103 188q-16 32 -104 189l-243 -402h-377l444 727q-167 407 -430 640.5t-593 269t-714 -136.5l-98 312q288 88 538.5 115t476.5 -10t411 -143.5t337 -293t259 -450.5l243 400h375z" />
    <glyph glyph-name="X.alt2" unicode="&#xf00d;" horiz-adv-x="1224" 
d="M788 709l351 -645l32 -60h-350l-12 25q-79 142 -103 188q-16 32 -104 189l-244 -402h-376l444 727q-28 52 -86.5 159.5t-88.5 162.5q-31 57 -90 165t-85 156l-33 60h352l217 -400q101 195 209.5 352t238.5 287t272.5 216t310.5 132t352 42.5t398.5 -60t449.5 -168.5
l-137 -312q-170 96 -325.5 152t-289 74.5t-257 1.5t-227 -60t-201.5 -118t-179 -163t-161 -205.5t-145 -235t-133 -260.5z" />
    <glyph glyph-name="Y.alt1" unicode="&#xf00e;" horiz-adv-x="1298" 
d="M1326 1434l-410 -805l2 -625h-375l3 627q-108 226 -225.5 400.5t-237 293.5t-249.5 193.5t-259 105.5t-269 25t-276.5 -42.5t-283.5 -102.5l-98 312q193 64 368.5 98.5t348.5 38t327.5 -29t302 -106.5t276 -189t245.5 -282t214 -381l264 469h332z" />
    <glyph glyph-name="Y.alt2" unicode="&#xf00f;" horiz-adv-x="1243" 
d="M2736 1523q-204 120 -391.5 178.5t-347.5 59t-308 -54t-272.5 -150.5t-240.5 -239.5t-213.5 -311.5t-191.5 -376l2 -625h-375l2 627l-429 803h352l262 -469q785 1603 2287 870z" />
    <glyph glyph-name="Z.alt1" unicode="&#xf010;" horiz-adv-x="1062" 
d="M-23 -386v270l617 1249h-590v301h1061v-271l-636 -1248h1221v-301h-1673z" />
    <glyph glyph-name="Z.alt2" unicode="&#xf011;" horiz-adv-x="1085" 
d="M-3 4v270l617 1249h-1175v301h1646v-271l-617 -1248h617v-301h-1088z" />
    </font>
</defs>
</svg>
